<svg xmlns="http://www.w3.org/2000/svg" viewBox="0 0 1140 1108"><defs><style>.cls-1{fill:#fff;stroke:#000;stroke-miterlimit:10;stroke-width:2.79px;}.cls-2{font-size:24px;font-family:Poppins-Bold, Poppins;font-weight:700;}.cls-3{font-size:23px;font-family:Poppins-Regular, Poppins;}.cls-4{letter-spacing:0.19em;}.cls-5{letter-spacing:0.19em;}.cls-6{letter-spacing:0em;}.cls-7{letter-spacing:0.19em;}.cls-8{fill:#e01919;}</style></defs><g id="Imagen"><rect class="cls-1" x="244.03" y="262.31" width="678.85" height="668.69"/><line class="cls-1" x1="244.03" y1="931" x2="922.88" y2="262.31"/><line class="cls-1" x1="922.88" y1="931" x2="244.03" y2="262.31"/></g><g id="Texto"><text class="cls-2" transform="translate(358.76 85.87)">CAMINO A UNA NUEVA CONSTITUCIÓN</text><text class="cls-3" transform="translate(246.94 147.63)">Lorem<tspan class="cls-4" x="71.62" y="0"> </tspan><tspan x="81.56" y="0">ipsum</tspan><tspan class="cls-4" x="152.66" y="0"> </tspan><tspan x="162.6" y="0">dolor</tspan><tspan class="cls-5" x="221.96" y="0"> </tspan><tspan class="cls-6" x="231.9" y="0">sit</tspan><tspan class="cls-4" x="257.82" y="0"> </tspan><tspan x="267.77" y="0">amet,</tspan><tspan class="cls-7" x="333.89" y="0"> </tspan><tspan x="343.83" y="0">consectetuer</tspan><tspan class="cls-4" x="497.49" y="0"> </tspan><tspan x="507.43" y="0">adipiscing</tspan><tspan class="cls-4" x="626.76" y="0"> </tspan><tspan x="636.7" y="0">elit, </tspan><tspan x="0" y="27.6">sed diam nonummy nibh euismod tincidunt ut lao</tspan></text><path class="cls-8" d="M372.65,204.17v2.07H376V208h-3.34v2.2h3.76v1.92h-6.16v-9.9h6.16v1.91Z"/><path class="cls-8" d="M381.61,203.28a1.21,1.21,0,0,0-.86.26,1.12,1.12,0,0,0-.29.81h1.41v2h-1.41v5.8h-2.4v-5.8h-.93v-2h.93v-.09a2.92,2.92,0,0,1,.85-2.24,3.47,3.47,0,0,1,2.46-.8l.5,0v2.06Z"/><path class="cls-8" d="M390.27,208.69h-5.42a1.79,1.79,0,0,0,.45,1.26,1.44,1.44,0,0,0,1,.39,1.4,1.4,0,0,0,.88-.27,1.19,1.19,0,0,0,.46-.68h2.54a3.31,3.31,0,0,1-.68,1.47,3.52,3.52,0,0,1-1.31,1,4.29,4.29,0,0,1-1.78.37,4.11,4.11,0,0,1-2-.49,3.38,3.38,0,0,1-1.39-1.39,4.3,4.3,0,0,1-.5-2.13,4.35,4.35,0,0,1,.49-2.13,3.41,3.41,0,0,1,1.4-1.39,4.21,4.21,0,0,1,2-.48,4.3,4.3,0,0,1,2,.47,3.4,3.4,0,0,1,1.37,1.34,4,4,0,0,1,.48,2A3.14,3.14,0,0,1,390.27,208.69Zm-2.76-2.17a1.69,1.69,0,0,0-2.15,0,1.62,1.62,0,0,0-.49,1.15h3.05A1.47,1.47,0,0,0,387.51,206.52Z"/><path class="cls-8" d="M397.65,205.08a3.73,3.73,0,0,1,1.29,2.29H396.4a1.32,1.32,0,0,0-.46-.78,1.35,1.35,0,0,0-.88-.28,1.28,1.28,0,0,0-1,.49,2.28,2.28,0,0,0-.4,1.45,2.24,2.24,0,0,0,.4,1.45,1.29,1.29,0,0,0,1,.5,1.28,1.28,0,0,0,1.34-1.06h2.54a3.68,3.68,0,0,1-1.29,2.28,3.86,3.86,0,0,1-2.53.84,4.11,4.11,0,0,1-2-.49,3.38,3.38,0,0,1-1.39-1.39,4.3,4.3,0,0,1-.51-2.13,4.35,4.35,0,0,1,.5-2.13,3.38,3.38,0,0,1,1.39-1.39,4.28,4.28,0,0,1,2.05-.48A3.91,3.91,0,0,1,397.65,205.08Z"/><path class="cls-8" d="M404.61,210.1v2.06h-1.08a3.12,3.12,0,0,1-2.14-.68,2.91,2.91,0,0,1-.76-2.25v-2.87h-1.05v-2h1.05v-1.92H403v1.92h1.56v2H403v2.92a.91.91,0,0,0,.18.64.92.92,0,0,0,.64.18Z"/><path class="cls-8" d="M411.68,204.73a3.49,3.49,0,0,1,1.45,1.4,4.14,4.14,0,0,1,.52,2.12,4.2,4.2,0,0,1-.52,2.13,3.47,3.47,0,0,1-1.45,1.39,4.66,4.66,0,0,1-4.16,0,3.47,3.47,0,0,1-1.45-1.39,4.21,4.21,0,0,1-.53-2.13,4.14,4.14,0,0,1,.53-2.12,3.49,3.49,0,0,1,1.45-1.4,4.75,4.75,0,0,1,4.16,0Zm-3.23,2.09a2.41,2.41,0,0,0,0,2.86,1.59,1.59,0,0,0,2.3,0,2.45,2.45,0,0,0,0-2.86,1.51,1.51,0,0,0-1.15-.5A1.53,1.53,0,0,0,408.45,206.82Z"/><path class="cls-8" d="M424.41,210.81a2.91,2.91,0,0,1-1.18,1.06,4.12,4.12,0,0,1-1.88.39,4.43,4.43,0,0,1-2.74-.81,3,3,0,0,1-1.18-2.27H420a1.34,1.34,0,0,0,.4.88,1.24,1.24,0,0,0,.87.32,1,1,0,0,0,.73-.25.87.87,0,0,0,.27-.67.89.89,0,0,0-.25-.63,1.84,1.84,0,0,0-.61-.42c-.24-.1-.58-.23-1-.38a14.06,14.06,0,0,1-1.53-.62,2.73,2.73,0,0,1-1-.9,2.56,2.56,0,0,1-.43-1.55,2.6,2.6,0,0,1,.45-1.52,2.85,2.85,0,0,1,1.24-1,4.5,4.5,0,0,1,1.81-.34,4.1,4.1,0,0,1,2.63.78,3,3,0,0,1,1.1,2.16H422a1.35,1.35,0,0,0-.36-.78,1.06,1.06,0,0,0-.78-.29,1,1,0,0,0-.68.23.84.84,0,0,0-.26.66.81.81,0,0,0,.24.59,1.66,1.66,0,0,0,.58.4c.23.1.57.23,1,.39a11.48,11.48,0,0,1,1.56.64,2.9,2.9,0,0,1,1,.92,2.6,2.6,0,0,1,.44,1.56A2.65,2.65,0,0,1,424.41,210.81Z"/><path class="cls-8" d="M436.05,202.26v1.91h-2.69v8H431v-8h-2.66v-1.91Z"/><path class="cls-8" d="M442.25,202.26v9.9h-2.39v-9.9Z"/><path class="cls-8" d="M454.35,203.16a4.57,4.57,0,0,1,1.61,2.69h-2.54a2.25,2.25,0,0,0-.86-1.08,2.41,2.41,0,0,0-1.38-.39,2.1,2.1,0,0,0-1.69.76,3.13,3.13,0,0,0-.64,2.06,3.05,3.05,0,0,0,.64,2.05,2.1,2.1,0,0,0,1.69.77,2.41,2.41,0,0,0,1.38-.39,2.32,2.32,0,0,0,.86-1.07H456a4.57,4.57,0,0,1-1.61,2.68,4.77,4.77,0,0,1-3.12,1,5,5,0,0,1-2.54-.63,4.36,4.36,0,0,1-1.69-1.79,6.09,6.09,0,0,1,0-5.23,4.3,4.3,0,0,1,1.69-1.79,5,5,0,0,1,2.54-.64A4.77,4.77,0,0,1,454.35,203.16Z"/><path class="cls-8" d="M464.76,207.1l4,5.06h-2.9l-3.35-4.44v4.44h-2.4v-9.9h2.4v4.36l3.38-4.36h2.87Z"/><path class="cls-8" d="M481.11,202.26l-3.43,6.61v3.29h-2.4v-3.29l-3.43-6.61h2.74l1.9,4,1.91-4Z"/><path class="cls-8" d="M490.05,205a3.22,3.22,0,0,1,1.12,2h-2.24a1.29,1.29,0,0,0-.44-.75,1.37,1.37,0,0,0-.87-.27,1,1,0,0,0-.61.17.63.63,0,0,0-.21.5.59.59,0,0,0,.38.55,6.26,6.26,0,0,0,1.21.36,10.86,10.86,0,0,1,1.47.43,2.4,2.4,0,0,1,1,.7,2,2,0,0,1,.42,1.32,2,2,0,0,1-.36,1.19,2.37,2.37,0,0,1-1.06.81,4,4,0,0,1-1.62.3,4.21,4.21,0,0,1-2.53-.7,3,3,0,0,1-1.17-2h2.31a1.06,1.06,0,0,0,.43.77,1.67,1.67,0,0,0,1,.26.89.89,0,0,0,.62-.19.62.62,0,0,0,.21-.49.61.61,0,0,0-.39-.59,7.67,7.67,0,0,0-1.25-.37,9.74,9.74,0,0,1-1.43-.39,2.38,2.38,0,0,1-1-.68,1.84,1.84,0,0,1-.41-1.28,2.06,2.06,0,0,1,.8-1.7,3.49,3.49,0,0,1,2.25-.65A3.59,3.59,0,0,1,490.05,205Z"/><path class="cls-8" d="M498.34,204.73a3.53,3.53,0,0,1,1.44,1.4,4.14,4.14,0,0,1,.53,2.12,4.21,4.21,0,0,1-.53,2.13,3.5,3.5,0,0,1-1.44,1.39,4.66,4.66,0,0,1-4.16,0,3.47,3.47,0,0,1-1.45-1.39,4.21,4.21,0,0,1-.53-2.13,4.14,4.14,0,0,1,.53-2.12,3.49,3.49,0,0,1,1.45-1.4,4.75,4.75,0,0,1,4.16,0Zm-3.23,2.09a2.41,2.41,0,0,0,0,2.86,1.59,1.59,0,0,0,2.3,0,2.45,2.45,0,0,0,0-2.86,1.57,1.57,0,0,0-2.3,0Z"/><path class="cls-8" d="M508.16,204.73a3.35,3.35,0,0,1,1.2,1.39,4.85,4.85,0,0,1,.44,2.13,4.91,4.91,0,0,1-.44,2.13,3.29,3.29,0,0,1-1.2,1.39,3.12,3.12,0,0,1-1.73.49,2.83,2.83,0,0,1-1.54-.41,2.34,2.34,0,0,1-.94-1.1v1.41h-2.4V201.8H504v4a2.29,2.29,0,0,1,.94-1.1,2.83,2.83,0,0,1,1.54-.41A3.19,3.19,0,0,1,508.16,204.73Zm-3.74,2.13a2.22,2.22,0,0,0,0,2.78,1.75,1.75,0,0,0,2.48,0,2,2,0,0,0,.46-1.4,2,2,0,0,0-.46-1.4,1.65,1.65,0,0,0-1.24-.5A1.62,1.62,0,0,0,504.42,206.86Z"/><path class="cls-8" d="M514.6,204.68a2.94,2.94,0,0,1,1.53-.42v2.57h-.69a2.36,2.36,0,0,0-1.47.4,1.63,1.63,0,0,0-.53,1.37v3.56h-2.39v-7.81h2.39v1.47A3.33,3.33,0,0,1,514.6,204.68Z"/><path class="cls-8" d="M524.49,208.69h-5.42a1.79,1.79,0,0,0,.45,1.26,1.42,1.42,0,0,0,1,.39,1.38,1.38,0,0,0,.88-.27,1.21,1.21,0,0,0,.47-.68h2.53a3.29,3.29,0,0,1-.67,1.47,3.64,3.64,0,0,1-1.32,1,4.26,4.26,0,0,1-1.78.37,4.09,4.09,0,0,1-2-.49,3.47,3.47,0,0,1-1.4-1.39,4.41,4.41,0,0,1-.5-2.13,4.35,4.35,0,0,1,.5-2.13,3.38,3.38,0,0,1,1.39-1.39,4.27,4.27,0,0,1,2-.48,4.34,4.34,0,0,1,2.05.47,3.37,3.37,0,0,1,1.36,1.34,3.93,3.93,0,0,1,.49,2A4,4,0,0,1,524.49,208.69Zm-2.77-2.17a1.55,1.55,0,0,0-1.06-.38,1.58,1.58,0,0,0-1.09.39,1.66,1.66,0,0,0-.49,1.15h3A1.44,1.44,0,0,0,521.72,206.52Z"/><path class="cls-8" d="M536.37,204.35v7.81H534v-1.41a2.56,2.56,0,0,1-1,1.09,2.9,2.9,0,0,1-1.54.4,2.73,2.73,0,0,1-2.14-.89,3.59,3.59,0,0,1-.79-2.47v-4.53h2.38v4.24a1.78,1.78,0,0,0,.41,1.24,1.48,1.48,0,0,0,1.12.44,1.46,1.46,0,0,0,1.14-.46,1.9,1.9,0,0,0,.42-1.32v-4.14Z"/><path class="cls-8" d="M545.12,205.16a3.63,3.63,0,0,1,.79,2.46v4.54h-2.4V207.9a1.73,1.73,0,0,0-.41-1.22,1.42,1.42,0,0,0-1.1-.44,1.46,1.46,0,0,0-1.15.46,1.85,1.85,0,0,0-.43,1.31v4.15H538v-7.81h2.4v1.43a2.56,2.56,0,0,1,1-1.11,2.93,2.93,0,0,1,1.56-.41A2.71,2.71,0,0,1,545.12,205.16Z"/><path class="cls-8" d="M552,204.66a2.42,2.42,0,0,1,1,1.1v-1.41h2.38v7.81H553v-1.41a2.48,2.48,0,0,1-1,1.1,2.85,2.85,0,0,1-1.54.41,3.1,3.1,0,0,1-1.73-.49,3.31,3.31,0,0,1-1.21-1.39,4.91,4.91,0,0,1-.44-2.13,4.85,4.85,0,0,1,.44-2.13,3.37,3.37,0,0,1,1.21-1.39,3.17,3.17,0,0,1,1.73-.48A2.85,2.85,0,0,1,552,204.66Zm-2,2.19a2,2,0,0,0-.47,1.4,1.93,1.93,0,0,0,.47,1.4,1.59,1.59,0,0,0,1.24.51,1.62,1.62,0,0,0,1.23-.52,2.22,2.22,0,0,0,0-2.78,1.76,1.76,0,0,0-2.47,0Z"/><path class="cls-8" d="M560,201.25a1.45,1.45,0,0,1,1-.36,1.48,1.48,0,0,1,1,.36,1.22,1.22,0,0,1,0,1.79,1.47,1.47,0,0,1-1,.35,1.45,1.45,0,0,1-1-.35,1.22,1.22,0,0,1,0-1.79Zm2.22,3.1v7.81h-2.39v-7.81Z"/><path class="cls-8" d="M566.22,201.8v10.36h-2.39V201.8Z"/><path class="cls-8" d="M575.64,204.35v7.81h-2.41v-1.41a2.56,2.56,0,0,1-1,1.09,2.9,2.9,0,0,1-1.54.4,2.73,2.73,0,0,1-2.14-.89,3.59,3.59,0,0,1-.79-2.47v-4.53h2.38v4.24a1.78,1.78,0,0,0,.41,1.24,1.48,1.48,0,0,0,1.12.44,1.46,1.46,0,0,0,1.14-.46,1.9,1.9,0,0,0,.42-1.32v-4.14Z"/><path class="cls-8" d="M582.51,205a3.26,3.26,0,0,1,1.11,2h-2.24a1.2,1.2,0,0,0-.44-.75,1.36,1.36,0,0,0-.86-.27,1,1,0,0,0-.62.17.63.63,0,0,0-.21.5.59.59,0,0,0,.39.55,6.26,6.26,0,0,0,1.21.36,10.86,10.86,0,0,1,1.47.43,2.43,2.43,0,0,1,1,.7,2,2,0,0,1,.42,1.32,2,2,0,0,1-.36,1.19,2.29,2.29,0,0,1-1,.81,4,4,0,0,1-1.62.3,4.25,4.25,0,0,1-2.54-.7,3,3,0,0,1-1.16-2h2.31a1.06,1.06,0,0,0,.43.77,1.63,1.63,0,0,0,1,.26.86.86,0,0,0,.61-.19.66.66,0,0,0-.17-1.08,7.86,7.86,0,0,0-1.26-.37,9.57,9.57,0,0,1-1.42-.39,2.35,2.35,0,0,1-1-.68,1.89,1.89,0,0,1-.41-1.28,2.09,2.09,0,0,1,.8-1.7,3.52,3.52,0,0,1,2.26-.65A3.61,3.61,0,0,1,582.51,205Z"/><path class="cls-8" d="M589.49,210.1v2.06h-1.08a3.12,3.12,0,0,1-2.14-.68,2.91,2.91,0,0,1-.76-2.25v-2.87h-1v-2h1v-1.92h2.4v1.92h1.56v2h-1.56v2.92a.91.91,0,0,0,.18.64.92.92,0,0,0,.64.18Z"/><path class="cls-8" d="M594.38,204.68a2.94,2.94,0,0,1,1.53-.42v2.57h-.68a2.37,2.37,0,0,0-1.48.4,1.63,1.63,0,0,0-.53,1.37v3.56h-2.39v-7.81h2.39v1.47A3.42,3.42,0,0,1,594.38,204.68Z"/><path class="cls-8" d="M601.43,204.66a2.37,2.37,0,0,1,1,1.1v-1.41h2.38v7.81h-2.38v-1.41a2.42,2.42,0,0,1-1,1.1,2.83,2.83,0,0,1-1.54.41,3.12,3.12,0,0,1-1.73-.49,3.22,3.22,0,0,1-1.2-1.39,4.77,4.77,0,0,1-.45-2.13,4.71,4.71,0,0,1,.45-2.13,3.28,3.28,0,0,1,1.2-1.39,3.19,3.19,0,0,1,1.73-.48A2.83,2.83,0,0,1,601.43,204.66Zm-2,2.19a2,2,0,0,0-.47,1.4,2,2,0,0,0,.47,1.4,1.61,1.61,0,0,0,1.24.51,1.64,1.64,0,0,0,1.24-.52,2.25,2.25,0,0,0,0-2.78,1.77,1.77,0,0,0-2.48,0Z"/><path class="cls-8" d="M612.47,205.08a3.64,3.64,0,0,1,1.29,2.29h-2.53a1.28,1.28,0,0,0-1.35-1.06,1.26,1.26,0,0,0-1,.49,2.28,2.28,0,0,0-.41,1.45,2.24,2.24,0,0,0,.41,1.45,1.27,1.27,0,0,0,1,.5,1.37,1.37,0,0,0,.89-.28,1.4,1.4,0,0,0,.46-.78h2.53a3.59,3.59,0,0,1-1.29,2.28,3.84,3.84,0,0,1-2.53.84,4.16,4.16,0,0,1-2-.49,3.44,3.44,0,0,1-1.39-1.39,4.3,4.3,0,0,1-.5-2.13,4.35,4.35,0,0,1,.49-2.13,3.41,3.41,0,0,1,1.4-1.39,4.24,4.24,0,0,1,2-.48A3.89,3.89,0,0,1,612.47,205.08Z"/><path class="cls-8" d="M615.18,201.25a1.45,1.45,0,0,1,1-.36,1.48,1.48,0,0,1,1,.36,1.22,1.22,0,0,1,0,1.79,1.47,1.47,0,0,1-1,.35,1.45,1.45,0,0,1-1-.35,1.2,1.2,0,0,1,0-1.79Zm2.22,3.1v7.81H615v-7.81Z"/><path class="cls-8" d="M624.79,204.73a3.53,3.53,0,0,1,1.44,1.4,4.14,4.14,0,0,1,.52,2.12,4.2,4.2,0,0,1-.52,2.13,3.5,3.5,0,0,1-1.44,1.39,4.68,4.68,0,0,1-4.17,0,3.53,3.53,0,0,1-1.45-1.39,4.2,4.2,0,0,1-.52-2.13,4.14,4.14,0,0,1,.52-2.12,3.55,3.55,0,0,1,1.45-1.4,4.77,4.77,0,0,1,4.17,0Zm-3.24,2.09a2.41,2.41,0,0,0,0,2.86,1.54,1.54,0,0,0,1.16.49,1.51,1.51,0,0,0,1.15-.49,2.45,2.45,0,0,0,0-2.86,1.51,1.51,0,0,0-1.15-.5A1.55,1.55,0,0,0,621.55,206.82Zm3.16-4.47-3.37,1.44v-1.63l3.37-1.62Z"/><path class="cls-8" d="M635.09,205.16a3.58,3.58,0,0,1,.79,2.46v4.54h-2.39V207.9a1.73,1.73,0,0,0-.41-1.22,1.43,1.43,0,0,0-1.1-.44,1.5,1.5,0,0,0-1.16.46,1.9,1.9,0,0,0-.43,1.31v4.15H628v-7.81h2.39v1.43a2.58,2.58,0,0,1,1-1.11,2.93,2.93,0,0,1,1.56-.41A2.7,2.7,0,0,1,635.09,205.16Z"/><path class="cls-8" d="M645.48,205a3.26,3.26,0,0,1,1.11,2h-2.24a1.2,1.2,0,0,0-.44-.75,1.34,1.34,0,0,0-.86-.27,1,1,0,0,0-.62.17.63.63,0,0,0-.21.5.59.59,0,0,0,.39.55,6.26,6.26,0,0,0,1.21.36,10.86,10.86,0,0,1,1.47.43,2.43,2.43,0,0,1,1,.7,2,2,0,0,1,.42,1.32,2,2,0,0,1-.36,1.19,2.29,2.29,0,0,1-1.05.81,4,4,0,0,1-1.62.3,4.25,4.25,0,0,1-2.54-.7,3,3,0,0,1-1.16-2h2.31a1.06,1.06,0,0,0,.43.77,1.65,1.65,0,0,0,1,.26.86.86,0,0,0,.61-.19.66.66,0,0,0-.17-1.08,7.86,7.86,0,0,0-1.26-.37,9.93,9.93,0,0,1-1.42-.39,2.35,2.35,0,0,1-1-.68,1.89,1.89,0,0,1-.41-1.28,2.09,2.09,0,0,1,.8-1.7,3.52,3.52,0,0,1,2.26-.65A3.59,3.59,0,0,1,645.48,205Z"/><path class="cls-8" d="M648.2,201.25a1.48,1.48,0,0,1,1-.36,1.45,1.45,0,0,1,1,.36,1.2,1.2,0,0,1,0,1.79,1.45,1.45,0,0,1-1,.35,1.47,1.47,0,0,1-1-.35,1.22,1.22,0,0,1,0-1.79Zm2.23,3.1v7.81H648v-7.81Z"/><path class="cls-8" d="M664.47,205.15a3.51,3.51,0,0,1,.83,2.47v4.54h-2.38V207.9a1.61,1.61,0,0,0-.4-1.15,1.43,1.43,0,0,0-1.09-.41,1.47,1.47,0,0,0-1.13.44,1.74,1.74,0,0,0-.41,1.23v4.15H657.5V207.9a1.6,1.6,0,0,0-.39-1.15,1.41,1.41,0,0,0-1.08-.41,1.51,1.51,0,0,0-1.14.43,1.71,1.71,0,0,0-.42,1.24v4.15h-2.39v-7.81h2.39v1.33a2.33,2.33,0,0,1,.95-1,2.87,2.87,0,0,1,1.49-.38,3,3,0,0,1,1.58.42,2.61,2.61,0,0,1,1,1.18,3.09,3.09,0,0,1,1.11-1.16,2.92,2.92,0,0,1,1.56-.44A3,3,0,0,1,664.47,205.15Z"/><path class="cls-8" d="M674.66,204.35v7.81h-2.41v-1.41a2.56,2.56,0,0,1-1,1.09,2.9,2.9,0,0,1-1.54.4,2.73,2.73,0,0,1-2.14-.89,3.59,3.59,0,0,1-.79-2.47v-4.53h2.38v4.24a1.78,1.78,0,0,0,.41,1.24,1.48,1.48,0,0,0,1.12.44,1.46,1.46,0,0,0,1.14-.46,1.9,1.9,0,0,0,.42-1.32v-4.14Z"/><path class="cls-8" d="M678.71,201.8v10.36h-2.4V201.8Z"/><path class="cls-8" d="M684.87,204.66a2.42,2.42,0,0,1,1,1.1v-1.41h2.38v7.81h-2.38v-1.41a2.48,2.48,0,0,1-1,1.1,2.85,2.85,0,0,1-1.54.41,3.1,3.1,0,0,1-1.73-.49,3.31,3.31,0,0,1-1.21-1.39,4.91,4.91,0,0,1-.44-2.13,4.85,4.85,0,0,1,.44-2.13,3.37,3.37,0,0,1,1.21-1.39,3.17,3.17,0,0,1,1.73-.48A2.85,2.85,0,0,1,684.87,204.66Zm-2,2.19a2,2,0,0,0-.47,1.4,1.93,1.93,0,0,0,.47,1.4,1.59,1.59,0,0,0,1.24.51,1.66,1.66,0,0,0,1.24-.52,2.25,2.25,0,0,0,0-2.78,1.65,1.65,0,0,0-1.24-.51A1.62,1.62,0,0,0,682.86,206.85Z"/><path class="cls-8" d="M696.94,205.16a3.58,3.58,0,0,1,.79,2.46v4.54h-2.39V207.9a1.73,1.73,0,0,0-.41-1.22,1.43,1.43,0,0,0-1.1-.44,1.5,1.5,0,0,0-1.16.46,1.89,1.89,0,0,0-.42,1.31v4.15h-2.4v-7.81h2.4v1.43a2.5,2.5,0,0,1,1-1.11,2.93,2.93,0,0,1,1.56-.41A2.69,2.69,0,0,1,696.94,205.16Z"/><path class="cls-8" d="M703.82,204.66a2.29,2.29,0,0,1,.94,1.1v-4h2.4v10.36h-2.4v-1.41a2.34,2.34,0,0,1-.94,1.1,2.83,2.83,0,0,1-1.54.41,3.12,3.12,0,0,1-1.73-.49,3.29,3.29,0,0,1-1.2-1.39,4.91,4.91,0,0,1-.44-2.13,4.85,4.85,0,0,1,.44-2.13,3.35,3.35,0,0,1,1.2-1.39,3.19,3.19,0,0,1,1.73-.48A2.83,2.83,0,0,1,703.82,204.66Zm-2,2.19a2,2,0,0,0-.46,1.4,2,2,0,0,0,.46,1.4,1.75,1.75,0,0,0,2.48,0,2.22,2.22,0,0,0,0-2.78,1.62,1.62,0,0,0-1.24-.51A1.65,1.65,0,0,0,701.81,206.85Z"/><path class="cls-8" d="M714.54,204.73a3.53,3.53,0,0,1,1.44,1.4,4.14,4.14,0,0,1,.53,2.12,4.21,4.21,0,0,1-.53,2.13,3.5,3.5,0,0,1-1.44,1.39,4.29,4.29,0,0,1-2.08.49,4.38,4.38,0,0,1-2.09-.49,3.5,3.5,0,0,1-1.44-1.39,4.21,4.21,0,0,1-.53-2.13,4.14,4.14,0,0,1,.53-2.12,3.53,3.53,0,0,1,1.44-1.4,4.5,4.5,0,0,1,2.09-.48A4.4,4.4,0,0,1,714.54,204.73Zm-3.23,2.09a2.41,2.41,0,0,0,0,2.86,1.59,1.59,0,0,0,2.3,0,2.45,2.45,0,0,0,0-2.86,1.57,1.57,0,0,0-2.3,0Z"/><path class="cls-8" d="M728.32,204.35v7.81h-2.4v-1.41a2.65,2.65,0,0,1-1,1.09,2.87,2.87,0,0,1-1.54.4,2.73,2.73,0,0,1-2.14-.89,3.64,3.64,0,0,1-.79-2.47v-4.53h2.38v4.24a1.78,1.78,0,0,0,.41,1.24,1.66,1.66,0,0,0,2.27,0,1.9,1.9,0,0,0,.42-1.32v-4.14Z"/><path class="cls-8" d="M737.07,205.16a3.63,3.63,0,0,1,.79,2.46v4.54h-2.4V207.9a1.69,1.69,0,0,0-.41-1.22,1.4,1.4,0,0,0-1.1-.44,1.48,1.48,0,0,0-1.15.46,1.85,1.85,0,0,0-.43,1.31v4.15H730v-7.81h2.39v1.43a2.56,2.56,0,0,1,1-1.11,2.93,2.93,0,0,1,1.56-.41A2.71,2.71,0,0,1,737.07,205.16Z"/><path class="cls-8" d="M744,204.66a2.42,2.42,0,0,1,.95,1.1v-1.41h2.38v7.81H744.9v-1.41a2.48,2.48,0,0,1-.95,1.1,2.85,2.85,0,0,1-1.54.41,3.1,3.1,0,0,1-1.73-.49,3.31,3.31,0,0,1-1.21-1.39,4.91,4.91,0,0,1-.44-2.13,4.85,4.85,0,0,1,.44-2.13,3.37,3.37,0,0,1,1.21-1.39,3.17,3.17,0,0,1,1.73-.48A2.85,2.85,0,0,1,744,204.66Zm-2,2.19a2,2,0,0,0-.47,1.4,1.93,1.93,0,0,0,.47,1.4,1.59,1.59,0,0,0,1.24.51,1.66,1.66,0,0,0,1.24-.52,2.25,2.25,0,0,0,0-2.78,1.65,1.65,0,0,0-1.24-.51A1.62,1.62,0,0,0,741.94,206.85Z"/><path class="cls-8" d="M758.82,205.16a3.58,3.58,0,0,1,.79,2.46v4.54h-2.39V207.9a1.73,1.73,0,0,0-.41-1.22,1.43,1.43,0,0,0-1.1-.44,1.5,1.5,0,0,0-1.16.46,1.9,1.9,0,0,0-.43,1.31v4.15h-2.39v-7.81h2.39v1.43a2.58,2.58,0,0,1,1-1.11,2.93,2.93,0,0,1,1.56-.41A2.7,2.7,0,0,1,758.82,205.16Z"/><path class="cls-8" d="M769,204.35v7.81h-2.4v-1.41a2.69,2.69,0,0,1-1,1.09,2.93,2.93,0,0,1-1.55.4,2.73,2.73,0,0,1-2.14-.89,3.64,3.64,0,0,1-.79-2.47v-4.53h2.38v4.24a1.74,1.74,0,0,0,.42,1.24,1.45,1.45,0,0,0,1.11.44,1.48,1.48,0,0,0,1.15-.46,1.9,1.9,0,0,0,.42-1.32v-4.14Z"/><path class="cls-8" d="M778,208.69h-5.42A1.79,1.79,0,0,0,773,210a1.58,1.58,0,0,0,1.92.12,1.24,1.24,0,0,0,.46-.68h2.53a3.29,3.29,0,0,1-.67,1.47,3.55,3.55,0,0,1-1.32,1,4.26,4.26,0,0,1-1.78.37,4.09,4.09,0,0,1-2-.49,3.47,3.47,0,0,1-1.4-1.39,4.41,4.41,0,0,1-.5-2.13,4.35,4.35,0,0,1,.5-2.13,3.38,3.38,0,0,1,1.39-1.39,4.27,4.27,0,0,1,2-.48,4.34,4.34,0,0,1,2.05.47,3.37,3.37,0,0,1,1.36,1.34,3.93,3.93,0,0,1,.49,2A4,4,0,0,1,778,208.69Zm-2.77-2.17a1.53,1.53,0,0,0-1.06-.38,1.58,1.58,0,0,0-1.09.39,1.66,1.66,0,0,0-.49,1.15h3.06A1.48,1.48,0,0,0,775.2,206.52Z"/><path class="cls-8" d="M782.9,209.82l1.69-5.47h2.55l-2.77,7.81h-3l-2.78-7.81h2.55Z"/><path class="cls-8" d="M792.64,204.66a2.37,2.37,0,0,1,1,1.1v-1.41H796v7.81h-2.38v-1.41a2.42,2.42,0,0,1-1,1.1,2.83,2.83,0,0,1-1.54.41,3.12,3.12,0,0,1-1.73-.49,3.22,3.22,0,0,1-1.2-1.39,4.77,4.77,0,0,1-.45-2.13,4.71,4.71,0,0,1,.45-2.13,3.28,3.28,0,0,1,1.2-1.39,3.19,3.19,0,0,1,1.73-.48A2.83,2.83,0,0,1,792.64,204.66Zm-2,2.19a2,2,0,0,0-.47,1.4,2,2,0,0,0,.47,1.4,1.61,1.61,0,0,0,1.24.51,1.64,1.64,0,0,0,1.24-.52,2.25,2.25,0,0,0,0-2.78,1.77,1.77,0,0,0-2.48,0Z"/><path class="cls-8" d="M376.31,221.88a3.68,3.68,0,0,1,1.29,2.29h-2.53a1.28,1.28,0,0,0-1.35-1.06,1.26,1.26,0,0,0-1,.49,2.28,2.28,0,0,0-.41,1.45,2.24,2.24,0,0,0,.41,1.45,1.27,1.27,0,0,0,1,.5,1.37,1.37,0,0,0,.89-.28,1.39,1.39,0,0,0,.46-.79h2.53a3.63,3.63,0,0,1-1.29,2.29,3.84,3.84,0,0,1-2.53.84,4.13,4.13,0,0,1-2-.49,3.44,3.44,0,0,1-1.39-1.39,4.3,4.3,0,0,1-.5-2.13,4.35,4.35,0,0,1,.49-2.13,3.41,3.41,0,0,1,1.4-1.39,4.21,4.21,0,0,1,2-.48A3.89,3.89,0,0,1,376.31,221.88Z"/><path class="cls-8" d="M384.58,221.53a3.53,3.53,0,0,1,1.44,1.4,4.14,4.14,0,0,1,.53,2.12,4.21,4.21,0,0,1-.53,2.13,3.5,3.5,0,0,1-1.44,1.39,4.66,4.66,0,0,1-4.16,0,3.47,3.47,0,0,1-1.45-1.39,4.21,4.21,0,0,1-.53-2.13,4.14,4.14,0,0,1,.53-2.12,3.49,3.49,0,0,1,1.45-1.4,4.75,4.75,0,0,1,4.16,0Zm-3.23,2.09a2.41,2.41,0,0,0,0,2.86,1.59,1.59,0,0,0,2.3,0,2.45,2.45,0,0,0,0-2.86,1.57,1.57,0,0,0-2.3,0Z"/><path class="cls-8" d="M394.88,222a3.59,3.59,0,0,1,.8,2.46V229h-2.4V224.7a1.73,1.73,0,0,0-.41-1.22,1.42,1.42,0,0,0-1.1-.44,1.5,1.5,0,0,0-1.16.46,1.89,1.89,0,0,0-.42,1.31V229h-2.4v-7.81h2.4v1.43a2.56,2.56,0,0,1,1-1.11,2.93,2.93,0,0,1,1.56-.41A2.67,2.67,0,0,1,394.88,222Z"/><path class="cls-8" d="M402.47,221.79a3.22,3.22,0,0,1,1.12,2h-2.24a1.26,1.26,0,0,0-.45-.75,1.32,1.32,0,0,0-.86-.27,1,1,0,0,0-.61.17.63.63,0,0,0-.21.5.59.59,0,0,0,.38.55,6.26,6.26,0,0,0,1.21.36,10.86,10.86,0,0,1,1.47.43,2.4,2.4,0,0,1,1,.7,2.19,2.19,0,0,1,.05,2.51,2.29,2.29,0,0,1-1.05.81,4,4,0,0,1-1.62.3,4.19,4.19,0,0,1-2.53-.7,3,3,0,0,1-1.17-2h2.31a1.06,1.06,0,0,0,.43.78,1.67,1.67,0,0,0,1,.26.89.89,0,0,0,.62-.19.62.62,0,0,0,.21-.49.6.6,0,0,0-.39-.59,7.67,7.67,0,0,0-1.25-.37,9.74,9.74,0,0,1-1.43-.39,2.42,2.42,0,0,1-1-.68,1.89,1.89,0,0,1-.4-1.28,2.06,2.06,0,0,1,.8-1.7,3.49,3.49,0,0,1,2.25-.65A3.59,3.59,0,0,1,402.47,221.79Z"/><path class="cls-8" d="M409.45,226.9V229h-1.08a3.11,3.11,0,0,1-2.13-.68,2.87,2.87,0,0,1-.76-2.25v-2.87h-1.05v-2h1.05v-1.92h2.39v1.92h1.57v2h-1.57v2.92a.86.86,0,0,0,.19.64.91.91,0,0,0,.64.18Z"/><path class="cls-8" d="M411,218.05a1.68,1.68,0,0,1,2.08,0,1.22,1.22,0,0,1,0,1.79,1.72,1.72,0,0,1-2.08,0,1.22,1.22,0,0,1,0-1.79Zm2.23,3.1V229H410.8v-7.81Z"/><path class="cls-8" d="M419.27,226.9V229h-1.08a3.12,3.12,0,0,1-2.14-.68,2.87,2.87,0,0,1-.76-2.25v-2.87h-1.05v-2h1.05v-1.92h2.39v1.92h1.57v2h-1.57v2.92a.9.9,0,0,0,.19.64.92.92,0,0,0,.64.18Z"/><path class="cls-8" d="M428.38,221.15V229H426v-1.41a2.62,2.62,0,0,1-1,1.09,2.91,2.91,0,0,1-1.55.4,2.73,2.73,0,0,1-2.13-.89,3.59,3.59,0,0,1-.79-2.47v-4.53h2.38v4.24a1.74,1.74,0,0,0,.41,1.24,1.64,1.64,0,0,0,2.26,0,1.9,1.9,0,0,0,.42-1.32v-4.14Z"/><path class="cls-8" d="M436.09,221.88a3.73,3.73,0,0,1,1.29,2.29h-2.53a1.28,1.28,0,0,0-1.35-1.06,1.26,1.26,0,0,0-1,.49,2.28,2.28,0,0,0-.41,1.45,2.24,2.24,0,0,0,.41,1.45,1.27,1.27,0,0,0,1,.5,1.37,1.37,0,0,0,.89-.28,1.39,1.39,0,0,0,.46-.79h2.53a3.68,3.68,0,0,1-1.29,2.29,3.84,3.84,0,0,1-2.53.84,4.11,4.11,0,0,1-2-.49,3.38,3.38,0,0,1-1.39-1.39,4.3,4.3,0,0,1-.51-2.13,4.35,4.35,0,0,1,.5-2.13,3.41,3.41,0,0,1,1.4-1.39,4.21,4.21,0,0,1,2-.48A3.89,3.89,0,0,1,436.09,221.88Z"/><path class="cls-8" d="M438.8,218.05a1.45,1.45,0,0,1,1-.36,1.48,1.48,0,0,1,1,.36,1.22,1.22,0,0,1,0,1.79,1.47,1.47,0,0,1-1,.35,1.45,1.45,0,0,1-1-.35,1.2,1.2,0,0,1,0-1.79Zm2.22,3.1V229h-2.39v-7.81Z"/><path class="cls-8" d="M448.41,221.53a3.53,3.53,0,0,1,1.44,1.4,4.14,4.14,0,0,1,.52,2.12,4.2,4.2,0,0,1-.52,2.13,3.5,3.5,0,0,1-1.44,1.39,4.68,4.68,0,0,1-4.17,0,3.47,3.47,0,0,1-1.45-1.39,4.2,4.2,0,0,1-.52-2.13,4.14,4.14,0,0,1,.52-2.12,3.49,3.49,0,0,1,1.45-1.4,4.77,4.77,0,0,1,4.17,0Zm-3.24,2.09a2.41,2.41,0,0,0,0,2.86,1.61,1.61,0,0,0,2.31,0,2.45,2.45,0,0,0,0-2.86,1.58,1.58,0,0,0-2.31,0Zm3.16-4.48L445,220.59V219l3.37-1.62Z"/><path class="cls-8" d="M458.71,222a3.58,3.58,0,0,1,.79,2.46V229h-2.39V224.7a1.69,1.69,0,0,0-.42-1.22,1.4,1.4,0,0,0-1.1-.44,1.48,1.48,0,0,0-1.15.46,1.9,1.9,0,0,0-.43,1.31V229h-2.39v-7.81H454v1.43a2.62,2.62,0,0,1,1-1.11,3,3,0,0,1,1.57-.41A2.7,2.7,0,0,1,458.71,222Z"/><path class="cls-8" d="M463,229.24a2.47,2.47,0,0,1-.51,1.6,1.93,1.93,0,0,1-1.59.63v-.89a.81.81,0,0,0,.56-.16,1,1,0,0,0,.17-.65v-.14h-1v-2.16h2A3.82,3.82,0,0,1,463,229.24Z"/><path class="cls-8" d="M479.59,222a3.51,3.51,0,0,1,.83,2.47V229H478V224.7a1.61,1.61,0,0,0-.4-1.15,1.65,1.65,0,0,0-2.21,0,1.7,1.7,0,0,0-.42,1.23V229h-2.39V224.7a1.6,1.6,0,0,0-.39-1.15,1.4,1.4,0,0,0-1.08-.41,1.51,1.51,0,0,0-1.14.43,1.71,1.71,0,0,0-.42,1.24V229H467.2v-7.81h2.39v1.33a2.33,2.33,0,0,1,1-1,2.87,2.87,0,0,1,1.49-.38,2.94,2.94,0,0,1,1.58.42,2.55,2.55,0,0,1,1,1.18,3.09,3.09,0,0,1,1.11-1.16,2.92,2.92,0,0,1,1.56-.44A3,3,0,0,1,479.59,222Z"/><path class="cls-8" d="M487.75,221.53a3.53,3.53,0,0,1,1.44,1.4,4.14,4.14,0,0,1,.52,2.12,4.2,4.2,0,0,1-.52,2.13,3.5,3.5,0,0,1-1.44,1.39,4.68,4.68,0,0,1-4.17,0,3.47,3.47,0,0,1-1.45-1.39,4.2,4.2,0,0,1-.52-2.13,4.14,4.14,0,0,1,.52-2.12,3.49,3.49,0,0,1,1.45-1.4,4.77,4.77,0,0,1,4.17,0Zm-3.24,2.09a2.41,2.41,0,0,0,0,2.86,1.53,1.53,0,0,0,1.16.49,1.48,1.48,0,0,0,1.14-.49,2.41,2.41,0,0,0,0-2.86,1.49,1.49,0,0,0-1.14-.5A1.54,1.54,0,0,0,484.51,223.62Z"/><path class="cls-8" d="M496.17,221.79a3.22,3.22,0,0,1,1.12,2h-2.24a1.29,1.29,0,0,0-.44-.75,1.36,1.36,0,0,0-.86-.27,1,1,0,0,0-.62.17.63.63,0,0,0-.21.5.59.59,0,0,0,.38.55,6.26,6.26,0,0,0,1.21.36,10.86,10.86,0,0,1,1.47.43,2.4,2.4,0,0,1,1,.7,2,2,0,0,1,.42,1.32A2,2,0,0,1,497,228a2.37,2.37,0,0,1-1.06.81,4,4,0,0,1-1.62.3,4.21,4.21,0,0,1-2.53-.7,2.92,2.92,0,0,1-1.16-2H493a1.06,1.06,0,0,0,.43.78,1.67,1.67,0,0,0,1,.26.89.89,0,0,0,.62-.19.62.62,0,0,0,.21-.49.6.6,0,0,0-.39-.59,7.67,7.67,0,0,0-1.25-.37,9.74,9.74,0,0,1-1.43-.39,2.38,2.38,0,0,1-1-.68,1.84,1.84,0,0,1-.41-1.28,2.06,2.06,0,0,1,.8-1.7,3.49,3.49,0,0,1,2.25-.65A3.59,3.59,0,0,1,496.17,221.79Z"/><path class="cls-8" d="M503.15,226.9V229h-1.08a3.11,3.11,0,0,1-2.13-.68,2.87,2.87,0,0,1-.76-2.25v-2.87h-1.05v-2h1.05v-1.92h2.39v1.92h1.57v2h-1.57v2.92a.86.86,0,0,0,.19.64.92.92,0,0,0,.64.18Z"/><path class="cls-8" d="M508,221.48a3,3,0,0,1,1.54-.42v2.57h-.69a2.34,2.34,0,0,0-1.47.4,1.6,1.6,0,0,0-.53,1.37V229H504.5v-7.81h2.39v1.47A3.39,3.39,0,0,1,508,221.48Z"/><path class="cls-8" d="M515.09,221.46a2.45,2.45,0,0,1,1,1.1v-1.41h2.38V229h-2.38v-1.41a2.5,2.5,0,0,1-1,1.1,2.83,2.83,0,0,1-1.54.41,3.06,3.06,0,0,1-1.72-.49,3.31,3.31,0,0,1-1.21-1.39,4.91,4.91,0,0,1-.44-2.13,4.85,4.85,0,0,1,.44-2.13,3.37,3.37,0,0,1,1.21-1.39,3.14,3.14,0,0,1,1.72-.48A2.75,2.75,0,0,1,515.09,221.46Zm-2,2.19a2,2,0,0,0-.46,1.4,2,2,0,0,0,.46,1.4,1.75,1.75,0,0,0,2.48,0,2.22,2.22,0,0,0,0-2.78,1.62,1.62,0,0,0-1.24-.51A1.65,1.65,0,0,0,513.08,223.65Z"/><path class="cls-8" d="M527.17,222a3.58,3.58,0,0,1,.79,2.46V229h-2.39V224.7a1.69,1.69,0,0,0-.42-1.22,1.4,1.4,0,0,0-1.1-.44,1.48,1.48,0,0,0-1.15.46,1.85,1.85,0,0,0-.43,1.31V229h-2.39v-7.81h2.39v1.43a2.62,2.62,0,0,1,1-1.11,3,3,0,0,1,1.56-.41A2.71,2.71,0,0,1,527.17,222Z"/><path class="cls-8" d="M534.05,221.46a2.35,2.35,0,0,1,.94,1.1v-4h2.39V229H535v-1.41a2.4,2.4,0,0,1-.94,1.1,2.83,2.83,0,0,1-1.54.41,3.12,3.12,0,0,1-1.73-.49,3.22,3.22,0,0,1-1.2-1.39,4.77,4.77,0,0,1-.44-2.13,4.71,4.71,0,0,1,.44-2.13,3.28,3.28,0,0,1,1.2-1.39,3.19,3.19,0,0,1,1.73-.48A2.75,2.75,0,0,1,534.05,221.46Zm-2,2.19a2,2,0,0,0-.47,1.4,2,2,0,0,0,.47,1.4,1.61,1.61,0,0,0,1.24.51,1.64,1.64,0,0,0,1.24-.52,2.25,2.25,0,0,0,0-2.78,1.77,1.77,0,0,0-2.48,0Z"/><path class="cls-8" d="M544.77,221.53a3.53,3.53,0,0,1,1.44,1.4,4.14,4.14,0,0,1,.52,2.12,4.2,4.2,0,0,1-.52,2.13,3.5,3.5,0,0,1-1.44,1.39,4.68,4.68,0,0,1-4.17,0,3.53,3.53,0,0,1-1.45-1.39,4.2,4.2,0,0,1-.52-2.13,4.14,4.14,0,0,1,.52-2.12,3.55,3.55,0,0,1,1.45-1.4,4.77,4.77,0,0,1,4.17,0Zm-3.24,2.09a2.41,2.41,0,0,0,0,2.86,1.54,1.54,0,0,0,1.16.49,1.51,1.51,0,0,0,1.15-.49,2.45,2.45,0,0,0,0-2.86,1.51,1.51,0,0,0-1.15-.5A1.55,1.55,0,0,0,541.53,223.62Z"/><path class="cls-8" d="M553.17,218.6V229h-2.39V218.6Z"/><path class="cls-8" d="M559.33,221.46a2.45,2.45,0,0,1,1,1.1v-1.41h2.38V229h-2.38v-1.41a2.5,2.5,0,0,1-1,1.1,2.83,2.83,0,0,1-1.54.41,3.06,3.06,0,0,1-1.72-.49,3.31,3.31,0,0,1-1.21-1.39,4.91,4.91,0,0,1-.44-2.13,4.85,4.85,0,0,1,.44-2.13,3.37,3.37,0,0,1,1.21-1.39,3.14,3.14,0,0,1,1.72-.48A2.75,2.75,0,0,1,559.33,221.46Zm-2,2.19a2,2,0,0,0-.47,1.4,1.93,1.93,0,0,0,.47,1.4,1.58,1.58,0,0,0,1.23.51,1.63,1.63,0,0,0,1.24-.52,2.22,2.22,0,0,0,0-2.78,1.76,1.76,0,0,0-2.47,0Z"/><path class="cls-8" d="M569.53,221.79a3.22,3.22,0,0,1,1.12,2h-2.24A1.26,1.26,0,0,0,568,223a1.32,1.32,0,0,0-.86-.27,1,1,0,0,0-.61.17.63.63,0,0,0-.21.5.59.59,0,0,0,.38.55,6.26,6.26,0,0,0,1.21.36,10.86,10.86,0,0,1,1.47.43,2.4,2.4,0,0,1,1,.7,2.19,2.19,0,0,1,0,2.51,2.29,2.29,0,0,1-1,.81,4,4,0,0,1-1.62.3,4.21,4.21,0,0,1-2.53-.7,3,3,0,0,1-1.17-2h2.31a1.06,1.06,0,0,0,.43.78,1.67,1.67,0,0,0,1,.26.89.89,0,0,0,.62-.19.62.62,0,0,0,.21-.49.6.6,0,0,0-.39-.59,7.67,7.67,0,0,0-1.25-.37,9.74,9.74,0,0,1-1.43-.39,2.49,2.49,0,0,1-1-.68,1.89,1.89,0,0,1-.4-1.28,2.06,2.06,0,0,1,.8-1.7,3.49,3.49,0,0,1,2.25-.65A3.59,3.59,0,0,1,569.53,221.79Z"/><path class="cls-8" d="M581.49,221.53a3.28,3.28,0,0,1,1.2,1.39,4.71,4.71,0,0,1,.44,2.13,4.77,4.77,0,0,1-.44,2.13,3.22,3.22,0,0,1-1.2,1.39,3.12,3.12,0,0,1-1.73.49,2.83,2.83,0,0,1-1.54-.41,2.4,2.4,0,0,1-.94-1.1v5.13h-2.39V221.15h2.39v1.41a2.35,2.35,0,0,1,.94-1.1,2.75,2.75,0,0,1,1.54-.41A3.19,3.19,0,0,1,581.49,221.53Zm-3.74,2.13a2.25,2.25,0,0,0,0,2.78A1.64,1.64,0,0,0,579,227a1.61,1.61,0,0,0,1.24-.51,2,2,0,0,0,.47-1.4,2,2,0,0,0-.47-1.4,1.77,1.77,0,0,0-2.48,0Z"/><path class="cls-8" d="M587.93,221.48a2.94,2.94,0,0,1,1.53-.42v2.57h-.68a2.37,2.37,0,0,0-1.48.4,1.63,1.63,0,0,0-.53,1.37V229h-2.39v-7.81h2.39v1.47A3.42,3.42,0,0,1,587.93,221.48Z"/><path class="cls-8" d="M596.2,221.53a3.53,3.53,0,0,1,1.44,1.4,4.14,4.14,0,0,1,.53,2.12,4.21,4.21,0,0,1-.53,2.13,3.5,3.5,0,0,1-1.44,1.39,4.66,4.66,0,0,1-4.16,0,3.47,3.47,0,0,1-1.45-1.39,4.21,4.21,0,0,1-.53-2.13,4.14,4.14,0,0,1,.53-2.12,3.49,3.49,0,0,1,1.45-1.4,4.75,4.75,0,0,1,4.16,0ZM593,223.62a2.41,2.41,0,0,0,0,2.86,1.59,1.59,0,0,0,2.3,0,2.45,2.45,0,0,0,0-2.86,1.51,1.51,0,0,0-1.15-.5A1.53,1.53,0,0,0,593,223.62Z"/><path class="cls-8" d="M606,221.53a3.28,3.28,0,0,1,1.2,1.39,4.85,4.85,0,0,1,.44,2.13,4.91,4.91,0,0,1-.44,2.13,3.22,3.22,0,0,1-1.2,1.39,3.12,3.12,0,0,1-1.73.49,2.83,2.83,0,0,1-1.54-.41,2.4,2.4,0,0,1-.94-1.1v5.13h-2.39V221.15h2.39v1.41a2.35,2.35,0,0,1,.94-1.1,2.75,2.75,0,0,1,1.54-.41A3.19,3.19,0,0,1,606,221.53Zm-3.74,2.13a2.25,2.25,0,0,0,0,2.78,1.75,1.75,0,0,0,2.48,0,2,2,0,0,0,.47-1.4,2,2,0,0,0-.47-1.4,1.65,1.65,0,0,0-1.24-.5A1.62,1.62,0,0,0,602.28,223.66Z"/><path class="cls-8" d="M616.68,221.15V229h-2.41v-1.41a2.62,2.62,0,0,1-1,1.09,2.91,2.91,0,0,1-1.55.4,2.71,2.71,0,0,1-2.13-.89,3.59,3.59,0,0,1-.79-2.47v-4.53h2.38v4.24a1.74,1.74,0,0,0,.41,1.24,1.64,1.64,0,0,0,2.26,0,1.9,1.9,0,0,0,.42-1.32v-4.14Z"/><path class="cls-8" d="M625.68,225.49h-5.42a1.79,1.79,0,0,0,.45,1.26,1.44,1.44,0,0,0,1,.39,1.42,1.42,0,0,0,.88-.27,1.24,1.24,0,0,0,.46-.68h2.53a3.19,3.19,0,0,1-.67,1.47,3.52,3.52,0,0,1-1.31,1,4.33,4.33,0,0,1-1.78.37,4.11,4.11,0,0,1-2-.49,3.38,3.38,0,0,1-1.39-1.39,4.3,4.3,0,0,1-.51-2.13,4.35,4.35,0,0,1,.5-2.13,3.44,3.44,0,0,1,1.39-1.39,4.28,4.28,0,0,1,2.05-.48,4.32,4.32,0,0,1,2,.47,3.4,3.4,0,0,1,1.37,1.34,4,4,0,0,1,.48,2A3.14,3.14,0,0,1,625.68,225.49Zm-2.76-2.17a1.57,1.57,0,0,0-1.06-.38,1.55,1.55,0,0,0-1.09.39,1.6,1.6,0,0,0-.49,1.15h3.05A1.47,1.47,0,0,0,622.92,223.32Z"/><path class="cls-8" d="M632.21,221.79a3.26,3.26,0,0,1,1.11,2h-2.24a1.2,1.2,0,0,0-.44-.75,1.34,1.34,0,0,0-.86-.27,1,1,0,0,0-.61.17.63.63,0,0,0-.21.5.58.58,0,0,0,.38.55,6.26,6.26,0,0,0,1.21.36,10.86,10.86,0,0,1,1.47.43,2.46,2.46,0,0,1,1,.7,2,2,0,0,1,.42,1.32,2,2,0,0,1-.37,1.19,2.29,2.29,0,0,1-1.05.81,4,4,0,0,1-1.62.3,4.25,4.25,0,0,1-2.54-.7,3,3,0,0,1-1.16-2H629a1.06,1.06,0,0,0,.43.78,1.67,1.67,0,0,0,1,.26.86.86,0,0,0,.61-.19.62.62,0,0,0,.21-.49.6.6,0,0,0-.38-.59,8,8,0,0,0-1.25-.37,9.74,9.74,0,0,1-1.43-.39,2.35,2.35,0,0,1-1-.68,1.89,1.89,0,0,1-.4-1.28,2.08,2.08,0,0,1,.79-1.7,3.54,3.54,0,0,1,2.26-.65A3.59,3.59,0,0,1,632.21,221.79Z"/><path class="cls-8" d="M639.19,226.9V229h-1.08a3.11,3.11,0,0,1-2.13-.68,2.87,2.87,0,0,1-.77-2.25v-2.87h-1.05v-2h1.05v-1.92h2.4v1.92h1.57v2h-1.57v2.92a.86.86,0,0,0,.19.64.88.88,0,0,0,.63.18Z"/><path class="cls-8" d="M645,221.46a2.37,2.37,0,0,1,1,1.1v-1.41h2.38V229H646v-1.41a2.42,2.42,0,0,1-1,1.1,2.83,2.83,0,0,1-1.54.41,3.12,3.12,0,0,1-1.73-.49,3.22,3.22,0,0,1-1.2-1.39,4.77,4.77,0,0,1-.44-2.13,4.71,4.71,0,0,1,.44-2.13,3.28,3.28,0,0,1,1.2-1.39,3.19,3.19,0,0,1,1.73-.48A2.75,2.75,0,0,1,645,221.46Zm-2,2.19a2,2,0,0,0-.47,1.4,2,2,0,0,0,.47,1.4,1.61,1.61,0,0,0,1.24.51,1.63,1.63,0,0,0,1.24-.52,2.25,2.25,0,0,0,0-2.78,1.77,1.77,0,0,0-2.48,0Z"/><path class="cls-8" d="M655.24,221.79a3.26,3.26,0,0,1,1.11,2h-2.24a1.2,1.2,0,0,0-.44-.75,1.34,1.34,0,0,0-.86-.27.94.94,0,0,0-.61.17.63.63,0,0,0-.21.5.58.58,0,0,0,.38.55,6.26,6.26,0,0,0,1.21.36,10.86,10.86,0,0,1,1.47.43,2.37,2.37,0,0,1,1,.7,1.92,1.92,0,0,1,.42,1.32,2,2,0,0,1-.36,1.19,2.29,2.29,0,0,1-1.05.81,4,4,0,0,1-1.62.3,4.25,4.25,0,0,1-2.54-.7,3,3,0,0,1-1.16-2H652a1.06,1.06,0,0,0,.43.78,1.67,1.67,0,0,0,1,.26.86.86,0,0,0,.61-.19.62.62,0,0,0,.21-.49.61.61,0,0,0-.38-.59,8,8,0,0,0-1.25-.37,9.74,9.74,0,0,1-1.43-.39,2.35,2.35,0,0,1-1-.68,1.89,1.89,0,0,1-.4-1.28,2.08,2.08,0,0,1,.79-1.7,3.54,3.54,0,0,1,2.26-.65A3.59,3.59,0,0,1,655.24,221.79Z"/><path class="cls-8" d="M665.1,221.46a2.37,2.37,0,0,1,.95,1.1v-1.41h2.38V229h-2.38v-1.41a2.42,2.42,0,0,1-.95,1.1,2.83,2.83,0,0,1-1.54.41,3.12,3.12,0,0,1-1.73-.49,3.29,3.29,0,0,1-1.2-1.39,4.91,4.91,0,0,1-.44-2.13,4.85,4.85,0,0,1,.44-2.13,3.35,3.35,0,0,1,1.2-1.39,3.19,3.19,0,0,1,1.73-.48A2.75,2.75,0,0,1,665.1,221.46Zm-2,2.19a2,2,0,0,0-.47,1.4,2,2,0,0,0,.47,1.4,1.75,1.75,0,0,0,2.48,0,2.25,2.25,0,0,0,0-2.78,1.62,1.62,0,0,0-1.24-.51A1.65,1.65,0,0,0,663.09,223.65Z"/><path class="cls-8" d="M676.15,221.88a3.73,3.73,0,0,1,1.29,2.29H674.9a1.32,1.32,0,0,0-.46-.78,1.35,1.35,0,0,0-.88-.28,1.28,1.28,0,0,0-1,.49,2.28,2.28,0,0,0-.4,1.45,2.24,2.24,0,0,0,.4,1.45,1.29,1.29,0,0,0,1,.5,1.28,1.28,0,0,0,1.34-1.07h2.54a3.68,3.68,0,0,1-1.29,2.29,3.87,3.87,0,0,1-2.54.84,4.09,4.09,0,0,1-2-.49,3.47,3.47,0,0,1-1.4-1.39,4.41,4.41,0,0,1-.5-2.13,4.35,4.35,0,0,1,.5-2.13,3.38,3.38,0,0,1,1.39-1.39,4.27,4.27,0,0,1,2-.48A3.92,3.92,0,0,1,676.15,221.88Z"/><path class="cls-8" d="M683.11,226.9V229H682a3.12,3.12,0,0,1-2.14-.68,2.87,2.87,0,0,1-.76-2.25v-2.87h-1v-2h1v-1.92h2.39v1.92h1.57v2h-1.57v2.92a.9.9,0,0,0,.19.64.92.92,0,0,0,.64.18Z"/><path class="cls-8" d="M692.22,221.15V229h-2.41v-1.41a2.62,2.62,0,0,1-1,1.09,2.91,2.91,0,0,1-1.55.4,2.73,2.73,0,0,1-2.13-.89,3.59,3.59,0,0,1-.79-2.47v-4.53h2.38v4.24a1.78,1.78,0,0,0,.41,1.24,1.64,1.64,0,0,0,2.26,0,1.9,1.9,0,0,0,.42-1.32v-4.14Z"/><path class="cls-8" d="M698.38,221.46a2.37,2.37,0,0,1,1,1.1v-1.41h2.38V229h-2.38v-1.41a2.42,2.42,0,0,1-1,1.1,2.83,2.83,0,0,1-1.54.41,3.12,3.12,0,0,1-1.73-.49,3.22,3.22,0,0,1-1.2-1.39,4.77,4.77,0,0,1-.44-2.13,4.71,4.71,0,0,1,.44-2.13,3.28,3.28,0,0,1,1.2-1.39,3.19,3.19,0,0,1,1.73-.48A2.75,2.75,0,0,1,698.38,221.46Zm-2,2.19a2,2,0,0,0-.47,1.4,2,2,0,0,0,.47,1.4,1.61,1.61,0,0,0,1.24.51,1.64,1.64,0,0,0,1.24-.52,2.25,2.25,0,0,0,0-2.78,1.77,1.77,0,0,0-2.48,0Z"/><path class="cls-8" d="M705.76,218.6V229h-2.4V218.6Z"/><path class="cls-8" d="M714.76,225.49h-5.42a1.79,1.79,0,0,0,.45,1.26,1.44,1.44,0,0,0,1,.39,1.42,1.42,0,0,0,.88-.27,1.24,1.24,0,0,0,.46-.68h2.53a3.19,3.19,0,0,1-.67,1.47,3.52,3.52,0,0,1-1.31,1,4.33,4.33,0,0,1-1.78.37,4.11,4.11,0,0,1-2-.49,3.38,3.38,0,0,1-1.39-1.39,4.3,4.3,0,0,1-.51-2.13,4.35,4.35,0,0,1,.5-2.13,3.44,3.44,0,0,1,1.39-1.39,4.28,4.28,0,0,1,2.05-.48,4.32,4.32,0,0,1,2,.47,3.4,3.4,0,0,1,1.37,1.34,4,4,0,0,1,.48,2A3.14,3.14,0,0,1,714.76,225.49ZM712,223.32a1.57,1.57,0,0,0-1.06-.38,1.55,1.55,0,0,0-1.09.39,1.6,1.6,0,0,0-.49,1.15h3A1.47,1.47,0,0,0,712,223.32Z"/><path class="cls-8" d="M721.29,221.79a3.26,3.26,0,0,1,1.11,2h-2.24a1.2,1.2,0,0,0-.44-.75,1.34,1.34,0,0,0-.86-.27,1,1,0,0,0-.61.17.63.63,0,0,0-.21.5.58.58,0,0,0,.38.55,6.26,6.26,0,0,0,1.21.36,10.86,10.86,0,0,1,1.47.43,2.46,2.46,0,0,1,1,.7,2,2,0,0,1,.42,1.32,2,2,0,0,1-.37,1.19,2.29,2.29,0,0,1-1,.81,4,4,0,0,1-1.62.3,4.25,4.25,0,0,1-2.54-.7,3,3,0,0,1-1.16-2h2.31a1.06,1.06,0,0,0,.43.78,1.67,1.67,0,0,0,1,.26.86.86,0,0,0,.61-.19.62.62,0,0,0,.21-.49.6.6,0,0,0-.38-.59,8,8,0,0,0-1.25-.37,9.74,9.74,0,0,1-1.43-.39,2.35,2.35,0,0,1-1-.68,1.89,1.89,0,0,1-.4-1.28,2.08,2.08,0,0,1,.79-1.7,3.54,3.54,0,0,1,2.26-.65A3.59,3.59,0,0,1,721.29,221.79Z"/><path class="cls-8" d="M725.9,226.56V229h-2.47v-2.4Z"/></g></svg>