<svg xmlns="http://www.w3.org/2000/svg" viewBox="0 0 1140 1277"><defs><style>.cls-1{fill:#fff;stroke:#000;stroke-miterlimit:10;stroke-width:2.79px;}.cls-2{font-size:24px;font-family:Poppins-Bold, Poppins;font-weight:700;}.cls-3{font-size:23px;font-family:Poppins-Regular, Poppins;}.cls-4{letter-spacing:0.19em;}.cls-5{letter-spacing:0.19em;}.cls-6{letter-spacing:0em;}.cls-7{letter-spacing:0.19em;}.cls-8{fill:#e01919;}</style></defs><g id="Imagen"><rect class="cls-1" x="217.03" y="342.31" width="678.85" height="668.69"/><line class="cls-1" x1="217.03" y1="1011" x2="895.88" y2="342.31"/><line class="cls-1" x1="895.88" y1="1011" x2="217.03" y2="342.31"/></g><g id="Texto"><text class="cls-2" transform="translate(331.76 165.87)">CAMINO A UNA NUEVA CONSTITUCIÓN</text><text class="cls-3" transform="translate(219.94 227.63)">Lorem<tspan class="cls-4" x="71.62" y="0"> </tspan><tspan x="81.56" y="0">ipsum</tspan><tspan class="cls-4" x="152.66" y="0"> </tspan><tspan x="162.6" y="0">dolor</tspan><tspan class="cls-5" x="221.96" y="0"> </tspan><tspan class="cls-6" x="231.9" y="0">sit</tspan><tspan class="cls-4" x="257.82" y="0"> </tspan><tspan x="267.77" y="0">amet,</tspan><tspan class="cls-7" x="333.89" y="0"> </tspan><tspan x="343.83" y="0">consectetuer</tspan><tspan class="cls-4" x="497.49" y="0"> </tspan><tspan x="507.43" y="0">adipiscing</tspan><tspan class="cls-4" x="626.76" y="0"> </tspan><tspan x="636.7" y="0">elit, </tspan><tspan x="0" y="27.6">sed diam nonummy nibh euismod tincidunt ut lao</tspan></text><path class="cls-8" d="M345.65,284.17v2.07H349V288h-3.34v2.2h3.76v1.92h-6.16v-9.9h6.16v1.91Z"/><path class="cls-8" d="M354.61,283.28a1.21,1.21,0,0,0-.86.26,1.12,1.12,0,0,0-.29.81h1.41v2h-1.41v5.8h-2.4v-5.8h-.93v-2h.93v-.09a2.92,2.92,0,0,1,.85-2.24,3.47,3.47,0,0,1,2.46-.8l.5,0v2.06Z"/><path class="cls-8" d="M363.27,288.69h-5.42a1.79,1.79,0,0,0,.45,1.26,1.44,1.44,0,0,0,1,.39,1.4,1.4,0,0,0,.88-.27,1.19,1.19,0,0,0,.46-.68h2.54a3.31,3.31,0,0,1-.68,1.47,3.52,3.52,0,0,1-1.31,1,4.29,4.29,0,0,1-1.78.37,4.11,4.11,0,0,1-2-.49,3.38,3.38,0,0,1-1.39-1.39,4.3,4.3,0,0,1-.5-2.13,4.35,4.35,0,0,1,.49-2.13,3.41,3.41,0,0,1,1.4-1.39,4.21,4.21,0,0,1,2-.48,4.3,4.3,0,0,1,2,.47,3.4,3.4,0,0,1,1.37,1.34,4,4,0,0,1,.48,2A3.14,3.14,0,0,1,363.27,288.69Zm-2.76-2.17a1.69,1.69,0,0,0-2.15,0,1.62,1.62,0,0,0-.49,1.15h3.05A1.47,1.47,0,0,0,360.51,286.52Z"/><path class="cls-8" d="M370.65,285.08a3.73,3.73,0,0,1,1.29,2.29H369.4a1.32,1.32,0,0,0-.46-.78,1.35,1.35,0,0,0-.88-.28,1.28,1.28,0,0,0-1,.49,2.28,2.28,0,0,0-.4,1.45,2.24,2.24,0,0,0,.4,1.45,1.29,1.29,0,0,0,1,.5,1.28,1.28,0,0,0,1.34-1.06h2.54a3.68,3.68,0,0,1-1.29,2.28,3.86,3.86,0,0,1-2.53.84,4.11,4.11,0,0,1-2-.49,3.38,3.38,0,0,1-1.39-1.39,4.3,4.3,0,0,1-.51-2.13,4.35,4.35,0,0,1,.5-2.13,3.38,3.38,0,0,1,1.39-1.39,4.28,4.28,0,0,1,2.05-.48A3.91,3.91,0,0,1,370.65,285.08Z"/><path class="cls-8" d="M377.61,290.1v2.06h-1.08a3.12,3.12,0,0,1-2.14-.68,2.91,2.91,0,0,1-.76-2.25v-2.87h-1.05v-2h1.05v-1.92H376v1.92h1.56v2H376v2.92a.91.91,0,0,0,.18.64.92.92,0,0,0,.64.18Z"/><path class="cls-8" d="M384.68,284.73a3.49,3.49,0,0,1,1.45,1.4,4.14,4.14,0,0,1,.52,2.12,4.2,4.2,0,0,1-.52,2.13,3.47,3.47,0,0,1-1.45,1.39,4.66,4.66,0,0,1-4.16,0,3.47,3.47,0,0,1-1.45-1.39,4.21,4.21,0,0,1-.53-2.13,4.14,4.14,0,0,1,.53-2.12,3.49,3.49,0,0,1,1.45-1.4,4.75,4.75,0,0,1,4.16,0Zm-3.23,2.09a2.41,2.41,0,0,0,0,2.86,1.59,1.59,0,0,0,2.3,0,2.45,2.45,0,0,0,0-2.86,1.51,1.51,0,0,0-1.15-.5A1.53,1.53,0,0,0,381.45,286.82Z"/><path class="cls-8" d="M397.41,290.81a2.91,2.91,0,0,1-1.18,1.06,4.12,4.12,0,0,1-1.88.39,4.43,4.43,0,0,1-2.74-.81,3,3,0,0,1-1.18-2.27H393a1.34,1.34,0,0,0,.4.88,1.24,1.24,0,0,0,.87.32,1,1,0,0,0,.73-.25.87.87,0,0,0,.27-.67.89.89,0,0,0-.25-.63,1.84,1.84,0,0,0-.61-.42c-.24-.1-.58-.23-1-.38a14.06,14.06,0,0,1-1.53-.62,2.73,2.73,0,0,1-1-.9,2.56,2.56,0,0,1-.43-1.55,2.6,2.6,0,0,1,.45-1.52,2.85,2.85,0,0,1,1.24-1,4.5,4.5,0,0,1,1.81-.34,4.1,4.1,0,0,1,2.63.78,3,3,0,0,1,1.1,2.16H395a1.35,1.35,0,0,0-.36-.78,1.06,1.06,0,0,0-.78-.29,1,1,0,0,0-.68.23.84.84,0,0,0-.26.66.81.81,0,0,0,.24.59,1.66,1.66,0,0,0,.58.4c.23.1.57.23,1,.39a11.48,11.48,0,0,1,1.56.64,2.9,2.9,0,0,1,1,.92,2.6,2.6,0,0,1,.44,1.56A2.65,2.65,0,0,1,397.41,290.81Z"/><path class="cls-8" d="M409.05,282.26v1.91h-2.69v8H404v-8h-2.66v-1.91Z"/><path class="cls-8" d="M415.25,282.26v9.9h-2.39v-9.9Z"/><path class="cls-8" d="M427.35,283.16a4.57,4.57,0,0,1,1.61,2.69h-2.54a2.25,2.25,0,0,0-.86-1.08,2.41,2.41,0,0,0-1.38-.39,2.1,2.1,0,0,0-1.69.76,3.13,3.13,0,0,0-.64,2.06,3.05,3.05,0,0,0,.64,2.05,2.1,2.1,0,0,0,1.69.77,2.41,2.41,0,0,0,1.38-.39,2.32,2.32,0,0,0,.86-1.07H429a4.57,4.57,0,0,1-1.61,2.68,4.77,4.77,0,0,1-3.12,1,5,5,0,0,1-2.54-.63,4.36,4.36,0,0,1-1.69-1.79,6.09,6.09,0,0,1,0-5.23,4.3,4.3,0,0,1,1.69-1.79,5,5,0,0,1,2.54-.64A4.77,4.77,0,0,1,427.35,283.16Z"/><path class="cls-8" d="M437.76,287.1l4,5.06h-2.9l-3.35-4.44v4.44h-2.4v-9.9h2.4v4.36l3.38-4.36h2.87Z"/><path class="cls-8" d="M454.11,282.26l-3.43,6.61v3.29h-2.4v-3.29l-3.43-6.61h2.74l1.9,4,1.91-4Z"/><path class="cls-8" d="M463.05,285a3.22,3.22,0,0,1,1.12,2h-2.24a1.29,1.29,0,0,0-.44-.75,1.37,1.37,0,0,0-.87-.27,1,1,0,0,0-.61.17.63.63,0,0,0-.21.5.59.59,0,0,0,.38.55,6.26,6.26,0,0,0,1.21.36,10.86,10.86,0,0,1,1.47.43,2.4,2.4,0,0,1,1,.7,2,2,0,0,1,.42,1.32,2,2,0,0,1-.36,1.19,2.37,2.37,0,0,1-1.06.81,4,4,0,0,1-1.62.3,4.21,4.21,0,0,1-2.53-.7,3,3,0,0,1-1.17-2h2.31a1.06,1.06,0,0,0,.43.77,1.67,1.67,0,0,0,1,.26.89.89,0,0,0,.62-.19.62.62,0,0,0,.21-.49.61.61,0,0,0-.39-.59,7.67,7.67,0,0,0-1.25-.37,9.74,9.74,0,0,1-1.43-.39,2.38,2.38,0,0,1-1-.68,1.84,1.84,0,0,1-.41-1.28,2.06,2.06,0,0,1,.8-1.7,3.49,3.49,0,0,1,2.25-.65A3.59,3.59,0,0,1,463.05,285Z"/><path class="cls-8" d="M471.34,284.73a3.53,3.53,0,0,1,1.44,1.4,4.14,4.14,0,0,1,.53,2.12,4.21,4.21,0,0,1-.53,2.13,3.5,3.5,0,0,1-1.44,1.39,4.66,4.66,0,0,1-4.16,0,3.47,3.47,0,0,1-1.45-1.39,4.21,4.21,0,0,1-.53-2.13,4.14,4.14,0,0,1,.53-2.12,3.49,3.49,0,0,1,1.45-1.4,4.75,4.75,0,0,1,4.16,0Zm-3.23,2.09a2.41,2.41,0,0,0,0,2.86,1.59,1.59,0,0,0,2.3,0,2.45,2.45,0,0,0,0-2.86,1.57,1.57,0,0,0-2.3,0Z"/><path class="cls-8" d="M481.16,284.73a3.35,3.35,0,0,1,1.2,1.39,4.85,4.85,0,0,1,.44,2.13,4.91,4.91,0,0,1-.44,2.13,3.29,3.29,0,0,1-1.2,1.39,3.12,3.12,0,0,1-1.73.49,2.83,2.83,0,0,1-1.54-.41,2.34,2.34,0,0,1-.94-1.1v1.41h-2.4V281.8H477v4a2.29,2.29,0,0,1,.94-1.1,2.83,2.83,0,0,1,1.54-.41A3.19,3.19,0,0,1,481.16,284.73Zm-3.74,2.13a2.22,2.22,0,0,0,0,2.78,1.75,1.75,0,0,0,2.48,0,2,2,0,0,0,.46-1.4,2,2,0,0,0-.46-1.4,1.65,1.65,0,0,0-1.24-.5A1.62,1.62,0,0,0,477.42,286.86Z"/><path class="cls-8" d="M487.6,284.68a2.94,2.94,0,0,1,1.53-.42v2.57h-.69a2.36,2.36,0,0,0-1.47.4,1.63,1.63,0,0,0-.53,1.37v3.56h-2.39v-7.81h2.39v1.47A3.33,3.33,0,0,1,487.6,284.68Z"/><path class="cls-8" d="M497.49,288.69h-5.42a1.79,1.79,0,0,0,.45,1.26,1.42,1.42,0,0,0,1,.39,1.38,1.38,0,0,0,.88-.27,1.21,1.21,0,0,0,.47-.68h2.53a3.29,3.29,0,0,1-.67,1.47,3.64,3.64,0,0,1-1.32,1,4.26,4.26,0,0,1-1.78.37,4.09,4.09,0,0,1-2-.49,3.47,3.47,0,0,1-1.4-1.39,4.41,4.41,0,0,1-.5-2.13,4.35,4.35,0,0,1,.5-2.13,3.38,3.38,0,0,1,1.39-1.39,4.27,4.27,0,0,1,2-.48,4.34,4.34,0,0,1,2,.47,3.37,3.37,0,0,1,1.36,1.34,3.93,3.93,0,0,1,.49,2A4,4,0,0,1,497.49,288.69Zm-2.77-2.17a1.55,1.55,0,0,0-1.06-.38,1.58,1.58,0,0,0-1.09.39,1.66,1.66,0,0,0-.49,1.15h3.05A1.44,1.44,0,0,0,494.72,286.52Z"/><path class="cls-8" d="M509.37,284.35v7.81H507v-1.41a2.56,2.56,0,0,1-1,1.09,2.9,2.9,0,0,1-1.54.4,2.73,2.73,0,0,1-2.14-.89,3.59,3.59,0,0,1-.79-2.47v-4.53h2.38v4.24a1.78,1.78,0,0,0,.41,1.24,1.48,1.48,0,0,0,1.12.44,1.46,1.46,0,0,0,1.14-.46,1.9,1.9,0,0,0,.42-1.32v-4.14Z"/><path class="cls-8" d="M518.12,285.16a3.63,3.63,0,0,1,.79,2.46v4.54h-2.4V287.9a1.73,1.73,0,0,0-.41-1.22,1.42,1.42,0,0,0-1.1-.44,1.46,1.46,0,0,0-1.15.46,1.85,1.85,0,0,0-.43,1.31v4.15H511v-7.81h2.4v1.43a2.56,2.56,0,0,1,1-1.11,2.93,2.93,0,0,1,1.56-.41A2.71,2.71,0,0,1,518.12,285.16Z"/><path class="cls-8" d="M525,284.66a2.42,2.42,0,0,1,1,1.1v-1.41h2.38v7.81H526v-1.41a2.48,2.48,0,0,1-1,1.1,2.85,2.85,0,0,1-1.54.41,3.1,3.1,0,0,1-1.73-.49,3.31,3.31,0,0,1-1.21-1.39,4.91,4.91,0,0,1-.44-2.13,4.85,4.85,0,0,1,.44-2.13,3.37,3.37,0,0,1,1.21-1.39,3.17,3.17,0,0,1,1.73-.48A2.85,2.85,0,0,1,525,284.66Zm-2,2.19a2,2,0,0,0-.47,1.4,1.93,1.93,0,0,0,.47,1.4,1.59,1.59,0,0,0,1.24.51,1.62,1.62,0,0,0,1.23-.52,2.22,2.22,0,0,0,0-2.78,1.76,1.76,0,0,0-2.47,0Z"/><path class="cls-8" d="M533,281.25a1.45,1.45,0,0,1,1-.36,1.48,1.48,0,0,1,1,.36,1.22,1.22,0,0,1,0,1.79,1.47,1.47,0,0,1-1,.35,1.45,1.45,0,0,1-1-.35,1.22,1.22,0,0,1,0-1.79Zm2.22,3.1v7.81h-2.39v-7.81Z"/><path class="cls-8" d="M539.22,281.8v10.36h-2.39V281.8Z"/><path class="cls-8" d="M548.64,284.35v7.81h-2.41v-1.41a2.56,2.56,0,0,1-1,1.09,2.9,2.9,0,0,1-1.54.4,2.73,2.73,0,0,1-2.14-.89,3.59,3.59,0,0,1-.79-2.47v-4.53h2.38v4.24a1.78,1.78,0,0,0,.41,1.24,1.48,1.48,0,0,0,1.12.44,1.46,1.46,0,0,0,1.14-.46,1.9,1.9,0,0,0,.42-1.32v-4.14Z"/><path class="cls-8" d="M555.51,285a3.26,3.26,0,0,1,1.11,2h-2.24a1.2,1.2,0,0,0-.44-.75,1.36,1.36,0,0,0-.86-.27,1,1,0,0,0-.62.17.63.63,0,0,0-.21.5.59.59,0,0,0,.39.55,6.26,6.26,0,0,0,1.21.36,10.86,10.86,0,0,1,1.47.43,2.43,2.43,0,0,1,1,.7,2,2,0,0,1,.42,1.32,2,2,0,0,1-.36,1.19,2.29,2.29,0,0,1-1,.81,4,4,0,0,1-1.62.3,4.25,4.25,0,0,1-2.54-.7,3,3,0,0,1-1.16-2h2.31a1.06,1.06,0,0,0,.43.77,1.63,1.63,0,0,0,1,.26.86.86,0,0,0,.61-.19.66.66,0,0,0-.17-1.08,7.86,7.86,0,0,0-1.26-.37,9.57,9.57,0,0,1-1.42-.39,2.35,2.35,0,0,1-1-.68,1.89,1.89,0,0,1-.41-1.28,2.09,2.09,0,0,1,.8-1.7,3.52,3.52,0,0,1,2.26-.65A3.61,3.61,0,0,1,555.51,285Z"/><path class="cls-8" d="M562.49,290.1v2.06h-1.08a3.12,3.12,0,0,1-2.14-.68,2.91,2.91,0,0,1-.76-2.25v-2.87h-1v-2h1v-1.92h2.4v1.92h1.56v2h-1.56v2.92a.91.91,0,0,0,.18.64.92.92,0,0,0,.64.18Z"/><path class="cls-8" d="M567.38,284.68a2.94,2.94,0,0,1,1.53-.42v2.57h-.68a2.37,2.37,0,0,0-1.48.4,1.63,1.63,0,0,0-.53,1.37v3.56h-2.39v-7.81h2.39v1.47A3.42,3.42,0,0,1,567.38,284.68Z"/><path class="cls-8" d="M574.43,284.66a2.37,2.37,0,0,1,1,1.1v-1.41h2.38v7.81h-2.38v-1.41a2.42,2.42,0,0,1-1,1.1,2.83,2.83,0,0,1-1.54.41,3.12,3.12,0,0,1-1.73-.49,3.22,3.22,0,0,1-1.2-1.39,4.77,4.77,0,0,1-.45-2.13,4.71,4.71,0,0,1,.45-2.13,3.28,3.28,0,0,1,1.2-1.39,3.19,3.19,0,0,1,1.73-.48A2.83,2.83,0,0,1,574.43,284.66Zm-2,2.19a2,2,0,0,0-.47,1.4,2,2,0,0,0,.47,1.4,1.61,1.61,0,0,0,1.24.51,1.64,1.64,0,0,0,1.24-.52,2.25,2.25,0,0,0,0-2.78,1.77,1.77,0,0,0-2.48,0Z"/><path class="cls-8" d="M585.47,285.08a3.64,3.64,0,0,1,1.29,2.29h-2.53a1.28,1.28,0,0,0-1.35-1.06,1.26,1.26,0,0,0-1,.49,2.28,2.28,0,0,0-.41,1.45,2.24,2.24,0,0,0,.41,1.45,1.27,1.27,0,0,0,1,.5,1.37,1.37,0,0,0,.89-.28,1.4,1.4,0,0,0,.46-.78h2.53a3.59,3.59,0,0,1-1.29,2.28,3.84,3.84,0,0,1-2.53.84,4.16,4.16,0,0,1-2-.49,3.44,3.44,0,0,1-1.39-1.39,4.3,4.3,0,0,1-.5-2.13,4.35,4.35,0,0,1,.49-2.13,3.41,3.41,0,0,1,1.4-1.39,4.24,4.24,0,0,1,2-.48A3.89,3.89,0,0,1,585.47,285.08Z"/><path class="cls-8" d="M588.18,281.25a1.45,1.45,0,0,1,1-.36,1.48,1.48,0,0,1,1,.36,1.22,1.22,0,0,1,0,1.79,1.47,1.47,0,0,1-1,.35,1.45,1.45,0,0,1-1-.35,1.2,1.2,0,0,1,0-1.79Zm2.22,3.1v7.81H588v-7.81Z"/><path class="cls-8" d="M597.79,284.73a3.53,3.53,0,0,1,1.44,1.4,4.14,4.14,0,0,1,.52,2.12,4.2,4.2,0,0,1-.52,2.13,3.5,3.5,0,0,1-1.44,1.39,4.68,4.68,0,0,1-4.17,0,3.53,3.53,0,0,1-1.45-1.39,4.2,4.2,0,0,1-.52-2.13,4.14,4.14,0,0,1,.52-2.12,3.55,3.55,0,0,1,1.45-1.4,4.77,4.77,0,0,1,4.17,0Zm-3.24,2.09a2.41,2.41,0,0,0,0,2.86,1.54,1.54,0,0,0,1.16.49,1.51,1.51,0,0,0,1.15-.49,2.45,2.45,0,0,0,0-2.86,1.51,1.51,0,0,0-1.15-.5A1.55,1.55,0,0,0,594.55,286.82Zm3.16-4.47-3.37,1.44v-1.63l3.37-1.62Z"/><path class="cls-8" d="M608.09,285.16a3.58,3.58,0,0,1,.79,2.46v4.54h-2.39V287.9a1.73,1.73,0,0,0-.41-1.22,1.43,1.43,0,0,0-1.1-.44,1.5,1.5,0,0,0-1.16.46,1.9,1.9,0,0,0-.43,1.31v4.15H601v-7.81h2.39v1.43a2.58,2.58,0,0,1,1-1.11,2.93,2.93,0,0,1,1.56-.41A2.7,2.7,0,0,1,608.09,285.16Z"/><path class="cls-8" d="M618.48,285a3.26,3.26,0,0,1,1.11,2h-2.24a1.2,1.2,0,0,0-.44-.75,1.34,1.34,0,0,0-.86-.27,1,1,0,0,0-.62.17.63.63,0,0,0-.21.5.59.59,0,0,0,.39.55,6.26,6.26,0,0,0,1.21.36,10.86,10.86,0,0,1,1.47.43,2.43,2.43,0,0,1,1,.7,2,2,0,0,1,.42,1.32,2,2,0,0,1-.36,1.19,2.29,2.29,0,0,1-1.05.81,4,4,0,0,1-1.62.3,4.25,4.25,0,0,1-2.54-.7,3,3,0,0,1-1.16-2h2.31a1.06,1.06,0,0,0,.43.77,1.65,1.65,0,0,0,1,.26.86.86,0,0,0,.61-.19.66.66,0,0,0-.17-1.08,7.86,7.86,0,0,0-1.26-.37,9.93,9.93,0,0,1-1.42-.39,2.35,2.35,0,0,1-1-.68,1.89,1.89,0,0,1-.41-1.28,2.09,2.09,0,0,1,.8-1.7,3.52,3.52,0,0,1,2.26-.65A3.59,3.59,0,0,1,618.48,285Z"/><path class="cls-8" d="M621.2,281.25a1.48,1.48,0,0,1,1-.36,1.45,1.45,0,0,1,1,.36,1.2,1.2,0,0,1,0,1.79,1.45,1.45,0,0,1-1,.35,1.47,1.47,0,0,1-1-.35,1.22,1.22,0,0,1,0-1.79Zm2.23,3.1v7.81H621v-7.81Z"/><path class="cls-8" d="M637.47,285.15a3.51,3.51,0,0,1,.83,2.47v4.54h-2.38V287.9a1.61,1.61,0,0,0-.4-1.15,1.43,1.43,0,0,0-1.09-.41,1.47,1.47,0,0,0-1.13.44,1.74,1.74,0,0,0-.41,1.23v4.15H630.5V287.9a1.6,1.6,0,0,0-.39-1.15,1.41,1.41,0,0,0-1.08-.41,1.51,1.51,0,0,0-1.14.43,1.71,1.71,0,0,0-.42,1.24v4.15h-2.39v-7.81h2.39v1.33a2.33,2.33,0,0,1,.95-1,2.87,2.87,0,0,1,1.49-.38,3,3,0,0,1,1.58.42,2.61,2.61,0,0,1,1,1.18,3.09,3.09,0,0,1,1.11-1.16,2.92,2.92,0,0,1,1.56-.44A3,3,0,0,1,637.47,285.15Z"/><path class="cls-8" d="M647.66,284.35v7.81h-2.41v-1.41a2.56,2.56,0,0,1-1,1.09,2.9,2.9,0,0,1-1.54.4,2.73,2.73,0,0,1-2.14-.89,3.59,3.59,0,0,1-.79-2.47v-4.53h2.38v4.24a1.78,1.78,0,0,0,.41,1.24,1.48,1.48,0,0,0,1.12.44,1.46,1.46,0,0,0,1.14-.46,1.9,1.9,0,0,0,.42-1.32v-4.14Z"/><path class="cls-8" d="M651.71,281.8v10.36h-2.4V281.8Z"/><path class="cls-8" d="M657.87,284.66a2.42,2.42,0,0,1,1,1.1v-1.41h2.38v7.81h-2.38v-1.41a2.48,2.48,0,0,1-1,1.1,2.85,2.85,0,0,1-1.54.41,3.1,3.1,0,0,1-1.73-.49,3.31,3.31,0,0,1-1.21-1.39,4.91,4.91,0,0,1-.44-2.13,4.85,4.85,0,0,1,.44-2.13,3.37,3.37,0,0,1,1.21-1.39,3.17,3.17,0,0,1,1.73-.48A2.85,2.85,0,0,1,657.87,284.66Zm-2,2.19a2,2,0,0,0-.47,1.4,1.93,1.93,0,0,0,.47,1.4,1.59,1.59,0,0,0,1.24.51,1.66,1.66,0,0,0,1.24-.52,2.25,2.25,0,0,0,0-2.78,1.65,1.65,0,0,0-1.24-.51A1.62,1.62,0,0,0,655.86,286.85Z"/><path class="cls-8" d="M669.94,285.16a3.58,3.58,0,0,1,.79,2.46v4.54h-2.39V287.9a1.73,1.73,0,0,0-.41-1.22,1.43,1.43,0,0,0-1.1-.44,1.5,1.5,0,0,0-1.16.46,1.89,1.89,0,0,0-.42,1.31v4.15h-2.4v-7.81h2.4v1.43a2.5,2.5,0,0,1,1-1.11,2.93,2.93,0,0,1,1.56-.41A2.69,2.69,0,0,1,669.94,285.16Z"/><path class="cls-8" d="M676.82,284.66a2.29,2.29,0,0,1,.94,1.1v-4h2.4v10.36h-2.4v-1.41a2.34,2.34,0,0,1-.94,1.1,2.83,2.83,0,0,1-1.54.41,3.12,3.12,0,0,1-1.73-.49,3.29,3.29,0,0,1-1.2-1.39,4.91,4.91,0,0,1-.44-2.13,4.85,4.85,0,0,1,.44-2.13,3.35,3.35,0,0,1,1.2-1.39,3.19,3.19,0,0,1,1.73-.48A2.83,2.83,0,0,1,676.82,284.66Zm-2,2.19a2,2,0,0,0-.46,1.4,2,2,0,0,0,.46,1.4,1.75,1.75,0,0,0,2.48,0,2.22,2.22,0,0,0,0-2.78,1.62,1.62,0,0,0-1.24-.51A1.65,1.65,0,0,0,674.81,286.85Z"/><path class="cls-8" d="M687.54,284.73a3.53,3.53,0,0,1,1.44,1.4,4.14,4.14,0,0,1,.53,2.12,4.21,4.21,0,0,1-.53,2.13,3.5,3.5,0,0,1-1.44,1.39,4.29,4.29,0,0,1-2.08.49,4.38,4.38,0,0,1-2.09-.49,3.5,3.5,0,0,1-1.44-1.39,4.21,4.21,0,0,1-.53-2.13,4.14,4.14,0,0,1,.53-2.12,3.53,3.53,0,0,1,1.44-1.4,4.5,4.5,0,0,1,2.09-.48A4.4,4.4,0,0,1,687.54,284.73Zm-3.23,2.09a2.41,2.41,0,0,0,0,2.86,1.59,1.59,0,0,0,2.3,0,2.45,2.45,0,0,0,0-2.86,1.57,1.57,0,0,0-2.3,0Z"/><path class="cls-8" d="M701.32,284.35v7.81h-2.4v-1.41a2.65,2.65,0,0,1-1,1.09,2.87,2.87,0,0,1-1.54.4,2.73,2.73,0,0,1-2.14-.89,3.64,3.64,0,0,1-.79-2.47v-4.53h2.38v4.24a1.78,1.78,0,0,0,.41,1.24,1.66,1.66,0,0,0,2.27,0,1.9,1.9,0,0,0,.42-1.32v-4.14Z"/><path class="cls-8" d="M710.07,285.16a3.63,3.63,0,0,1,.79,2.46v4.54h-2.4V287.9a1.69,1.69,0,0,0-.41-1.22,1.4,1.4,0,0,0-1.1-.44,1.48,1.48,0,0,0-1.15.46,1.85,1.85,0,0,0-.43,1.31v4.15H703v-7.81h2.39v1.43a2.56,2.56,0,0,1,1-1.11,2.93,2.93,0,0,1,1.56-.41A2.71,2.71,0,0,1,710.07,285.16Z"/><path class="cls-8" d="M717,284.66a2.42,2.42,0,0,1,.95,1.1v-1.41h2.38v7.81H717.9v-1.41a2.48,2.48,0,0,1-.95,1.1,2.85,2.85,0,0,1-1.54.41,3.1,3.1,0,0,1-1.73-.49,3.31,3.31,0,0,1-1.21-1.39,4.91,4.91,0,0,1-.44-2.13,4.85,4.85,0,0,1,.44-2.13,3.37,3.37,0,0,1,1.21-1.39,3.17,3.17,0,0,1,1.73-.48A2.85,2.85,0,0,1,717,284.66Zm-2,2.19a2,2,0,0,0-.47,1.4,1.93,1.93,0,0,0,.47,1.4,1.59,1.59,0,0,0,1.24.51,1.66,1.66,0,0,0,1.24-.52,2.25,2.25,0,0,0,0-2.78,1.65,1.65,0,0,0-1.24-.51A1.62,1.62,0,0,0,714.94,286.85Z"/><path class="cls-8" d="M731.82,285.16a3.58,3.58,0,0,1,.79,2.46v4.54h-2.39V287.9a1.73,1.73,0,0,0-.41-1.22,1.43,1.43,0,0,0-1.1-.44,1.5,1.5,0,0,0-1.16.46,1.9,1.9,0,0,0-.43,1.31v4.15h-2.39v-7.81h2.39v1.43a2.58,2.58,0,0,1,1-1.11,2.93,2.93,0,0,1,1.56-.41A2.7,2.7,0,0,1,731.82,285.16Z"/><path class="cls-8" d="M742,284.35v7.81h-2.4v-1.41a2.69,2.69,0,0,1-1,1.09,2.93,2.93,0,0,1-1.55.4,2.73,2.73,0,0,1-2.14-.89,3.64,3.64,0,0,1-.79-2.47v-4.53h2.38v4.24a1.74,1.74,0,0,0,.42,1.24,1.45,1.45,0,0,0,1.11.44,1.48,1.48,0,0,0,1.15-.46,1.9,1.9,0,0,0,.42-1.32v-4.14Z"/><path class="cls-8" d="M751,288.69h-5.42A1.79,1.79,0,0,0,746,290a1.58,1.58,0,0,0,1.92.12,1.24,1.24,0,0,0,.46-.68h2.53a3.29,3.29,0,0,1-.67,1.47,3.55,3.55,0,0,1-1.32,1,4.26,4.26,0,0,1-1.78.37,4.09,4.09,0,0,1-2-.49,3.47,3.47,0,0,1-1.4-1.39,4.41,4.41,0,0,1-.5-2.13,4.35,4.35,0,0,1,.5-2.13,3.38,3.38,0,0,1,1.39-1.39,4.27,4.27,0,0,1,2-.48,4.34,4.34,0,0,1,2.05.47,3.37,3.37,0,0,1,1.36,1.34,3.93,3.93,0,0,1,.49,2A4,4,0,0,1,751,288.69Zm-2.77-2.17a1.53,1.53,0,0,0-1.06-.38,1.58,1.58,0,0,0-1.09.39,1.66,1.66,0,0,0-.49,1.15h3.06A1.48,1.48,0,0,0,748.2,286.52Z"/><path class="cls-8" d="M755.9,289.82l1.69-5.47h2.55l-2.77,7.81h-3l-2.78-7.81h2.55Z"/><path class="cls-8" d="M765.64,284.66a2.37,2.37,0,0,1,1,1.1v-1.41H769v7.81h-2.38v-1.41a2.42,2.42,0,0,1-1,1.1,2.83,2.83,0,0,1-1.54.41,3.12,3.12,0,0,1-1.73-.49,3.22,3.22,0,0,1-1.2-1.39,4.77,4.77,0,0,1-.45-2.13,4.71,4.71,0,0,1,.45-2.13,3.28,3.28,0,0,1,1.2-1.39,3.19,3.19,0,0,1,1.73-.48A2.83,2.83,0,0,1,765.64,284.66Zm-2,2.19a2,2,0,0,0-.47,1.4,2,2,0,0,0,.47,1.4,1.61,1.61,0,0,0,1.24.51,1.64,1.64,0,0,0,1.24-.52,2.25,2.25,0,0,0,0-2.78,1.77,1.77,0,0,0-2.48,0Z"/><path class="cls-8" d="M349.31,301.88a3.68,3.68,0,0,1,1.29,2.29h-2.53a1.28,1.28,0,0,0-1.35-1.06,1.26,1.26,0,0,0-1,.49,2.28,2.28,0,0,0-.41,1.45,2.24,2.24,0,0,0,.41,1.45,1.27,1.27,0,0,0,1,.5,1.37,1.37,0,0,0,.89-.28,1.39,1.39,0,0,0,.46-.79h2.53a3.63,3.63,0,0,1-1.29,2.29,3.84,3.84,0,0,1-2.53.84,4.13,4.13,0,0,1-2-.49,3.44,3.44,0,0,1-1.39-1.39,4.3,4.3,0,0,1-.5-2.13,4.35,4.35,0,0,1,.49-2.13,3.41,3.41,0,0,1,1.4-1.39,4.21,4.21,0,0,1,2-.48A3.89,3.89,0,0,1,349.31,301.88Z"/><path class="cls-8" d="M357.58,301.53a3.53,3.53,0,0,1,1.44,1.4,4.14,4.14,0,0,1,.53,2.12,4.21,4.21,0,0,1-.53,2.13,3.5,3.5,0,0,1-1.44,1.39,4.66,4.66,0,0,1-4.16,0,3.47,3.47,0,0,1-1.45-1.39,4.21,4.21,0,0,1-.53-2.13,4.14,4.14,0,0,1,.53-2.12,3.49,3.49,0,0,1,1.45-1.4,4.75,4.75,0,0,1,4.16,0Zm-3.23,2.09a2.41,2.41,0,0,0,0,2.86,1.59,1.59,0,0,0,2.3,0,2.45,2.45,0,0,0,0-2.86,1.57,1.57,0,0,0-2.3,0Z"/><path class="cls-8" d="M367.88,302a3.59,3.59,0,0,1,.8,2.46V309h-2.4V304.7a1.73,1.73,0,0,0-.41-1.22,1.42,1.42,0,0,0-1.1-.44,1.5,1.5,0,0,0-1.16.46,1.89,1.89,0,0,0-.42,1.31V309h-2.4v-7.81h2.4v1.43a2.56,2.56,0,0,1,1-1.11,2.93,2.93,0,0,1,1.56-.41A2.67,2.67,0,0,1,367.88,302Z"/><path class="cls-8" d="M375.47,301.79a3.22,3.22,0,0,1,1.12,2h-2.24a1.26,1.26,0,0,0-.45-.75,1.32,1.32,0,0,0-.86-.27,1,1,0,0,0-.61.17.63.63,0,0,0-.21.5.59.59,0,0,0,.38.55,6.26,6.26,0,0,0,1.21.36,10.86,10.86,0,0,1,1.47.43,2.4,2.4,0,0,1,1,.7,2.19,2.19,0,0,1,.05,2.51,2.29,2.29,0,0,1-1.05.81,4,4,0,0,1-1.62.3,4.19,4.19,0,0,1-2.53-.7,3,3,0,0,1-1.17-2h2.31a1.06,1.06,0,0,0,.43.78,1.67,1.67,0,0,0,1,.26.89.89,0,0,0,.62-.19.62.62,0,0,0,.21-.49.6.6,0,0,0-.39-.59,7.67,7.67,0,0,0-1.25-.37,9.74,9.74,0,0,1-1.43-.39,2.42,2.42,0,0,1-1-.68,1.89,1.89,0,0,1-.4-1.28,2.06,2.06,0,0,1,.8-1.7,3.49,3.49,0,0,1,2.25-.65A3.59,3.59,0,0,1,375.47,301.79Z"/><path class="cls-8" d="M382.45,306.9V309h-1.08a3.11,3.11,0,0,1-2.13-.68,2.87,2.87,0,0,1-.76-2.25v-2.87h-1.05v-2h1.05v-1.92h2.39v1.92h1.57v2h-1.57v2.92a.86.86,0,0,0,.19.64.91.91,0,0,0,.64.18Z"/><path class="cls-8" d="M384,298.05a1.68,1.68,0,0,1,2.08,0,1.22,1.22,0,0,1,0,1.79,1.72,1.72,0,0,1-2.08,0,1.22,1.22,0,0,1,0-1.79Zm2.23,3.1V309H383.8v-7.81Z"/><path class="cls-8" d="M392.27,306.9V309h-1.08a3.12,3.12,0,0,1-2.14-.68,2.87,2.87,0,0,1-.76-2.25v-2.87h-1.05v-2h1.05v-1.92h2.39v1.92h1.57v2h-1.57v2.92a.9.9,0,0,0,.19.64.92.92,0,0,0,.64.18Z"/><path class="cls-8" d="M401.38,301.15V309H399v-1.41a2.62,2.62,0,0,1-1,1.09,2.91,2.91,0,0,1-1.55.4,2.73,2.73,0,0,1-2.13-.89,3.59,3.59,0,0,1-.79-2.47v-4.53h2.38v4.24a1.74,1.74,0,0,0,.41,1.24,1.64,1.64,0,0,0,2.26,0,1.9,1.9,0,0,0,.42-1.32v-4.14Z"/><path class="cls-8" d="M409.09,301.88a3.73,3.73,0,0,1,1.29,2.29h-2.53a1.28,1.28,0,0,0-1.35-1.06,1.26,1.26,0,0,0-1,.49,2.28,2.28,0,0,0-.41,1.45,2.24,2.24,0,0,0,.41,1.45,1.27,1.27,0,0,0,1,.5,1.37,1.37,0,0,0,.89-.28,1.39,1.39,0,0,0,.46-.79h2.53a3.68,3.68,0,0,1-1.29,2.29,3.84,3.84,0,0,1-2.53.84,4.11,4.11,0,0,1-2-.49,3.38,3.38,0,0,1-1.39-1.39,4.3,4.3,0,0,1-.51-2.13,4.35,4.35,0,0,1,.5-2.13,3.41,3.41,0,0,1,1.4-1.39,4.21,4.21,0,0,1,2-.48A3.89,3.89,0,0,1,409.09,301.88Z"/><path class="cls-8" d="M411.8,298.05a1.45,1.45,0,0,1,1-.36,1.48,1.48,0,0,1,1,.36,1.22,1.22,0,0,1,0,1.79,1.47,1.47,0,0,1-1,.35,1.45,1.45,0,0,1-1-.35,1.2,1.2,0,0,1,0-1.79Zm2.22,3.1V309h-2.39v-7.81Z"/><path class="cls-8" d="M421.41,301.53a3.53,3.53,0,0,1,1.44,1.4,4.14,4.14,0,0,1,.52,2.12,4.2,4.2,0,0,1-.52,2.13,3.5,3.5,0,0,1-1.44,1.39,4.68,4.68,0,0,1-4.17,0,3.47,3.47,0,0,1-1.45-1.39,4.2,4.2,0,0,1-.52-2.13,4.14,4.14,0,0,1,.52-2.12,3.49,3.49,0,0,1,1.45-1.4,4.77,4.77,0,0,1,4.17,0Zm-3.24,2.09a2.41,2.41,0,0,0,0,2.86,1.61,1.61,0,0,0,2.31,0,2.45,2.45,0,0,0,0-2.86,1.58,1.58,0,0,0-2.31,0Zm3.16-4.48L418,300.59V299l3.37-1.62Z"/><path class="cls-8" d="M431.71,302a3.58,3.58,0,0,1,.79,2.46V309h-2.39V304.7a1.69,1.69,0,0,0-.42-1.22,1.4,1.4,0,0,0-1.1-.44,1.48,1.48,0,0,0-1.15.46,1.9,1.9,0,0,0-.43,1.31V309h-2.39v-7.81H427v1.43a2.62,2.62,0,0,1,1-1.11,3,3,0,0,1,1.57-.41A2.7,2.7,0,0,1,431.71,302Z"/><path class="cls-8" d="M436,309.24a2.47,2.47,0,0,1-.51,1.6,1.93,1.93,0,0,1-1.59.63v-.89a.81.81,0,0,0,.56-.16,1,1,0,0,0,.17-.65v-.14h-1v-2.16h2A3.82,3.82,0,0,1,436,309.24Z"/><path class="cls-8" d="M452.59,302a3.51,3.51,0,0,1,.83,2.47V309H451V304.7a1.61,1.61,0,0,0-.4-1.15,1.65,1.65,0,0,0-2.21,0,1.7,1.7,0,0,0-.42,1.23V309h-2.39V304.7a1.6,1.6,0,0,0-.39-1.15,1.4,1.4,0,0,0-1.08-.41,1.51,1.51,0,0,0-1.14.43,1.71,1.71,0,0,0-.42,1.24V309H440.2v-7.81h2.39v1.33a2.33,2.33,0,0,1,1-1,2.87,2.87,0,0,1,1.49-.38,2.94,2.94,0,0,1,1.58.42,2.55,2.55,0,0,1,1,1.18,3.09,3.09,0,0,1,1.11-1.16,2.92,2.92,0,0,1,1.56-.44A3,3,0,0,1,452.59,302Z"/><path class="cls-8" d="M460.75,301.53a3.53,3.53,0,0,1,1.44,1.4,4.14,4.14,0,0,1,.52,2.12,4.2,4.2,0,0,1-.52,2.13,3.5,3.5,0,0,1-1.44,1.39,4.68,4.68,0,0,1-4.17,0,3.47,3.47,0,0,1-1.45-1.39,4.2,4.2,0,0,1-.52-2.13,4.14,4.14,0,0,1,.52-2.12,3.49,3.49,0,0,1,1.45-1.4,4.77,4.77,0,0,1,4.17,0Zm-3.24,2.09a2.41,2.41,0,0,0,0,2.86,1.53,1.53,0,0,0,1.16.49,1.48,1.48,0,0,0,1.14-.49,2.41,2.41,0,0,0,0-2.86,1.49,1.49,0,0,0-1.14-.5A1.54,1.54,0,0,0,457.51,303.62Z"/><path class="cls-8" d="M469.17,301.79a3.22,3.22,0,0,1,1.12,2h-2.24a1.29,1.29,0,0,0-.44-.75,1.36,1.36,0,0,0-.86-.27,1,1,0,0,0-.62.17.63.63,0,0,0-.21.5.59.59,0,0,0,.38.55,6.26,6.26,0,0,0,1.21.36,10.86,10.86,0,0,1,1.47.43,2.4,2.4,0,0,1,1,.7,2,2,0,0,1,.42,1.32A2,2,0,0,1,470,308a2.37,2.37,0,0,1-1.06.81,4,4,0,0,1-1.62.3,4.21,4.21,0,0,1-2.53-.7,2.92,2.92,0,0,1-1.16-2H466a1.06,1.06,0,0,0,.43.78,1.67,1.67,0,0,0,1,.26.89.89,0,0,0,.62-.19.62.62,0,0,0,.21-.49.6.6,0,0,0-.39-.59,7.67,7.67,0,0,0-1.25-.37,9.74,9.74,0,0,1-1.43-.39,2.38,2.38,0,0,1-1-.68,1.84,1.84,0,0,1-.41-1.28,2.06,2.06,0,0,1,.8-1.7,3.49,3.49,0,0,1,2.25-.65A3.59,3.59,0,0,1,469.17,301.79Z"/><path class="cls-8" d="M476.15,306.9V309h-1.08a3.11,3.11,0,0,1-2.13-.68,2.87,2.87,0,0,1-.76-2.25v-2.87h-1.05v-2h1.05v-1.92h2.39v1.92h1.57v2h-1.57v2.92a.86.86,0,0,0,.19.64.92.92,0,0,0,.64.18Z"/><path class="cls-8" d="M481,301.48a3,3,0,0,1,1.54-.42v2.57h-.69a2.34,2.34,0,0,0-1.47.4,1.6,1.6,0,0,0-.53,1.37V309H477.5v-7.81h2.39v1.47A3.39,3.39,0,0,1,481,301.48Z"/><path class="cls-8" d="M488.09,301.46a2.45,2.45,0,0,1,1,1.1v-1.41h2.38V309h-2.38v-1.41a2.5,2.5,0,0,1-1,1.1,2.83,2.83,0,0,1-1.54.41,3.06,3.06,0,0,1-1.72-.49,3.31,3.31,0,0,1-1.21-1.39,4.91,4.91,0,0,1-.44-2.13,4.85,4.85,0,0,1,.44-2.13,3.37,3.37,0,0,1,1.21-1.39,3.14,3.14,0,0,1,1.72-.48A2.75,2.75,0,0,1,488.09,301.46Zm-2,2.19a2,2,0,0,0-.46,1.4,2,2,0,0,0,.46,1.4,1.75,1.75,0,0,0,2.48,0,2.22,2.22,0,0,0,0-2.78,1.62,1.62,0,0,0-1.24-.51A1.65,1.65,0,0,0,486.08,303.65Z"/><path class="cls-8" d="M500.17,302a3.58,3.58,0,0,1,.79,2.46V309h-2.39V304.7a1.69,1.69,0,0,0-.42-1.22,1.4,1.4,0,0,0-1.1-.44,1.48,1.48,0,0,0-1.15.46,1.85,1.85,0,0,0-.43,1.31V309h-2.39v-7.81h2.39v1.43a2.62,2.62,0,0,1,1-1.11,3,3,0,0,1,1.56-.41A2.71,2.71,0,0,1,500.17,302Z"/><path class="cls-8" d="M507.05,301.46a2.35,2.35,0,0,1,.94,1.1v-4h2.39V309H508v-1.41a2.4,2.4,0,0,1-.94,1.1,2.83,2.83,0,0,1-1.54.41,3.12,3.12,0,0,1-1.73-.49,3.22,3.22,0,0,1-1.2-1.39,4.77,4.77,0,0,1-.44-2.13,4.71,4.71,0,0,1,.44-2.13,3.28,3.28,0,0,1,1.2-1.39,3.19,3.19,0,0,1,1.73-.48A2.75,2.75,0,0,1,507.05,301.46Zm-2,2.19a2,2,0,0,0-.47,1.4,2,2,0,0,0,.47,1.4,1.61,1.61,0,0,0,1.24.51,1.64,1.64,0,0,0,1.24-.52,2.25,2.25,0,0,0,0-2.78,1.77,1.77,0,0,0-2.48,0Z"/><path class="cls-8" d="M517.77,301.53a3.53,3.53,0,0,1,1.44,1.4,4.14,4.14,0,0,1,.52,2.12,4.2,4.2,0,0,1-.52,2.13,3.5,3.5,0,0,1-1.44,1.39,4.68,4.68,0,0,1-4.17,0,3.53,3.53,0,0,1-1.45-1.39,4.2,4.2,0,0,1-.52-2.13,4.14,4.14,0,0,1,.52-2.12,3.55,3.55,0,0,1,1.45-1.4,4.77,4.77,0,0,1,4.17,0Zm-3.24,2.09a2.41,2.41,0,0,0,0,2.86,1.54,1.54,0,0,0,1.16.49,1.51,1.51,0,0,0,1.15-.49,2.45,2.45,0,0,0,0-2.86,1.51,1.51,0,0,0-1.15-.5A1.55,1.55,0,0,0,514.53,303.62Z"/><path class="cls-8" d="M526.17,298.6V309h-2.39V298.6Z"/><path class="cls-8" d="M532.33,301.46a2.45,2.45,0,0,1,1,1.1v-1.41h2.38V309h-2.38v-1.41a2.5,2.5,0,0,1-1,1.1,2.83,2.83,0,0,1-1.54.41,3.06,3.06,0,0,1-1.72-.49,3.31,3.31,0,0,1-1.21-1.39,4.91,4.91,0,0,1-.44-2.13,4.85,4.85,0,0,1,.44-2.13,3.37,3.37,0,0,1,1.21-1.39,3.14,3.14,0,0,1,1.72-.48A2.75,2.75,0,0,1,532.33,301.46Zm-2,2.19a2,2,0,0,0-.47,1.4,1.93,1.93,0,0,0,.47,1.4,1.58,1.58,0,0,0,1.23.51,1.63,1.63,0,0,0,1.24-.52,2.22,2.22,0,0,0,0-2.78,1.76,1.76,0,0,0-2.47,0Z"/><path class="cls-8" d="M542.53,301.79a3.22,3.22,0,0,1,1.12,2h-2.24A1.26,1.26,0,0,0,541,303a1.32,1.32,0,0,0-.86-.27,1,1,0,0,0-.61.17.63.63,0,0,0-.21.5.59.59,0,0,0,.38.55,6.26,6.26,0,0,0,1.21.36,10.86,10.86,0,0,1,1.47.43,2.4,2.4,0,0,1,1,.7,2.19,2.19,0,0,1,0,2.51,2.29,2.29,0,0,1-1,.81,4,4,0,0,1-1.62.3,4.21,4.21,0,0,1-2.53-.7,3,3,0,0,1-1.17-2h2.31a1.06,1.06,0,0,0,.43.78,1.67,1.67,0,0,0,1,.26.89.89,0,0,0,.62-.19.62.62,0,0,0,.21-.49.6.6,0,0,0-.39-.59,7.67,7.67,0,0,0-1.25-.37,9.74,9.74,0,0,1-1.43-.39,2.49,2.49,0,0,1-1-.68,1.89,1.89,0,0,1-.4-1.28,2.06,2.06,0,0,1,.8-1.7,3.49,3.49,0,0,1,2.25-.65A3.59,3.59,0,0,1,542.53,301.79Z"/><path class="cls-8" d="M554.49,301.53a3.28,3.28,0,0,1,1.2,1.39,4.71,4.71,0,0,1,.44,2.13,4.77,4.77,0,0,1-.44,2.13,3.22,3.22,0,0,1-1.2,1.39,3.12,3.12,0,0,1-1.73.49,2.83,2.83,0,0,1-1.54-.41,2.4,2.4,0,0,1-.94-1.1v5.13h-2.39V301.15h2.39v1.41a2.35,2.35,0,0,1,.94-1.1,2.75,2.75,0,0,1,1.54-.41A3.19,3.19,0,0,1,554.49,301.53Zm-3.74,2.13a2.25,2.25,0,0,0,0,2.78A1.64,1.64,0,0,0,552,307a1.61,1.61,0,0,0,1.24-.51,2,2,0,0,0,.47-1.4,2,2,0,0,0-.47-1.4,1.77,1.77,0,0,0-2.48,0Z"/><path class="cls-8" d="M560.93,301.48a2.94,2.94,0,0,1,1.53-.42v2.57h-.68a2.37,2.37,0,0,0-1.48.4,1.63,1.63,0,0,0-.53,1.37V309h-2.39v-7.81h2.39v1.47A3.42,3.42,0,0,1,560.93,301.48Z"/><path class="cls-8" d="M569.2,301.53a3.53,3.53,0,0,1,1.44,1.4,4.14,4.14,0,0,1,.53,2.12,4.21,4.21,0,0,1-.53,2.13,3.5,3.5,0,0,1-1.44,1.39,4.66,4.66,0,0,1-4.16,0,3.47,3.47,0,0,1-1.45-1.39,4.21,4.21,0,0,1-.53-2.13,4.14,4.14,0,0,1,.53-2.12,3.49,3.49,0,0,1,1.45-1.4,4.75,4.75,0,0,1,4.16,0ZM566,303.62a2.41,2.41,0,0,0,0,2.86,1.59,1.59,0,0,0,2.3,0,2.45,2.45,0,0,0,0-2.86,1.51,1.51,0,0,0-1.15-.5A1.53,1.53,0,0,0,566,303.62Z"/><path class="cls-8" d="M579,301.53a3.28,3.28,0,0,1,1.2,1.39,4.85,4.85,0,0,1,.44,2.13,4.91,4.91,0,0,1-.44,2.13,3.22,3.22,0,0,1-1.2,1.39,3.12,3.12,0,0,1-1.73.49,2.83,2.83,0,0,1-1.54-.41,2.4,2.4,0,0,1-.94-1.1v5.13h-2.39V301.15h2.39v1.41a2.35,2.35,0,0,1,.94-1.1,2.75,2.75,0,0,1,1.54-.41A3.19,3.19,0,0,1,579,301.53Zm-3.74,2.13a2.25,2.25,0,0,0,0,2.78,1.75,1.75,0,0,0,2.48,0,2,2,0,0,0,.47-1.4,2,2,0,0,0-.47-1.4,1.65,1.65,0,0,0-1.24-.5A1.62,1.62,0,0,0,575.28,303.66Z"/><path class="cls-8" d="M589.68,301.15V309h-2.41v-1.41a2.62,2.62,0,0,1-1,1.09,2.91,2.91,0,0,1-1.55.4,2.71,2.71,0,0,1-2.13-.89,3.59,3.59,0,0,1-.79-2.47v-4.53h2.38v4.24a1.74,1.74,0,0,0,.41,1.24,1.64,1.64,0,0,0,2.26,0,1.9,1.9,0,0,0,.42-1.32v-4.14Z"/><path class="cls-8" d="M598.68,305.49h-5.42a1.79,1.79,0,0,0,.45,1.26,1.44,1.44,0,0,0,1,.39,1.42,1.42,0,0,0,.88-.27,1.24,1.24,0,0,0,.46-.68h2.53a3.19,3.19,0,0,1-.67,1.47,3.52,3.52,0,0,1-1.31,1,4.33,4.33,0,0,1-1.78.37,4.11,4.11,0,0,1-2-.49,3.38,3.38,0,0,1-1.39-1.39,4.3,4.3,0,0,1-.51-2.13,4.35,4.35,0,0,1,.5-2.13,3.44,3.44,0,0,1,1.39-1.39,4.28,4.28,0,0,1,2.05-.48,4.32,4.32,0,0,1,2,.47,3.4,3.4,0,0,1,1.37,1.34,4,4,0,0,1,.48,2A3.14,3.14,0,0,1,598.68,305.49Zm-2.76-2.17a1.57,1.57,0,0,0-1.06-.38,1.55,1.55,0,0,0-1.09.39,1.6,1.6,0,0,0-.49,1.15h3.05A1.47,1.47,0,0,0,595.92,303.32Z"/><path class="cls-8" d="M605.21,301.79a3.26,3.26,0,0,1,1.11,2h-2.24a1.2,1.2,0,0,0-.44-.75,1.34,1.34,0,0,0-.86-.27,1,1,0,0,0-.61.17.63.63,0,0,0-.21.5.58.58,0,0,0,.38.55,6.26,6.26,0,0,0,1.21.36,10.86,10.86,0,0,1,1.47.43,2.46,2.46,0,0,1,1,.7,2,2,0,0,1,.42,1.32,2,2,0,0,1-.37,1.19,2.29,2.29,0,0,1-1.05.81,4,4,0,0,1-1.62.3,4.25,4.25,0,0,1-2.54-.7,3,3,0,0,1-1.16-2H602a1.06,1.06,0,0,0,.43.78,1.67,1.67,0,0,0,1,.26.86.86,0,0,0,.61-.19.62.62,0,0,0,.21-.49.6.6,0,0,0-.38-.59,8,8,0,0,0-1.25-.37,9.74,9.74,0,0,1-1.43-.39,2.35,2.35,0,0,1-1-.68,1.89,1.89,0,0,1-.4-1.28,2.08,2.08,0,0,1,.79-1.7,3.54,3.54,0,0,1,2.26-.65A3.59,3.59,0,0,1,605.21,301.79Z"/><path class="cls-8" d="M612.19,306.9V309h-1.08a3.11,3.11,0,0,1-2.13-.68,2.87,2.87,0,0,1-.77-2.25v-2.87h-1.05v-2h1.05v-1.92h2.4v1.92h1.57v2h-1.57v2.92a.86.86,0,0,0,.19.64.88.88,0,0,0,.63.18Z"/><path class="cls-8" d="M618,301.46a2.37,2.37,0,0,1,1,1.1v-1.41h2.38V309H619v-1.41a2.42,2.42,0,0,1-1,1.1,2.83,2.83,0,0,1-1.54.41,3.12,3.12,0,0,1-1.73-.49,3.22,3.22,0,0,1-1.2-1.39,4.77,4.77,0,0,1-.44-2.13,4.71,4.71,0,0,1,.44-2.13,3.28,3.28,0,0,1,1.2-1.39,3.19,3.19,0,0,1,1.73-.48A2.75,2.75,0,0,1,618,301.46Zm-2,2.19a2,2,0,0,0-.47,1.4,2,2,0,0,0,.47,1.4,1.61,1.61,0,0,0,1.24.51,1.63,1.63,0,0,0,1.24-.52,2.25,2.25,0,0,0,0-2.78,1.77,1.77,0,0,0-2.48,0Z"/><path class="cls-8" d="M628.24,301.79a3.26,3.26,0,0,1,1.11,2h-2.24a1.2,1.2,0,0,0-.44-.75,1.34,1.34,0,0,0-.86-.27.94.94,0,0,0-.61.17.63.63,0,0,0-.21.5.58.58,0,0,0,.38.55,6.26,6.26,0,0,0,1.21.36,10.86,10.86,0,0,1,1.47.43,2.37,2.37,0,0,1,1,.7,1.92,1.92,0,0,1,.42,1.32,2,2,0,0,1-.36,1.19,2.29,2.29,0,0,1-1.05.81,4,4,0,0,1-1.62.3,4.25,4.25,0,0,1-2.54-.7,3,3,0,0,1-1.16-2H625a1.06,1.06,0,0,0,.43.78,1.67,1.67,0,0,0,1,.26.86.86,0,0,0,.61-.19.62.62,0,0,0,.21-.49.61.61,0,0,0-.38-.59,8,8,0,0,0-1.25-.37,9.74,9.74,0,0,1-1.43-.39,2.35,2.35,0,0,1-1-.68,1.89,1.89,0,0,1-.4-1.28,2.08,2.08,0,0,1,.79-1.7,3.54,3.54,0,0,1,2.26-.65A3.59,3.59,0,0,1,628.24,301.79Z"/><path class="cls-8" d="M638.1,301.46a2.37,2.37,0,0,1,.95,1.1v-1.41h2.38V309h-2.38v-1.41a2.42,2.42,0,0,1-.95,1.1,2.83,2.83,0,0,1-1.54.41,3.12,3.12,0,0,1-1.73-.49,3.29,3.29,0,0,1-1.2-1.39,4.91,4.91,0,0,1-.44-2.13,4.85,4.85,0,0,1,.44-2.13,3.35,3.35,0,0,1,1.2-1.39,3.19,3.19,0,0,1,1.73-.48A2.75,2.75,0,0,1,638.1,301.46Zm-2,2.19a2,2,0,0,0-.47,1.4,2,2,0,0,0,.47,1.4,1.75,1.75,0,0,0,2.48,0,2.25,2.25,0,0,0,0-2.78,1.62,1.62,0,0,0-1.24-.51A1.65,1.65,0,0,0,636.09,303.65Z"/><path class="cls-8" d="M649.15,301.88a3.73,3.73,0,0,1,1.29,2.29H647.9a1.32,1.32,0,0,0-.46-.78,1.35,1.35,0,0,0-.88-.28,1.28,1.28,0,0,0-1,.49,2.28,2.28,0,0,0-.4,1.45,2.24,2.24,0,0,0,.4,1.45,1.29,1.29,0,0,0,1,.5,1.28,1.28,0,0,0,1.34-1.07h2.54a3.68,3.68,0,0,1-1.29,2.29,3.87,3.87,0,0,1-2.54.84,4.09,4.09,0,0,1-2-.49,3.47,3.47,0,0,1-1.4-1.39,4.41,4.41,0,0,1-.5-2.13,4.35,4.35,0,0,1,.5-2.13,3.38,3.38,0,0,1,1.39-1.39,4.27,4.27,0,0,1,2-.48A3.92,3.92,0,0,1,649.15,301.88Z"/><path class="cls-8" d="M656.11,306.9V309H655a3.12,3.12,0,0,1-2.14-.68,2.87,2.87,0,0,1-.76-2.25v-2.87h-1v-2h1v-1.92h2.39v1.92h1.57v2h-1.57v2.92a.9.9,0,0,0,.19.64.92.92,0,0,0,.64.18Z"/><path class="cls-8" d="M665.22,301.15V309h-2.41v-1.41a2.62,2.62,0,0,1-1,1.09,2.91,2.91,0,0,1-1.55.4,2.73,2.73,0,0,1-2.13-.89,3.59,3.59,0,0,1-.79-2.47v-4.53h2.38v4.24a1.78,1.78,0,0,0,.41,1.24,1.64,1.64,0,0,0,2.26,0,1.9,1.9,0,0,0,.42-1.32v-4.14Z"/><path class="cls-8" d="M671.38,301.46a2.37,2.37,0,0,1,1,1.1v-1.41h2.38V309h-2.38v-1.41a2.42,2.42,0,0,1-1,1.1,2.83,2.83,0,0,1-1.54.41,3.12,3.12,0,0,1-1.73-.49,3.22,3.22,0,0,1-1.2-1.39,4.77,4.77,0,0,1-.44-2.13,4.71,4.71,0,0,1,.44-2.13,3.28,3.28,0,0,1,1.2-1.39,3.19,3.19,0,0,1,1.73-.48A2.75,2.75,0,0,1,671.38,301.46Zm-2,2.19a2,2,0,0,0-.47,1.4,2,2,0,0,0,.47,1.4,1.61,1.61,0,0,0,1.24.51,1.64,1.64,0,0,0,1.24-.52,2.25,2.25,0,0,0,0-2.78,1.77,1.77,0,0,0-2.48,0Z"/><path class="cls-8" d="M678.76,298.6V309h-2.4V298.6Z"/><path class="cls-8" d="M687.76,305.49h-5.42a1.79,1.79,0,0,0,.45,1.26,1.44,1.44,0,0,0,1,.39,1.42,1.42,0,0,0,.88-.27,1.24,1.24,0,0,0,.46-.68h2.53a3.19,3.19,0,0,1-.67,1.47,3.52,3.52,0,0,1-1.31,1,4.33,4.33,0,0,1-1.78.37,4.11,4.11,0,0,1-2-.49,3.38,3.38,0,0,1-1.39-1.39,4.3,4.3,0,0,1-.51-2.13,4.35,4.35,0,0,1,.5-2.13,3.44,3.44,0,0,1,1.39-1.39,4.28,4.28,0,0,1,2.05-.48,4.32,4.32,0,0,1,2,.47,3.4,3.4,0,0,1,1.37,1.34,4,4,0,0,1,.48,2A3.14,3.14,0,0,1,687.76,305.49ZM685,303.32a1.57,1.57,0,0,0-1.06-.38,1.55,1.55,0,0,0-1.09.39,1.6,1.6,0,0,0-.49,1.15h3A1.47,1.47,0,0,0,685,303.32Z"/><path class="cls-8" d="M694.29,301.79a3.26,3.26,0,0,1,1.11,2h-2.24a1.2,1.2,0,0,0-.44-.75,1.34,1.34,0,0,0-.86-.27,1,1,0,0,0-.61.17.63.63,0,0,0-.21.5.58.58,0,0,0,.38.55,6.26,6.26,0,0,0,1.21.36,10.86,10.86,0,0,1,1.47.43,2.46,2.46,0,0,1,1,.7,2,2,0,0,1,.42,1.32,2,2,0,0,1-.37,1.19,2.29,2.29,0,0,1-1,.81,4,4,0,0,1-1.62.3,4.25,4.25,0,0,1-2.54-.7,3,3,0,0,1-1.16-2h2.31a1.06,1.06,0,0,0,.43.78,1.67,1.67,0,0,0,1,.26.86.86,0,0,0,.61-.19.62.62,0,0,0,.21-.49.6.6,0,0,0-.38-.59,8,8,0,0,0-1.25-.37,9.74,9.74,0,0,1-1.43-.39,2.35,2.35,0,0,1-1-.68,1.89,1.89,0,0,1-.4-1.28,2.08,2.08,0,0,1,.79-1.7,3.54,3.54,0,0,1,2.26-.65A3.59,3.59,0,0,1,694.29,301.79Z"/><path class="cls-8" d="M698.9,306.56V309h-2.47v-2.4Z"/></g></svg>