<svg xmlns="http://www.w3.org/2000/svg" viewBox="0 0 1140 2481"><defs><style>.cls-1,.cls-2,.cls-3{fill:#fff;stroke:#000;stroke-miterlimit:10;}.cls-1{stroke-width:1.57px;}.cls-2{stroke-width:1.82px;}.cls-3{stroke-width:2.29px;}.cls-4{font-size:24px;font-family:Poppins-Bold, Poppins;font-weight:700;}.cls-5{font-size:22px;}.cls-22,.cls-5{font-family:Poppins-Regular, Poppins;}.cls-6{letter-spacing:0.02em;}.cls-7{letter-spacing:0.02em;}.cls-8{letter-spacing:0.02em;}.cls-9{letter-spacing:0.28em;}.cls-10{letter-spacing:0.28em;}.cls-11{letter-spacing:-0.01em;}.cls-12{letter-spacing:-0.01em;}.cls-13{letter-spacing:-0.01em;}.cls-14{letter-spacing:0.02em;}.cls-15{letter-spacing:0.02em;}.cls-16{letter-spacing:0.02em;}.cls-17{letter-spacing:-0.03em;}.cls-18{letter-spacing:-0.03em;}.cls-19{letter-spacing:0.02em;}.cls-20{letter-spacing:0.02em;}.cls-21{letter-spacing:0.02em;}.cls-22{font-size:27px;}.cls-23{fill:#e01919;}</style></defs><g id="Imagen"><rect class="cls-1" x="243.5" y="279.29" width="666" height="776.71"/><line class="cls-1" x1="243.5" y1="1056" x2="909.5" y2="279.29"/><line class="cls-1" x1="909.5" y1="1056" x2="243.5" y2="279.29"/><rect class="cls-2" x="243.01" y="1430.17" width="190.54" height="1010.83"/><line class="cls-2" x1="243.01" y1="2441" x2="433.55" y2="1430.17"/><line class="cls-2" x1="433.55" y1="2441" x2="243.01" y2="1430.17"/><rect class="cls-3" x="512.61" y="1697.37" width="410.26" height="743.43"/><line class="cls-3" x1="512.61" y1="2440.79" x2="922.87" y2="1697.37"/><line class="cls-3" x1="922.87" y1="2440.79" x2="512.61" y2="1697.37"/></g><g id="Texto"><text class="cls-4" transform="translate(404.45 72.93)">EFECTOS EN EL SER HUMANO</text><text class="cls-5" transform="translate(243.5 107.61)">Lorem<tspan class="cls-6" x="68.51" y="0"> </tspan><tspan x="74.43" y="0">ipsum</tspan><tspan class="cls-6" x="142.44" y="0"> </tspan><tspan x="148.36" y="0">dolor</tspan><tspan class="cls-7" x="205.14" y="0"> </tspan><tspan x="211.07" y="0">sit</tspan><tspan class="cls-8" x="235.86" y="0"> </tspan><tspan x="241.79" y="0">amet,</tspan><tspan class="cls-7" x="305.04" y="0"> </tspan><tspan x="310.96" y="0">consectetuer</tspan><tspan class="cls-8" x="457.94" y="0"> </tspan><tspan x="463.87" y="0">adipiscing</tspan><tspan class="cls-7" x="578" y="0"> </tspan><tspan x="583.93" y="0">elit,</tspan><tspan class="cls-8" x="620.14" y="0"> </tspan><tspan x="626.07" y="0">sed </tspan><tspan x="0" y="26.4">diam</tspan><tspan class="cls-9" x="57.51" y="26.4"> </tspan><tspan x="69.17" y="26.4">nonummy</tspan><tspan class="cls-10" x="183.27" y="26.4"> </tspan><tspan x="194.93" y="26.4">nibh</tspan><tspan class="cls-10" x="243.27" y="26.4"> </tspan><tspan x="254.93" y="26.4">euismod</tspan><tspan class="cls-10" x="350.81" y="26.4"> </tspan><tspan x="362.47" y="26.4">tincidunt</tspan><tspan class="cls-10" x="460.04" y="26.4"> </tspan><tspan x="471.71" y="26.4">ut</tspan><tspan class="cls-10" x="493.86" y="26.4"> </tspan><tspan x="505.52" y="26.4">laoreet</tspan><tspan class="cls-10" x="583.82" y="26.4"> </tspan><tspan x="595.49" y="26.4">dolore </tspan><tspan x="0" y="52.8">magna</tspan><tspan class="cls-11" x="81.27" y="52.8"> </tspan><tspan x="86.51" y="52.8">aliquam</tspan><tspan class="cls-12" x="178.01" y="52.8"> </tspan><tspan x="183.25" y="52.8">erat</tspan><tspan class="cls-13" x="228.46" y="52.8"> </tspan><tspan x="233.7" y="52.8">volutpat.</tspan><tspan class="cls-12" x="329.37" y="52.8"> </tspan><tspan x="334.61" y="52.8">Ut</tspan><tspan class="cls-13" x="357.36" y="52.8"> </tspan><tspan x="362.6" y="52.8">wisi</tspan><tspan class="cls-12" x="402.86" y="52.8"> </tspan><tspan x="408.1" y="52.8">enim</tspan><tspan class="cls-13" x="463.83" y="52.8"> </tspan><tspan x="469.07" y="52.8">ad</tspan><tspan class="cls-13" x="498.73" y="52.8"> </tspan><tspan x="503.97" y="52.8">minim</tspan><tspan class="cls-12" x="573.82" y="52.8"> </tspan><tspan x="579.06" y="52.8">veniam, </tspan><tspan x="0" y="79.2">quis</tspan><tspan class="cls-14" x="45.36" y="79.2"> </tspan><tspan x="51.15" y="79.2">nostrud</tspan><tspan class="cls-15" x="136.25" y="79.2"> </tspan><tspan x="142.04" y="79.2">exerci</tspan><tspan class="cls-16" x="207.93" y="79.2"> </tspan><tspan x="213.71" y="79.2">tation</tspan><tspan class="cls-14" x="278.46" y="79.2"> </tspan><tspan x="284.25" y="79.2">ullamcorper</tspan><tspan class="cls-14" x="419.35" y="79.2"> </tspan><tspan x="425.14" y="79.2">suscipit</tspan><tspan class="cls-14" x="508.96" y="79.2"> </tspan><tspan x="514.74" y="79.2">lobortis</tspan><tspan class="cls-16" x="596.32" y="79.2"> </tspan><tspan x="602.11" y="79.2">nisl</tspan><tspan class="cls-14" x="638.05" y="79.2"> </tspan><tspan x="643.84" y="79.2">ut </tspan><tspan x="0" y="105.6">aliquip</tspan><tspan class="cls-17" x="74.07" y="105.6"> </tspan><tspan x="78.88" y="105.6">ex</tspan><tspan class="cls-17" x="103.72" y="105.6"> </tspan><tspan x="108.52" y="105.6">ea</tspan><tspan class="cls-17" x="137.08" y="105.6"> </tspan><tspan x="141.89" y="105.6">commodo</tspan><tspan class="cls-17" x="258.09" y="105.6"> </tspan><tspan x="262.89" y="105.6">consequat.</tspan><tspan class="cls-18" x="385.52" y="105.6"> </tspan><tspan x="390.33" y="105.6">Duis</tspan><tspan class="cls-17" x="436.64" y="105.6"> </tspan><tspan x="441.44" y="105.6">autem</tspan><tspan class="cls-17" x="514.79" y="105.6"> </tspan><tspan x="519.59" y="105.6">vel</tspan><tspan class="cls-17" x="551.07" y="105.6"> </tspan><tspan x="555.88" y="105.6">eum</tspan><tspan class="cls-17" x="606.19" y="105.6"> </tspan><tspan x="611" y="105.6">iriure </tspan></text><text class="cls-4" transform="translate(435.54 1162.22)">PESTICIDAS EN CHILE</text><text class="cls-5" transform="translate(243.5 1212.64)">Lorem<tspan class="cls-19" x="68.51" y="0"> </tspan><tspan x="74.31" y="0">ipsum</tspan><tspan class="cls-19" x="142.31" y="0"> </tspan><tspan x="148.11" y="0">dolor</tspan><tspan class="cls-19" x="204.89" y="0"> </tspan><tspan x="210.7" y="0">sit</tspan><tspan class="cls-20" x="235.49" y="0"> </tspan><tspan x="241.29" y="0">amet,</tspan><tspan class="cls-21" x="304.54" y="0"> </tspan><tspan x="310.34" y="0">consectetuer</tspan><tspan class="cls-20" x="457.32" y="0"> </tspan><tspan x="463.12" y="0">adipiscing</tspan><tspan class="cls-21" x="577.26" y="0"> </tspan><tspan x="583.06" y="0">elit,</tspan><tspan class="cls-20" x="619.27" y="0"> </tspan><tspan x="625.07" y="0">sed </tspan><tspan x="0" y="26.4">diam nonummy nibh euismod tincidunt ut lao</tspan></text><text class="cls-22" transform="translate(676.27 1444.31)">Efecto </text><path d="M518.5,1500.06H524v1.56h-7.5v-15.51h2Z"/><path d="M534.64,1490.13a5.41,5.41,0,0,1,2.16,2.16,7.35,7.35,0,0,1,0,6.59,5.45,5.45,0,0,1-2.16,2.15,6.93,6.93,0,0,1-6.23,0,5.45,5.45,0,0,1-2.16-2.15,7.27,7.27,0,0,1,0-6.59,5.41,5.41,0,0,1,2.16-2.16,6.93,6.93,0,0,1,6.23,0Zm-5.1,1.5a3.66,3.66,0,0,0-1.48,1.49,5,5,0,0,0-.56,2.47,5,5,0,0,0,.56,2.45,3.66,3.66,0,0,0,1.48,1.49,4.37,4.37,0,0,0,4,0A3.58,3.58,0,0,0,535,1498a4.85,4.85,0,0,0,.56-2.45,4.91,4.91,0,0,0-.56-2.47,3.58,3.58,0,0,0-1.47-1.49,4.37,4.37,0,0,0-4,0Z"/><path d="M543.93,1490a5.14,5.14,0,0,1,2.73-.7v2.18h-.61a4.3,4.3,0,0,0-2.78.87,3.51,3.51,0,0,0-1.07,2.87v6.36h-2v-12.08h2V1492A4.41,4.41,0,0,1,543.93,1490Z"/><path d="M559.66,1496H550a4.21,4.21,0,0,0,1.17,3.1,3.85,3.85,0,0,0,2.72,1,3.92,3.92,0,0,0,2.43-.74,3.07,3.07,0,0,0,1.2-2h2.13a5,5,0,0,1-1,2.24,5.1,5.1,0,0,1-2,1.54,6.5,6.5,0,0,1-2.73.55,6.29,6.29,0,0,1-3.08-.74,5.24,5.24,0,0,1-2.1-2.15,7.52,7.52,0,0,1,0-6.59,5.21,5.21,0,0,1,2.1-2.16,6.29,6.29,0,0,1,3.08-.74,6.2,6.2,0,0,1,3.07.74,5.15,5.15,0,0,1,2,2,5.64,5.64,0,0,1,.69,2.77A5.89,5.89,0,0,1,559.66,1496Zm-2.37-3.21a3.21,3.21,0,0,0-1.39-1.34A4.1,4.1,0,0,0,554,1491a4,4,0,0,0-2.77,1,4.07,4.07,0,0,0-1.21,3h7.72A4.11,4.11,0,0,0,557.29,1492.8Z"/><path d="M580.62,1490.7a5.43,5.43,0,0,1,1.29,3.9v7h-2v-6.84a3.94,3.94,0,0,0-.86-2.73,3.1,3.1,0,0,0-2.39-1,3.27,3.27,0,0,0-2.54,1.05,4.38,4.38,0,0,0-1,3.07v6.4h-2v-6.84a3.89,3.89,0,0,0-.88-2.73,3.1,3.1,0,0,0-2.38-1,3.3,3.3,0,0,0-2.56,1.05,4.38,4.38,0,0,0-1,3.07v6.4h-2v-12.08h2v2.75a4,4,0,0,1,1.58-2.19,4.91,4.91,0,0,1,5.28,0,4.26,4.26,0,0,1,1.61,2.3,4.32,4.32,0,0,1,1.7-2.27,4.63,4.63,0,0,1,2.68-.81A4.45,4.45,0,0,1,580.62,1490.7Z"/><path d="M591.78,1485.11a1.61,1.61,0,0,1,2,0,1.26,1.26,0,0,1,0,1.78,1.61,1.61,0,0,1-2,0,1.26,1.26,0,0,1,0-1.78Zm2,4.43v12.08h-2v-12.08Z"/><path d="M606.5,1490.13a5.23,5.23,0,0,1,2,2.16,7.29,7.29,0,0,1,.71,3.3,7.22,7.22,0,0,1-.71,3.29,5.27,5.27,0,0,1-2,2.15,5.56,5.56,0,0,1-2.86.74,4.88,4.88,0,0,1-3-.89,4.49,4.49,0,0,1-1.69-2.34v8.8h-2v-17.8h2v3.08a4.49,4.49,0,0,1,1.69-2.34,4.88,4.88,0,0,1,3-.89A5.56,5.56,0,0,1,606.5,1490.13Zm-5.54,1.58a3.63,3.63,0,0,0-1.48,1.55,5,5,0,0,0-.53,2.33,4.9,4.9,0,0,0,.53,2.32,3.69,3.69,0,0,0,1.48,1.55,4.05,4.05,0,0,0,2.11.55,3.92,3.92,0,0,0,3-1.17,5.3,5.3,0,0,0,0-6.49,3.89,3.89,0,0,0-3-1.18A4.14,4.14,0,0,0,601,1491.71Z"/><path d="M618.87,1490.45a4.49,4.49,0,0,1,1.51,2.88h-1.91a2.85,2.85,0,0,0-.89-1.78,2.93,2.93,0,0,0-2-.69,2.47,2.47,0,0,0-1.68.52,1.72,1.72,0,0,0-.61,1.4,1.45,1.45,0,0,0,.41,1.06,2.65,2.65,0,0,0,1,.62,17.17,17.17,0,0,0,1.66.45,14.42,14.42,0,0,1,2.17.63,3.37,3.37,0,0,1,1.41,1,2.87,2.87,0,0,1,.58,1.89,3,3,0,0,1-1.11,2.4,4.52,4.52,0,0,1-3,.92,5.66,5.66,0,0,1-3.52-1,4.16,4.16,0,0,1-1.61-2.88h1.94a2.51,2.51,0,0,0,1,1.78,3.47,3.47,0,0,0,2.23.68,2.29,2.29,0,0,0,1.62-.53,1.76,1.76,0,0,0,.58-1.38,1.49,1.49,0,0,0-.42-1.12,2.65,2.65,0,0,0-1-.64,14.27,14.27,0,0,0-1.7-.46,18.62,18.62,0,0,1-2.14-.62,3.24,3.24,0,0,1-1.36-1,2.7,2.7,0,0,1-.56-1.81,3,3,0,0,1,1.12-2.46,4.63,4.63,0,0,1,3.05-.93A4.87,4.87,0,0,1,618.87,1490.45Z"/><path d="M633.91,1489.54v12.08h-2v-2.84a4.11,4.11,0,0,1-1.64,2.26,4.84,4.84,0,0,1-2.74.78,4.47,4.47,0,0,1-3.39-1.36,5.4,5.4,0,0,1-1.3-3.88v-7h2v6.84a3.94,3.94,0,0,0,.92,2.79,3.3,3.3,0,0,0,2.51,1,3.44,3.44,0,0,0,2.64-1.07,4.43,4.43,0,0,0,1-3.12v-6.42Z"/><path d="M655.37,1490.7a5.43,5.43,0,0,1,1.29,3.9v7h-2v-6.84a3.89,3.89,0,0,0-.87-2.73,3.1,3.1,0,0,0-2.39-1,3.27,3.27,0,0,0-2.54,1.05,4.38,4.38,0,0,0-1,3.07v6.4h-2v-6.84a3.85,3.85,0,0,0-.88-2.73,3.1,3.1,0,0,0-2.38-1,3.3,3.3,0,0,0-2.56,1.05,4.38,4.38,0,0,0-1,3.07v6.4h-2v-12.08h2v2.75a4,4,0,0,1,1.58-2.19,4.91,4.91,0,0,1,5.28,0,4.26,4.26,0,0,1,1.61,2.3,4.37,4.37,0,0,1,1.7-2.27,4.65,4.65,0,0,1,2.68-.81A4.45,4.45,0,0,1,655.37,1490.7Z"/><path d="M674.44,1490.27a4.52,4.52,0,0,1,1.71,2.35v-7.28h2v16.28h-2v-3.08a4.52,4.52,0,0,1-1.71,2.35,4.94,4.94,0,0,1-3,.88,5.56,5.56,0,0,1-2.86-.74,5.27,5.27,0,0,1-2-2.15,7.22,7.22,0,0,1-.71-3.29,7.29,7.29,0,0,1,.71-3.3,5.23,5.23,0,0,1,2-2.16,5.56,5.56,0,0,1,2.86-.74A4.94,4.94,0,0,1,674.44,1490.27Zm-5.36,2.08a5.26,5.26,0,0,0,0,6.49A3.87,3.87,0,0,0,672,1500a4.1,4.1,0,0,0,2.13-.55,3.77,3.77,0,0,0,1.46-1.55,4.9,4.9,0,0,0,.53-2.32,5,5,0,0,0-.53-2.33,3.71,3.71,0,0,0-1.46-1.55,4.19,4.19,0,0,0-2.13-.54A3.84,3.84,0,0,0,669.08,1492.35Z"/><path d="M689.93,1490.13a5.35,5.35,0,0,1,2.16,2.16,7.35,7.35,0,0,1,0,6.59,5.38,5.38,0,0,1-2.16,2.15,6.91,6.91,0,0,1-6.22,0,5.47,5.47,0,0,1-2.17-2.15,7.27,7.27,0,0,1,0-6.59,5.43,5.43,0,0,1,2.17-2.16,6.91,6.91,0,0,1,6.22,0Zm-5.1,1.5a3.66,3.66,0,0,0-1.48,1.49,5,5,0,0,0-.56,2.47,5,5,0,0,0,.56,2.45,3.66,3.66,0,0,0,1.48,1.49,4.37,4.37,0,0,0,4,0,3.58,3.58,0,0,0,1.47-1.49,4.85,4.85,0,0,0,.56-2.45,4.91,4.91,0,0,0-.56-2.47,3.58,3.58,0,0,0-1.47-1.49,4.37,4.37,0,0,0-4,0Z"/><path d="M697.49,1485.34v16.28h-2v-16.28Z"/><path d="M709.29,1490.13a5.35,5.35,0,0,1,2.16,2.16,7.35,7.35,0,0,1,0,6.59,5.38,5.38,0,0,1-2.16,2.15,6.91,6.91,0,0,1-6.22,0,5.47,5.47,0,0,1-2.17-2.15,7.27,7.27,0,0,1,0-6.59,5.43,5.43,0,0,1,2.17-2.16,6.91,6.91,0,0,1,6.22,0Zm-5.1,1.5a3.66,3.66,0,0,0-1.48,1.49,5,5,0,0,0-.56,2.47,5,5,0,0,0,.56,2.45,3.66,3.66,0,0,0,1.48,1.49,4.37,4.37,0,0,0,4,0,3.58,3.58,0,0,0,1.47-1.49,4.85,4.85,0,0,0,.56-2.45,4.91,4.91,0,0,0-.56-2.47,3.58,3.58,0,0,0-1.47-1.49,4.37,4.37,0,0,0-4,0Z"/><path d="M718.59,1490a5.08,5.08,0,0,1,2.72-.7v2.18h-.61a4.25,4.25,0,0,0-2.77.87,3.48,3.48,0,0,0-1.08,2.87v6.36h-2v-12.08h2V1492A4.37,4.37,0,0,1,718.59,1490Z"/><path d="M737.12,1490.45a4.48,4.48,0,0,1,1.5,2.88h-1.91a2.8,2.8,0,0,0-.89-1.78,2.92,2.92,0,0,0-2-.69,2.49,2.49,0,0,0-1.69.52,1.74,1.74,0,0,0-.6,1.4,1.44,1.44,0,0,0,.4,1.06,2.62,2.62,0,0,0,1,.62,15.68,15.68,0,0,0,1.66.45,14.6,14.6,0,0,1,2.16.63,3.37,3.37,0,0,1,1.41,1,2.87,2.87,0,0,1,.58,1.89,3,3,0,0,1-1.11,2.4,4.49,4.49,0,0,1-3,.92,5.69,5.69,0,0,1-3.53-1,4.15,4.15,0,0,1-1.6-2.88h1.93a2.58,2.58,0,0,0,1,1.78,3.5,3.5,0,0,0,2.24.68,2.28,2.28,0,0,0,1.61-.53,1.76,1.76,0,0,0,.58-1.38,1.49,1.49,0,0,0-.41-1.12,2.69,2.69,0,0,0-1-.64,14,14,0,0,0-1.69-.46,18.28,18.28,0,0,1-2.15-.62,3.3,3.3,0,0,1-1.36-1,2.76,2.76,0,0,1-.56-1.81,3,3,0,0,1,1.12-2.46,4.66,4.66,0,0,1,3.06-.93A4.89,4.89,0,0,1,737.12,1490.45Z"/><path d="M741.44,1485.11a1.61,1.61,0,0,1,2,0,1.26,1.26,0,0,1,0,1.78,1.61,1.61,0,0,1-2,0,1.26,1.26,0,0,1,0-1.78Zm2,4.43v12.08h-2v-12.08Z"/><path d="M752.4,1499.86v1.76h-1.5a3.83,3.83,0,0,1-2.76-.88,4,4,0,0,1-.91-3v-6.51h-1.81v-1.74h1.81v-3h2v3h3.12v1.74h-3.12v6.55a2.26,2.26,0,0,0,.43,1.6,2,2,0,0,0,1.48.43Z"/><path d="M769.52,1490.27a4.63,4.63,0,0,1,1.71,2.35v-3.08h2v12.08h-2v-3.08a4.63,4.63,0,0,1-1.71,2.35,4.94,4.94,0,0,1-3,.88,5.56,5.56,0,0,1-2.86-.74,5.2,5.2,0,0,1-2-2.15,8,8,0,0,1,0-6.59,5.17,5.17,0,0,1,2-2.16,5.56,5.56,0,0,1,2.86-.74A4.94,4.94,0,0,1,769.52,1490.27Zm-5.37,2.08a5.3,5.3,0,0,0,0,6.49,3.89,3.89,0,0,0,3,1.17,4.06,4.06,0,0,0,2.12-.55,3.73,3.73,0,0,0,1.47-1.55,4.9,4.9,0,0,0,.53-2.32,5,5,0,0,0-.53-2.33,3.67,3.67,0,0,0-1.47-1.55,4.15,4.15,0,0,0-2.12-.54A3.86,3.86,0,0,0,764.15,1492.35Z"/><path d="M794.67,1490.7a5.47,5.47,0,0,1,1.28,3.9v7h-2v-6.84a3.89,3.89,0,0,0-.87-2.73,3.07,3.07,0,0,0-2.38-1,3.29,3.29,0,0,0-2.55,1.05,4.43,4.43,0,0,0-.95,3.07v6.4h-2v-6.84a3.89,3.89,0,0,0-.88-2.73,3.1,3.1,0,0,0-2.38-1,3.28,3.28,0,0,0-2.56,1.05,4.38,4.38,0,0,0-1,3.07v6.4h-2v-12.08h2v2.75a4,4,0,0,1,1.57-2.19,4.65,4.65,0,0,1,2.61-.76,4.57,4.57,0,0,1,2.67.78,4.22,4.22,0,0,1,1.62,2.3,4.36,4.36,0,0,1,1.69-2.27,4.68,4.68,0,0,1,2.69-.81A4.45,4.45,0,0,1,794.67,1490.7Z"/><path d="M810.08,1496h-9.66a4.22,4.22,0,0,0,1.18,3.1,3.83,3.83,0,0,0,2.71,1,3.92,3.92,0,0,0,2.43-.74,3,3,0,0,0,1.2-2h2.14a5.15,5.15,0,0,1-1,2.24,5,5,0,0,1-2,1.54,6.5,6.5,0,0,1-2.73.55,6.32,6.32,0,0,1-3.08-.74,5.37,5.37,0,0,1-2.1-2.15,7.52,7.52,0,0,1,0-6.59,5.33,5.33,0,0,1,2.1-2.16,6.32,6.32,0,0,1,3.08-.74,6.17,6.17,0,0,1,3.07.74,5.15,5.15,0,0,1,2,2,5.64,5.64,0,0,1,.7,2.77A5.89,5.89,0,0,1,810.08,1496Zm-2.38-3.21a3.24,3.24,0,0,0-1.38-1.34,4.17,4.17,0,0,0-1.92-.44,4,4,0,0,0-2.77,1,4.11,4.11,0,0,0-1.21,3h7.72A4,4,0,0,0,807.7,1492.8Z"/><path d="M818.55,1499.86v1.76h-1.5a3.83,3.83,0,0,1-2.76-.88,4,4,0,0,1-.91-3v-6.51h-1.81v-1.74h1.81v-3h2v3h3.12v1.74H815.4v6.55a2.26,2.26,0,0,0,.43,1.6,2,2,0,0,0,1.48.43Z"/><path d="M822.46,1502a2.83,2.83,0,0,1-.57,1.84,2.1,2.1,0,0,1-1.72.69v-.86a1,1,0,0,0,.81-.3,1.4,1.4,0,0,0,.25-.93v-.2h-1.12v-2h2A6.05,6.05,0,0,1,822.46,1502Z"/><path d="M840.76,1490.62a5.2,5.2,0,0,1,1.87,3.3h-2.11a3.13,3.13,0,0,0-1.2-2,4.26,4.26,0,0,0-4.35-.25,3.49,3.49,0,0,0-1.4,1.49,5.25,5.25,0,0,0-.53,2.47,5.32,5.32,0,0,0,.53,2.48,3.52,3.52,0,0,0,1.4,1.48,4.17,4.17,0,0,0,4.35-.26,3.16,3.16,0,0,0,1.2-2h2.11a5.17,5.17,0,0,1-1.87,3.31,5.88,5.88,0,0,1-3.83,1.22,6.35,6.35,0,0,1-3.08-.74,5.37,5.37,0,0,1-2.1-2.15,7.52,7.52,0,0,1,0-6.59,5.33,5.33,0,0,1,2.1-2.16,6.35,6.35,0,0,1,3.08-.74A5.89,5.89,0,0,1,840.76,1490.62Z"/><path d="M853.84,1490.13a5.35,5.35,0,0,1,2.16,2.16,7.35,7.35,0,0,1,0,6.59,5.38,5.38,0,0,1-2.16,2.15,6.91,6.91,0,0,1-6.22,0,5.47,5.47,0,0,1-2.17-2.15,7.27,7.27,0,0,1,0-6.59,5.43,5.43,0,0,1,2.17-2.16,6.91,6.91,0,0,1,6.22,0Zm-5.1,1.5a3.66,3.66,0,0,0-1.48,1.49,5,5,0,0,0-.56,2.47,5,5,0,0,0,.56,2.45,3.66,3.66,0,0,0,1.48,1.49,4.37,4.37,0,0,0,4,0,3.58,3.58,0,0,0,1.47-1.49,4.85,4.85,0,0,0,.56-2.45,4.91,4.91,0,0,0-.56-2.47,3.58,3.58,0,0,0-1.47-1.49,4.37,4.37,0,0,0-4,0Z"/><path d="M869.16,1490.7a5.39,5.39,0,0,1,1.3,3.9v7h-2v-6.84a3.9,3.9,0,0,0-.92-2.78,3.34,3.34,0,0,0-2.51-1,3.43,3.43,0,0,0-2.64,1.06,4.44,4.44,0,0,0-1,3.12v6.4h-2v-12.08h2v2.86a4.13,4.13,0,0,1,1.64-2.27,4.79,4.79,0,0,1,2.71-.79A4.47,4.47,0,0,1,869.16,1490.7Z"/><path d="M880.61,1490.45a4.49,4.49,0,0,1,1.51,2.88h-1.91a2.85,2.85,0,0,0-.89-1.78,2.93,2.93,0,0,0-2-.69,2.47,2.47,0,0,0-1.68.52,1.75,1.75,0,0,0-.61,1.4,1.45,1.45,0,0,0,.41,1.06,2.65,2.65,0,0,0,1,.62,17.17,17.17,0,0,0,1.66.45,14.42,14.42,0,0,1,2.17.63,3.37,3.37,0,0,1,1.41,1,2.87,2.87,0,0,1,.58,1.89,3,3,0,0,1-1.11,2.4,4.52,4.52,0,0,1-3,.92,5.66,5.66,0,0,1-3.52-1,4.11,4.11,0,0,1-1.6-2.88H875a2.51,2.51,0,0,0,1,1.78,3.47,3.47,0,0,0,2.23.68,2.29,2.29,0,0,0,1.62-.53,1.76,1.76,0,0,0,.58-1.38,1.49,1.49,0,0,0-.42-1.12,2.58,2.58,0,0,0-1-.64,14.57,14.57,0,0,0-1.69-.46,18.28,18.28,0,0,1-2.15-.62,3.3,3.3,0,0,1-1.36-1,2.7,2.7,0,0,1-.56-1.81,3,3,0,0,1,1.12-2.46,4.66,4.66,0,0,1,3.06-.93A4.85,4.85,0,0,1,880.61,1490.45Z"/><path d="M895.94,1496h-9.66a4.22,4.22,0,0,0,1.18,3.1,3.83,3.83,0,0,0,2.71,1,3.92,3.92,0,0,0,2.43-.74,3,3,0,0,0,1.2-2h2.14a5.15,5.15,0,0,1-1,2.24,5,5,0,0,1-2,1.54,6.5,6.5,0,0,1-2.73.55,6.32,6.32,0,0,1-3.08-.74,5.37,5.37,0,0,1-2.1-2.15,7.52,7.52,0,0,1,0-6.59,5.33,5.33,0,0,1,2.1-2.16,6.32,6.32,0,0,1,3.08-.74,6.17,6.17,0,0,1,3.07.74,5.15,5.15,0,0,1,2,2,5.64,5.64,0,0,1,.7,2.77A5.89,5.89,0,0,1,895.94,1496Zm-2.38-3.21a3.24,3.24,0,0,0-1.38-1.34,4.17,4.17,0,0,0-1.92-.44,4,4,0,0,0-2.77,1,4.11,4.11,0,0,0-1.21,3H894A4,4,0,0,0,893.56,1492.8Z"/><path d="M907.82,1490.62a5.24,5.24,0,0,1,1.87,3.3h-2.11a3.13,3.13,0,0,0-1.2-2,4,4,0,0,0-2.43-.73,3.92,3.92,0,0,0-1.93.48,3.55,3.55,0,0,0-1.4,1.49,5.25,5.25,0,0,0-.53,2.47,5.32,5.32,0,0,0,.53,2.48,3.59,3.59,0,0,0,1.4,1.48,4.19,4.19,0,0,0,4.36-.26,3.16,3.16,0,0,0,1.2-2h2.11a5.22,5.22,0,0,1-1.87,3.31,5.9,5.9,0,0,1-3.83,1.22,6.29,6.29,0,0,1-3.08-.74,5.24,5.24,0,0,1-2.1-2.15,7.52,7.52,0,0,1,0-6.59,5.21,5.21,0,0,1,2.1-2.16,6.29,6.29,0,0,1,3.08-.74A5.9,5.9,0,0,1,907.82,1490.62Z"/><path d="M919.17,1492.71v1.69h-8.8v-1.69Z"/><path d="M522.26,1526.26V1528h-1.49a3.83,3.83,0,0,1-2.76-.88,4,4,0,0,1-.92-3v-6.51h-1.8v-1.74h1.8v-3h2v3h3.12v1.74h-3.12v6.56a2.24,2.24,0,0,0,.43,1.59,2,2,0,0,0,1.48.43Z"/><path d="M535.73,1522.41h-9.66a4.22,4.22,0,0,0,1.18,3.1,3.83,3.83,0,0,0,2.71,1,4,4,0,0,0,2.44-.74,3,3,0,0,0,1.19-2h2.14a5.15,5.15,0,0,1-1,2.24,5,5,0,0,1-2,1.54,6.5,6.5,0,0,1-2.73.55,6.32,6.32,0,0,1-3.08-.74,5.37,5.37,0,0,1-2.1-2.15,7.52,7.52,0,0,1,0-6.59,5.24,5.24,0,0,1,2.1-2.15,6.22,6.22,0,0,1,3.08-.75,6,6,0,0,1,3.07.75,5.06,5.06,0,0,1,2,2,5.64,5.64,0,0,1,.7,2.77A5.81,5.81,0,0,1,535.73,1522.41Zm-2.38-3.21a3.24,3.24,0,0,0-1.38-1.34,4.17,4.17,0,0,0-1.92-.44,4,4,0,0,0-2.77,1,4.11,4.11,0,0,0-1.21,3h7.72A4,4,0,0,0,533.35,1519.2Z"/><path d="M544.2,1526.26V1528h-1.5a3.83,3.83,0,0,1-2.76-.88,4,4,0,0,1-.91-3v-6.51h-1.81v-1.74H539v-3h2v3h3.13v1.74h-3.13v6.56a2.29,2.29,0,0,0,.43,1.59,2.06,2.06,0,0,0,1.49.43Z"/><path d="M557.38,1515.94V1528h-2v-2.84a4.05,4.05,0,0,1-1.63,2.26,4.86,4.86,0,0,1-2.74.78,4.44,4.44,0,0,1-3.39-1.36,5.35,5.35,0,0,1-1.3-3.88v-7h2v6.84a3.9,3.9,0,0,0,.93,2.79,3.28,3.28,0,0,0,2.5,1,3.44,3.44,0,0,0,2.64-1.07,4.42,4.42,0,0,0,1-3.11v-6.43Z"/><path d="M571.61,1522.41H562a4.26,4.26,0,0,0,1.18,3.1,3.85,3.85,0,0,0,2.72,1,4,4,0,0,0,2.43-.74,3.07,3.07,0,0,0,1.2-2h2.13a5,5,0,0,1-3,3.78,6.46,6.46,0,0,1-2.73.55,6.35,6.35,0,0,1-3.08-.74,5.37,5.37,0,0,1-2.1-2.15,7.52,7.52,0,0,1,0-6.59,5.24,5.24,0,0,1,2.1-2.15,6.24,6.24,0,0,1,3.08-.75,6,6,0,0,1,3.07.75,5,5,0,0,1,2,2,5.54,5.54,0,0,1,.7,2.77A5.81,5.81,0,0,1,571.61,1522.41Zm-2.38-3.21a3.18,3.18,0,0,0-1.38-1.34,4.17,4.17,0,0,0-1.92-.44,4,4,0,0,0-2.77,1,4.11,4.11,0,0,0-1.21,3h7.72A4,4,0,0,0,569.23,1519.2Z"/><path d="M578.06,1516.44a5.08,5.08,0,0,1,2.72-.7v2.18h-.61a4.25,4.25,0,0,0-2.77.87,3.48,3.48,0,0,0-1.08,2.87V1528h-2v-12.08h2v2.44A4.37,4.37,0,0,1,578.06,1516.44Z"/><path d="M601.39,1516.67a4.56,4.56,0,0,1,1.7,2.35v-3.08h2V1528h-2v-3.08a4.56,4.56,0,0,1-1.7,2.35,5,5,0,0,1-3,.88,5.54,5.54,0,0,1-2.86-.74,5.14,5.14,0,0,1-2-2.15,7.09,7.09,0,0,1-.72-3.29,7.16,7.16,0,0,1,.72-3.3,5,5,0,0,1,2-2.15,5.45,5.45,0,0,1,2.86-.75A5,5,0,0,1,601.39,1516.67Zm-5.37,2.08a5.3,5.3,0,0,0,0,6.49,3.89,3.89,0,0,0,3,1.17,4.06,4.06,0,0,0,2.12-.55,3.79,3.79,0,0,0,1.47-1.55,4.9,4.9,0,0,0,.52-2.32,5,5,0,0,0-.52-2.33,3.79,3.79,0,0,0-1.47-1.55,4.15,4.15,0,0,0-2.12-.54A3.86,3.86,0,0,0,596,1518.75Z"/><path d="M616.22,1516.67a4.56,4.56,0,0,1,1.7,2.35v-7.28h2V1528h-2v-3.08a4.56,4.56,0,0,1-1.7,2.35,5,5,0,0,1-3,.88,5.54,5.54,0,0,1-2.86-.74,5.14,5.14,0,0,1-2-2.15,7.09,7.09,0,0,1-.72-3.29,7.16,7.16,0,0,1,.72-3.3,5,5,0,0,1,2-2.15,5.45,5.45,0,0,1,2.86-.75A5,5,0,0,1,616.22,1516.67Zm-5.37,2.08a5.3,5.3,0,0,0,0,6.49,3.89,3.89,0,0,0,3,1.17,4.06,4.06,0,0,0,2.12-.55,3.77,3.77,0,0,0,1.46-1.55,4.79,4.79,0,0,0,.53-2.32,4.85,4.85,0,0,0-.53-2.33,3.77,3.77,0,0,0-1.46-1.55,4.15,4.15,0,0,0-2.12-.54A3.86,3.86,0,0,0,610.85,1518.75Z"/><path d="M623.14,1511.51a1.37,1.37,0,0,1,1-.34,1.4,1.4,0,0,1,1,.34,1.26,1.26,0,0,1,0,1.78,1.4,1.4,0,0,1-1,.34,1.37,1.37,0,0,1-1-.34,1.23,1.23,0,0,1,0-1.78Zm2,4.43V1528h-2v-12.08Z"/><path d="M637.85,1516.54a5,5,0,0,1,2,2.15,7.16,7.16,0,0,1,.72,3.3,7.09,7.09,0,0,1-.72,3.29,5.14,5.14,0,0,1-2,2.15,5.54,5.54,0,0,1-2.86.74,4.9,4.9,0,0,1-3-.89,4.52,4.52,0,0,1-1.68-2.34v8.8h-2v-17.8h2V1519a4.52,4.52,0,0,1,1.68-2.34,4.9,4.9,0,0,1,3-.89A5.45,5.45,0,0,1,637.85,1516.54Zm-5.54,1.57a3.82,3.82,0,0,0-1.48,1.55,5,5,0,0,0-.52,2.33,4.9,4.9,0,0,0,.52,2.32,3.82,3.82,0,0,0,1.48,1.55,4.08,4.08,0,0,0,2.11.55,3.91,3.91,0,0,0,3-1.17,5.3,5.3,0,0,0,0-6.49,3.88,3.88,0,0,0-3-1.18A4.17,4.17,0,0,0,632.31,1518.11Z"/><path d="M643.18,1511.51a1.61,1.61,0,0,1,2,0,1.26,1.26,0,0,1,0,1.78,1.61,1.61,0,0,1-2,0,1.23,1.23,0,0,1,0-1.78Zm2,4.43V1528h-2v-12.08Z"/><path d="M655.44,1516.85a4.54,4.54,0,0,1,1.51,2.88H655a2.81,2.81,0,0,0-.9-1.78,2.89,2.89,0,0,0-2-.69,2.47,2.47,0,0,0-1.68.52,1.72,1.72,0,0,0-.61,1.4,1.43,1.43,0,0,0,.41,1.06,2.65,2.65,0,0,0,1,.62,16.4,16.4,0,0,0,1.66.45,14.42,14.42,0,0,1,2.17.63,3.37,3.37,0,0,1,1.41,1,2.87,2.87,0,0,1,.58,1.89,3,3,0,0,1-1.11,2.4,4.46,4.46,0,0,1-3,.92,5.66,5.66,0,0,1-3.52-1,4.12,4.12,0,0,1-1.61-2.88h1.94a2.51,2.51,0,0,0,1,1.78,3.47,3.47,0,0,0,2.23.68,2.29,2.29,0,0,0,1.62-.53,1.76,1.76,0,0,0,.58-1.38,1.49,1.49,0,0,0-.42-1.12,2.65,2.65,0,0,0-1-.64,14.27,14.27,0,0,0-1.7-.46,18,18,0,0,1-2.14-.62,3.33,3.33,0,0,1-1.37-1,2.76,2.76,0,0,1-.56-1.81,3.05,3.05,0,0,1,1.13-2.46,4.61,4.61,0,0,1,3-.93A4.87,4.87,0,0,1,655.44,1516.85Z"/><path d="M668.92,1517a5.24,5.24,0,0,1,1.87,3.3h-2.11a3.13,3.13,0,0,0-1.2-2,4,4,0,0,0-2.43-.73,3.92,3.92,0,0,0-1.93.48,3.55,3.55,0,0,0-1.4,1.49,5.25,5.25,0,0,0-.52,2.47,5.32,5.32,0,0,0,.52,2.48,3.59,3.59,0,0,0,1.4,1.48,4.19,4.19,0,0,0,4.36-.26,3.16,3.16,0,0,0,1.2-2h2.11a5.19,5.19,0,0,1-1.87,3.31,5.88,5.88,0,0,1-3.83,1.22,6.29,6.29,0,0,1-3.08-.74,5.24,5.24,0,0,1-2.1-2.15,7.52,7.52,0,0,1,0-6.59,5.13,5.13,0,0,1,2.1-2.15,6.19,6.19,0,0,1,3.08-.75A5.89,5.89,0,0,1,668.92,1517Z"/><path d="M673.43,1511.51a1.61,1.61,0,0,1,2,0,1.26,1.26,0,0,1,0,1.78,1.61,1.61,0,0,1-2,0,1.23,1.23,0,0,1,0-1.78Zm2,4.43V1528h-2v-12.08Z"/><path d="M688.39,1517.1a5.43,5.43,0,0,1,1.29,3.9v7h-2v-6.84a3.81,3.81,0,0,0-.92-2.77,3.29,3.29,0,0,0-2.51-1,3.43,3.43,0,0,0-2.64,1.06,4.44,4.44,0,0,0-1,3.12v6.4h-2v-12.08h2v2.86a4.11,4.11,0,0,1,1.64-2.26,4.73,4.73,0,0,1,2.72-.8A4.5,4.5,0,0,1,688.39,1517.1Z"/><path d="M700.7,1516.67a4.56,4.56,0,0,1,1.7,2.35v-3.08h2v12.28a6.15,6.15,0,0,1-.7,3,5.06,5.06,0,0,1-2,2,5.84,5.84,0,0,1-3,.73,6.38,6.38,0,0,1-4-1.18,5.16,5.16,0,0,1-2-3.18h2a3.39,3.39,0,0,0,1.33,1.9,4.2,4.2,0,0,0,2.52.7,3.68,3.68,0,0,0,2.69-1,3.89,3.89,0,0,0,1.07-2.91v-3.28a4.56,4.56,0,0,1-1.7,2.35,5,5,0,0,1-3,.88,5.56,5.56,0,0,1-2.86-.74,5.18,5.18,0,0,1-2-2.15,7.09,7.09,0,0,1-.72-3.29,7.16,7.16,0,0,1,.72-3.3,5.06,5.06,0,0,1,2-2.15,5.48,5.48,0,0,1,2.86-.75A5,5,0,0,1,700.7,1516.67Zm-5.37,2.08a5.3,5.3,0,0,0,0,6.49,3.88,3.88,0,0,0,3,1.17,4.06,4.06,0,0,0,2.12-.55,3.77,3.77,0,0,0,1.46-1.55,4.9,4.9,0,0,0,.53-2.32,5,5,0,0,0-.53-2.33,3.77,3.77,0,0,0-1.46-1.55,4.15,4.15,0,0,0-2.12-.54A3.85,3.85,0,0,0,695.33,1518.75Z"/><path d="M729.31,1522.41h-9.66a4.22,4.22,0,0,0,1.18,3.1,3.83,3.83,0,0,0,2.71,1,4,4,0,0,0,2.44-.74,3,3,0,0,0,1.19-2h2.14a5.15,5.15,0,0,1-1,2.24,5,5,0,0,1-2,1.54,6.5,6.5,0,0,1-2.73.55,6.32,6.32,0,0,1-3.08-.74,5.37,5.37,0,0,1-2.1-2.15,7.52,7.52,0,0,1,0-6.59,5.24,5.24,0,0,1,2.1-2.15,6.22,6.22,0,0,1,3.08-.75,6,6,0,0,1,3.07.75,5.06,5.06,0,0,1,2,2,5.54,5.54,0,0,1,.7,2.77A5.81,5.81,0,0,1,729.31,1522.41Zm-2.38-3.21a3.24,3.24,0,0,0-1.38-1.34,4.17,4.17,0,0,0-1.92-.44,4,4,0,0,0-2.77,1,4.11,4.11,0,0,0-1.21,3h7.72A4,4,0,0,0,726.93,1519.2Z"/><path d="M734,1511.74V1528h-2v-16.28Z"/><path d="M737.25,1511.51a1.61,1.61,0,0,1,2,0,1.26,1.26,0,0,1,0,1.78,1.61,1.61,0,0,1-2,0,1.26,1.26,0,0,1,0-1.78Zm2,4.43V1528h-2v-12.08Z"/><path d="M748.21,1526.26V1528h-1.5a3.83,3.83,0,0,1-2.76-.88,4,4,0,0,1-.91-3v-6.51h-1.81v-1.74H743v-3h2v3h3.12v1.74h-3.12v6.56a2.24,2.24,0,0,0,.43,1.59,2,2,0,0,0,1.48.43Z"/><path d="M752.12,1528.35a2.83,2.83,0,0,1-.57,1.84,2.1,2.1,0,0,1-1.72.69V1530a1,1,0,0,0,.81-.3,1.4,1.4,0,0,0,.25-.93v-.2h-1.12v-2h2A5.77,5.77,0,0,1,752.12,1528.35Z"/><path d="M772.26,1516.85a4.54,4.54,0,0,1,1.51,2.88h-1.91a2.81,2.81,0,0,0-.9-1.78,2.89,2.89,0,0,0-2-.69,2.47,2.47,0,0,0-1.68.52,1.72,1.72,0,0,0-.61,1.4,1.43,1.43,0,0,0,.41,1.06,2.65,2.65,0,0,0,1,.62,16.4,16.4,0,0,0,1.66.45,14.42,14.42,0,0,1,2.17.63,3.37,3.37,0,0,1,1.41,1,2.87,2.87,0,0,1,.58,1.89,3,3,0,0,1-1.11,2.4,4.46,4.46,0,0,1-3,.92,5.66,5.66,0,0,1-3.52-1,4.12,4.12,0,0,1-1.61-2.88h1.94a2.51,2.51,0,0,0,1,1.78,3.47,3.47,0,0,0,2.23.68,2.29,2.29,0,0,0,1.62-.53,1.76,1.76,0,0,0,.58-1.38,1.49,1.49,0,0,0-.42-1.12,2.65,2.65,0,0,0-1-.64,14.27,14.27,0,0,0-1.7-.46,18,18,0,0,1-2.14-.62,3.24,3.24,0,0,1-1.36-1,2.71,2.71,0,0,1-.57-1.81,3.05,3.05,0,0,1,1.13-2.46,4.61,4.61,0,0,1,3.05-.93A4.87,4.87,0,0,1,772.26,1516.85Z"/><path d="M787.59,1522.41h-9.66a4.18,4.18,0,0,0,1.18,3.1,3.83,3.83,0,0,0,2.71,1,3.92,3.92,0,0,0,2.43-.74,3,3,0,0,0,1.2-2h2.14a5,5,0,0,1-3,3.78,6.5,6.5,0,0,1-2.73.55,6.29,6.29,0,0,1-3.08-.74,5.37,5.37,0,0,1-2.1-2.15,7.52,7.52,0,0,1,0-6.59,5.24,5.24,0,0,1,2.1-2.15,6.19,6.19,0,0,1,3.08-.75,6.07,6.07,0,0,1,3.07.75,5.06,5.06,0,0,1,2,2,5.64,5.64,0,0,1,.69,2.77A6.89,6.89,0,0,1,787.59,1522.41Zm-2.38-3.21a3.21,3.21,0,0,0-1.39-1.34,4.1,4.1,0,0,0-1.91-.44,4,4,0,0,0-2.77,1,4.11,4.11,0,0,0-1.21,3h7.72A4.11,4.11,0,0,0,785.21,1519.2Z"/><path d="M798.22,1516.67a4.58,4.58,0,0,1,1.71,2.35v-7.28h2V1528h-2v-3.08a4.58,4.58,0,0,1-1.71,2.35,4.92,4.92,0,0,1-3,.88,5.56,5.56,0,0,1-2.86-.74,5.27,5.27,0,0,1-2-2.15,7.22,7.22,0,0,1-.71-3.29,7.29,7.29,0,0,1,.71-3.3,5.15,5.15,0,0,1,2-2.15,5.48,5.48,0,0,1,2.86-.75A4.92,4.92,0,0,1,798.22,1516.67Zm-5.37,2.08a5.3,5.3,0,0,0,0,6.49,3.89,3.89,0,0,0,3,1.17,4.1,4.1,0,0,0,2.13-.55,3.77,3.77,0,0,0,1.46-1.55,4.9,4.9,0,0,0,.53-2.32,5,5,0,0,0-.53-2.33,3.77,3.77,0,0,0-1.46-1.55,4.19,4.19,0,0,0-2.13-.54A3.86,3.86,0,0,0,792.85,1518.75Z"/><path d="M823.74,1516.67a4.58,4.58,0,0,1,1.71,2.35v-7.28h2V1528h-2v-3.08a4.58,4.58,0,0,1-1.71,2.35,4.92,4.92,0,0,1-3,.88,5.56,5.56,0,0,1-2.86-.74,5.27,5.27,0,0,1-2-2.15,7.22,7.22,0,0,1-.71-3.29,7.29,7.29,0,0,1,.71-3.3,5.15,5.15,0,0,1,2-2.15,5.48,5.48,0,0,1,2.86-.75A4.92,4.92,0,0,1,823.74,1516.67Zm-5.36,2.08a5.26,5.26,0,0,0,0,6.49,3.87,3.87,0,0,0,3,1.17,4.1,4.1,0,0,0,2.13-.55,3.77,3.77,0,0,0,1.46-1.55,4.9,4.9,0,0,0,.53-2.32,5,5,0,0,0-.53-2.33,3.77,3.77,0,0,0-1.46-1.55,4.19,4.19,0,0,0-2.13-.54A3.84,3.84,0,0,0,818.38,1518.75Z"/><path d="M830.66,1511.51a1.61,1.61,0,0,1,2,0,1.23,1.23,0,0,1,0,1.78,1.61,1.61,0,0,1-2,0,1.26,1.26,0,0,1,0-1.78Zm2,4.43V1528h-2v-12.08Z"/><path d="M843.79,1516.67a4.56,4.56,0,0,1,1.7,2.35v-3.08h2V1528h-2v-3.08a4.56,4.56,0,0,1-1.7,2.35,5,5,0,0,1-3,.88,5.56,5.56,0,0,1-2.86-.74,5.27,5.27,0,0,1-2-2.15,7.22,7.22,0,0,1-.71-3.29,7.29,7.29,0,0,1,.71-3.3,5.15,5.15,0,0,1,2-2.15,5.48,5.48,0,0,1,2.86-.75A5,5,0,0,1,843.79,1516.67Zm-5.37,2.08a5.3,5.3,0,0,0,0,6.49,3.88,3.88,0,0,0,3,1.17,4.06,4.06,0,0,0,2.12-.55,3.77,3.77,0,0,0,1.46-1.55,4.9,4.9,0,0,0,.53-2.32,5,5,0,0,0-.53-2.33,3.77,3.77,0,0,0-1.46-1.55,4.15,4.15,0,0,0-2.12-.54A3.85,3.85,0,0,0,838.42,1518.75Z"/><path d="M868.93,1517.1a5.43,5.43,0,0,1,1.29,3.9v7h-2v-6.84a3.89,3.89,0,0,0-.87-2.73,3.1,3.1,0,0,0-2.39-1,3.27,3.27,0,0,0-2.54,1,4.4,4.4,0,0,0-1,3.07v6.4h-2v-6.84a3.85,3.85,0,0,0-.88-2.73,3.1,3.1,0,0,0-2.38-1,3.3,3.3,0,0,0-2.56,1,4.4,4.4,0,0,0-1,3.07v6.4h-2v-12.08h2v2.75a4,4,0,0,1,1.58-2.19,4.91,4.91,0,0,1,5.28,0,4.26,4.26,0,0,1,1.61,2.3,4.37,4.37,0,0,1,1.7-2.27,4.63,4.63,0,0,1,2.68-.81A4.45,4.45,0,0,1,868.93,1517.1Z"/><path d="M893.78,1517.1a5.39,5.39,0,0,1,1.3,3.9v7h-2v-6.84a3.82,3.82,0,0,0-.93-2.77,3.28,3.28,0,0,0-2.51-1,3.43,3.43,0,0,0-2.64,1.06,4.44,4.44,0,0,0-1,3.12v6.4h-2v-12.08h2v2.86a4.11,4.11,0,0,1,1.64-2.26,4.76,4.76,0,0,1,2.72-.8A4.47,4.47,0,0,1,893.78,1517.1Z"/><path d="M906.75,1516.54a5.24,5.24,0,0,1,2.15,2.15,7.27,7.27,0,0,1,0,6.59,5.36,5.36,0,0,1-2.15,2.15,6.93,6.93,0,0,1-6.23,0,5.45,5.45,0,0,1-2.16-2.15,7.19,7.19,0,0,1,0-6.59,5.32,5.32,0,0,1,2.16-2.15,6.84,6.84,0,0,1,6.23,0Zm-5.11,1.49a3.64,3.64,0,0,0-1.47,1.49,5,5,0,0,0-.56,2.47,5,5,0,0,0,.56,2.45,3.64,3.64,0,0,0,1.47,1.49,4.39,4.39,0,0,0,4,0,3.58,3.58,0,0,0,1.47-1.49,5,5,0,0,0,.56-2.45,5,5,0,0,0-.56-2.47,3.58,3.58,0,0,0-1.47-1.49,4.39,4.39,0,0,0-4,0Z"/><path d="M919.17,1519.11v1.69h-8.8v-1.69Z"/><path d="M526.27,1543.5a5.43,5.43,0,0,1,1.3,3.9v7h-2v-6.84a3.83,3.83,0,0,0-.92-2.77,3.29,3.29,0,0,0-2.51-1,3.4,3.4,0,0,0-2.64,1.07,4.4,4.4,0,0,0-1,3.11v6.4h-2v-12.08h2v2.86a4.11,4.11,0,0,1,1.64-2.26,4.76,4.76,0,0,1,2.72-.8A4.49,4.49,0,0,1,526.27,1543.5Z"/><path d="M541.38,1542.34v12.08h-2v-2.84a4.07,4.07,0,0,1-1.64,2.26,4.84,4.84,0,0,1-2.74.78,4.44,4.44,0,0,1-3.38-1.36,5.35,5.35,0,0,1-1.3-3.88v-7h2v6.84a3.94,3.94,0,0,0,.92,2.79,3.3,3.3,0,0,0,2.51,1,3.44,3.44,0,0,0,2.64-1.07,4.42,4.42,0,0,0,1-3.11v-6.43Z"/><path d="M562.84,1543.5a5.43,5.43,0,0,1,1.29,3.9v7h-2v-6.84a3.89,3.89,0,0,0-.87-2.73,3.1,3.1,0,0,0-2.39-.95,3.28,3.28,0,0,0-2.54,1,4.39,4.39,0,0,0-1,3.07v6.4h-2v-6.84a3.85,3.85,0,0,0-.88-2.73,3.08,3.08,0,0,0-2.37-.95,3.32,3.32,0,0,0-2.57,1,4.44,4.44,0,0,0-.95,3.07v6.4h-2v-12.08h2v2.75a3.91,3.91,0,0,1,1.57-2.19,4.91,4.91,0,0,1,5.28,0,4.31,4.31,0,0,1,1.62,2.3,4.3,4.3,0,0,1,1.69-2.27,4.65,4.65,0,0,1,2.68-.81A4.44,4.44,0,0,1,562.84,1543.5Z"/><path d="M585.48,1543.5a5.43,5.43,0,0,1,1.29,3.9v7h-2v-6.84a3.89,3.89,0,0,0-.87-2.73,3.1,3.1,0,0,0-2.39-.95,3.27,3.27,0,0,0-2.54,1,4.4,4.4,0,0,0-1,3.07v6.4h-2v-6.84a3.85,3.85,0,0,0-.88-2.73,3.1,3.1,0,0,0-2.38-.95,3.3,3.3,0,0,0-2.56,1,4.4,4.4,0,0,0-1,3.07v6.4h-2v-12.08h2v2.75a4,4,0,0,1,1.58-2.19,4.91,4.91,0,0,1,5.28,0,4.3,4.3,0,0,1,1.61,2.3,4.37,4.37,0,0,1,1.7-2.27,4.63,4.63,0,0,1,2.68-.81A4.45,4.45,0,0,1,585.48,1543.5Z"/><path d="M590.71,1542.34l3.91,9.51,3.63-9.51h2.22l-7.17,17.8H591l2.5-5.92-5.08-11.88Z"/><path d="M617.5,1543.5a5.39,5.39,0,0,1,1.3,3.9v7h-2v-6.84a3.83,3.83,0,0,0-.93-2.77,3.27,3.27,0,0,0-2.5-1,3.4,3.4,0,0,0-2.64,1.07,4.4,4.4,0,0,0-1,3.11v6.4h-2v-12.08h2v2.86a4,4,0,0,1,1.64-2.26,4.7,4.7,0,0,1,2.71-.8A4.47,4.47,0,0,1,617.5,1543.5Z"/><path d="M621.9,1537.91a1.61,1.61,0,0,1,2,0,1.23,1.23,0,0,1,0,1.78,1.61,1.61,0,0,1-2,0,1.26,1.26,0,0,1,0-1.78Zm2,4.43v12.08h-2v-12.08Z"/><path d="M636.62,1542.94a5.08,5.08,0,0,1,2,2.15,8,8,0,0,1,0,6.59,5.2,5.2,0,0,1-2,2.15,5.56,5.56,0,0,1-2.86.74,4.88,4.88,0,0,1-3-.89,4.42,4.42,0,0,1-1.68-2.34v3.08h-2v-16.28h2v7.28a4.42,4.42,0,0,1,1.68-2.34,4.94,4.94,0,0,1,3-.89A5.48,5.48,0,0,1,636.62,1542.94Zm-5.54,1.57a3.69,3.69,0,0,0-1.48,1.55,5,5,0,0,0-.53,2.33,4.9,4.9,0,0,0,.53,2.32,3.69,3.69,0,0,0,1.48,1.55,4.08,4.08,0,0,0,2.11.55,3.92,3.92,0,0,0,3-1.17,5.3,5.3,0,0,0,0-6.49,3.89,3.89,0,0,0-3-1.18A4.17,4.17,0,0,0,631.08,1544.51Z"/><path d="M651.69,1543.5a5.43,5.43,0,0,1,1.3,3.9v7h-2v-6.84a3.83,3.83,0,0,0-.93-2.77,3.28,3.28,0,0,0-2.51-1,3.4,3.4,0,0,0-2.64,1.07,4.4,4.4,0,0,0-1,3.11v6.4h-2v-16.28h2v7.06a4.11,4.11,0,0,1,1.64-2.26,4.76,4.76,0,0,1,2.72-.8A4.49,4.49,0,0,1,651.69,1543.5Z"/><path d="M672.52,1548.81h-9.65a4.21,4.21,0,0,0,1.17,3.1,3.85,3.85,0,0,0,2.72,1,3.92,3.92,0,0,0,2.43-.74,3.07,3.07,0,0,0,1.2-2h2.13a4.92,4.92,0,0,1-1,2.24,5,5,0,0,1-2,1.54,6.5,6.5,0,0,1-2.73.55,6.29,6.29,0,0,1-3.08-.74,5.24,5.24,0,0,1-2.1-2.15,7.52,7.52,0,0,1,0-6.59,5.13,5.13,0,0,1,2.1-2.15,6.19,6.19,0,0,1,3.08-.75,6.1,6.1,0,0,1,3.07.75,5.06,5.06,0,0,1,2,2,5.64,5.64,0,0,1,.69,2.77A5.81,5.81,0,0,1,672.52,1548.81Zm-2.37-3.21a3.21,3.21,0,0,0-1.39-1.34,4.13,4.13,0,0,0-1.91-.44,4,4,0,0,0-2.77,1,4.07,4.07,0,0,0-1.21,3h7.72A4.11,4.11,0,0,0,670.15,1545.6Z"/><path d="M686,1542.34v12.08h-2v-2.84a4.05,4.05,0,0,1-1.63,2.26,4.86,4.86,0,0,1-2.74.78,4.44,4.44,0,0,1-3.39-1.36,5.35,5.35,0,0,1-1.3-3.88v-7h2v6.84a3.9,3.9,0,0,0,.93,2.79,3.28,3.28,0,0,0,2.5,1,3.44,3.44,0,0,0,2.64-1.07,4.42,4.42,0,0,0,1-3.11v-6.43Z"/><path d="M689.2,1537.91a1.61,1.61,0,0,1,2,0,1.26,1.26,0,0,1,0,1.78,1.61,1.61,0,0,1-2,0,1.26,1.26,0,0,1,0-1.78Zm2,4.43v12.08h-2v-12.08Z"/><path d="M701.46,1543.25a4.54,4.54,0,0,1,1.51,2.88h-1.91a2.85,2.85,0,0,0-.89-1.78,2.93,2.93,0,0,0-2-.69,2.47,2.47,0,0,0-1.68.52,1.72,1.72,0,0,0-.61,1.4,1.43,1.43,0,0,0,.41,1.06,2.65,2.65,0,0,0,1,.62,17.17,17.17,0,0,0,1.66.45,15.7,15.7,0,0,1,2.17.63,3.37,3.37,0,0,1,1.41,1,2.87,2.87,0,0,1,.58,1.89,3,3,0,0,1-1.11,2.4,4.46,4.46,0,0,1-3,.92,5.66,5.66,0,0,1-3.52-1,4.11,4.11,0,0,1-1.6-2.88h1.93a2.49,2.49,0,0,0,1,1.78,3.47,3.47,0,0,0,2.23.68,2.29,2.29,0,0,0,1.62-.53,1.76,1.76,0,0,0,.58-1.38,1.49,1.49,0,0,0-.42-1.12,2.65,2.65,0,0,0-1-.64,14.57,14.57,0,0,0-1.69-.46,16.53,16.53,0,0,1-2.15-.62,3.16,3.16,0,0,1-1.36-1,2.7,2.7,0,0,1-.56-1.81,3,3,0,0,1,1.12-2.46,4.64,4.64,0,0,1,3.06-.93A4.85,4.85,0,0,1,701.46,1543.25Z"/><path d="M724,1543.5a5.43,5.43,0,0,1,1.29,3.9v7h-2v-6.84a3.89,3.89,0,0,0-.87-2.73,3.08,3.08,0,0,0-2.39-.95,3.28,3.28,0,0,0-2.54,1,4.39,4.39,0,0,0-1,3.07v6.4h-2v-6.84a3.85,3.85,0,0,0-.88-2.73,3.08,3.08,0,0,0-2.37-.95,3.32,3.32,0,0,0-2.57,1,4.44,4.44,0,0,0-1,3.07v6.4h-2v-12.08h2v2.75a3.91,3.91,0,0,1,1.57-2.19,4.91,4.91,0,0,1,5.28,0,4.26,4.26,0,0,1,1.62,2.3,4.3,4.3,0,0,1,1.69-2.27,4.66,4.66,0,0,1,2.69-.81A4.43,4.43,0,0,1,724,1543.5Z"/><path d="M737,1542.94a5.26,5.26,0,0,1,2.16,2.15,7.35,7.35,0,0,1,0,6.59,5.38,5.38,0,0,1-2.16,2.15,6.91,6.91,0,0,1-6.22,0,5.47,5.47,0,0,1-2.17-2.15,7.27,7.27,0,0,1,0-6.59,5.35,5.35,0,0,1,2.17-2.15,6.82,6.82,0,0,1,6.22,0Zm-5.1,1.49a3.58,3.58,0,0,0-1.47,1.49,4.91,4.91,0,0,0-.56,2.47,4.85,4.85,0,0,0,.56,2.45,3.58,3.58,0,0,0,1.47,1.49,4.37,4.37,0,0,0,4,0,3.66,3.66,0,0,0,1.48-1.49,5,5,0,0,0,.56-2.45,5,5,0,0,0-.56-2.47,3.66,3.66,0,0,0-1.48-1.49,4.37,4.37,0,0,0-4,0Z"/><path d="M750.48,1543.07a4.56,4.56,0,0,1,1.7,2.35v-7.28h2v16.28h-2v-3.08a4.56,4.56,0,0,1-1.7,2.35,4.94,4.94,0,0,1-3,.88,5.54,5.54,0,0,1-2.86-.74,5.2,5.2,0,0,1-2-2.15,7.09,7.09,0,0,1-.72-3.29,7.16,7.16,0,0,1,.72-3.3,5.08,5.08,0,0,1,2-2.15,5.45,5.45,0,0,1,2.86-.75A4.94,4.94,0,0,1,750.48,1543.07Zm-5.37,2.08a5.3,5.3,0,0,0,0,6.49,3.89,3.89,0,0,0,3,1.17,4.06,4.06,0,0,0,2.12-.55,3.79,3.79,0,0,0,1.47-1.55,4.9,4.9,0,0,0,.52-2.32,5,5,0,0,0-.52-2.33,3.79,3.79,0,0,0-1.47-1.55,4.15,4.15,0,0,0-2.12-.54A3.86,3.86,0,0,0,745.11,1545.15Z"/><path d="M768.57,1552.66v1.76h-1.49a3.83,3.83,0,0,1-2.76-.88,4,4,0,0,1-.92-3v-6.51h-1.8v-1.74h1.8v-3h2v3h3.12v1.74h-3.12v6.56a2.23,2.23,0,0,0,.43,1.59,2,2,0,0,0,1.48.43Z"/><path d="M771,1537.91a1.61,1.61,0,0,1,2,0,1.26,1.26,0,0,1,0,1.78,1.61,1.61,0,0,1-2,0,1.23,1.23,0,0,1,0-1.78Zm2,4.43v12.08h-2v-12.08Z"/><path d="M786,1543.5a5.43,5.43,0,0,1,1.3,3.9v7h-2v-6.84a3.83,3.83,0,0,0-.92-2.77,3.29,3.29,0,0,0-2.51-1,3.4,3.4,0,0,0-2.64,1.07,4.4,4.4,0,0,0-1,3.11v6.4h-2v-12.08h2v2.86a4.11,4.11,0,0,1,1.64-2.26,4.76,4.76,0,0,1,2.72-.8A4.49,4.49,0,0,1,786,1543.5Z"/><path d="M799.55,1543.42a5.24,5.24,0,0,1,1.87,3.3h-2.11a3.13,3.13,0,0,0-1.2-2,4.28,4.28,0,0,0-4.36-.25,3.47,3.47,0,0,0-1.39,1.49,6,6,0,0,0,0,4.95,3.5,3.5,0,0,0,1.39,1.48,3.93,3.93,0,0,0,1.93.49,3.87,3.87,0,0,0,2.43-.75,3.16,3.16,0,0,0,1.2-2h2.11a5.19,5.19,0,0,1-1.87,3.31,5.88,5.88,0,0,1-3.83,1.22,6.32,6.32,0,0,1-3.08-.74,5.37,5.37,0,0,1-2.1-2.15,7.52,7.52,0,0,1,0-6.59,5.24,5.24,0,0,1,2.1-2.15,6.22,6.22,0,0,1,3.08-.75A5.89,5.89,0,0,1,799.55,1543.42Z"/><path d="M804.06,1537.91a1.61,1.61,0,0,1,2,0,1.26,1.26,0,0,1,0,1.78,1.61,1.61,0,0,1-2,0,1.26,1.26,0,0,1,0-1.78Zm2,4.43v12.08h-2v-12.08Z"/><path d="M817.18,1543.07a4.58,4.58,0,0,1,1.71,2.35v-7.28h2v16.28h-2v-3.08a4.58,4.58,0,0,1-1.71,2.35,4.92,4.92,0,0,1-3,.88,5.56,5.56,0,0,1-2.86-.74,5.27,5.27,0,0,1-2-2.15,7.22,7.22,0,0,1-.71-3.29,7.29,7.29,0,0,1,.71-3.3,5.15,5.15,0,0,1,2-2.15,5.48,5.48,0,0,1,2.86-.75A4.92,4.92,0,0,1,817.18,1543.07Zm-5.37,2.08a5.3,5.3,0,0,0,0,6.49,3.89,3.89,0,0,0,3,1.17,4.1,4.1,0,0,0,2.13-.55,3.77,3.77,0,0,0,1.46-1.55,4.9,4.9,0,0,0,.53-2.32,5,5,0,0,0-.53-2.33,3.77,3.77,0,0,0-1.46-1.55,4.19,4.19,0,0,0-2.13-.54A3.86,3.86,0,0,0,811.81,1545.15Z"/><path d="M834.82,1542.34v12.08h-2v-2.84a4,4,0,0,1-1.64,2.26,4.81,4.81,0,0,1-2.73.78,4.44,4.44,0,0,1-3.39-1.36,5.35,5.35,0,0,1-1.3-3.88v-7h2v6.84a3.9,3.9,0,0,0,.93,2.79,3.28,3.28,0,0,0,2.5,1,3.44,3.44,0,0,0,2.64-1.07,4.42,4.42,0,0,0,1-3.11v-6.43Z"/><path d="M847.79,1543.5a5.39,5.39,0,0,1,1.3,3.9v7h-2v-6.84a3.87,3.87,0,0,0-.92-2.77,3.31,3.31,0,0,0-2.51-1,3.4,3.4,0,0,0-2.64,1.07,4.4,4.4,0,0,0-1,3.11v6.4h-2v-12.08h2v2.86a4.07,4.07,0,0,1,1.64-2.26,4.72,4.72,0,0,1,2.71-.8A4.47,4.47,0,0,1,847.79,1543.5Z"/><path d="M857.94,1552.66v1.76h-1.5a3.83,3.83,0,0,1-2.76-.88,4,4,0,0,1-.91-3v-6.51H851v-1.74h1.81v-3h2v3h3.12v1.74h-3.12v6.56a2.23,2.23,0,0,0,.43,1.59,2,2,0,0,0,1.48.43Z"/><path d="M876.55,1542.34v12.08h-2v-2.84a4.11,4.11,0,0,1-1.64,2.26,4.86,4.86,0,0,1-2.74.78,4.46,4.46,0,0,1-3.39-1.36,5.35,5.35,0,0,1-1.3-3.88v-7h2v6.84a3.9,3.9,0,0,0,.93,2.79,3.28,3.28,0,0,0,2.51,1,3.44,3.44,0,0,0,2.64-1.07,4.42,4.42,0,0,0,1-3.11v-6.43Z"/><path d="M885.52,1552.66v1.76H884a3.81,3.81,0,0,1-2.76-.88,4,4,0,0,1-.92-3v-6.51h-1.8v-1.74h1.8v-3h2v3h3.12v1.74h-3.12v6.56a2.23,2.23,0,0,0,.43,1.59,2,2,0,0,0,1.48.43Z"/><path d="M895.4,1538.14v16.28h-2v-16.28Z"/><path d="M906.54,1543.07a4.52,4.52,0,0,1,1.71,2.35v-3.08h2v12.08h-2v-3.08a4.52,4.52,0,0,1-1.71,2.35,4.92,4.92,0,0,1-3,.88,5.56,5.56,0,0,1-2.86-.74,5.27,5.27,0,0,1-2-2.15,7.22,7.22,0,0,1-.71-3.29,7.29,7.29,0,0,1,.71-3.3,5.15,5.15,0,0,1,2-2.15,5.48,5.48,0,0,1,2.86-.75A4.92,4.92,0,0,1,906.54,1543.07Zm-5.36,2.08a5.26,5.26,0,0,0,0,6.49,3.87,3.87,0,0,0,3,1.17,4.1,4.1,0,0,0,2.13-.55,3.77,3.77,0,0,0,1.46-1.55,4.9,4.9,0,0,0,.53-2.32,5,5,0,0,0-.53-2.33,3.77,3.77,0,0,0-1.46-1.55,4.19,4.19,0,0,0-2.13-.54A3.84,3.84,0,0,0,901.18,1545.15Z"/><path d="M922,1542.94a5.26,5.26,0,0,1,2.16,2.15,7.35,7.35,0,0,1,0,6.59,5.38,5.38,0,0,1-2.16,2.15,6.91,6.91,0,0,1-6.22,0,5.47,5.47,0,0,1-2.17-2.15,7.27,7.27,0,0,1,0-6.59,5.35,5.35,0,0,1,2.17-2.15,6.82,6.82,0,0,1,6.22,0Zm-5.1,1.49a3.66,3.66,0,0,0-1.48,1.49,5,5,0,0,0-.56,2.47,5,5,0,0,0,.56,2.45,3.66,3.66,0,0,0,1.48,1.49,4.37,4.37,0,0,0,4,0,3.58,3.58,0,0,0,1.47-1.49,4.85,4.85,0,0,0,.57-2.45,4.91,4.91,0,0,0-.57-2.47,3.58,3.58,0,0,0-1.47-1.49,4.37,4.37,0,0,0-4,0Z"/><path class="cls-23" d="M246.26,1257.49v3.07h5v2.68h-5v3.26h5.59v2.84h-9.13v-14.67h9.13v2.82Z"/><path class="cls-23" d="M259.54,1256.18a1.77,1.77,0,0,0-1.26.38,1.72,1.72,0,0,0-.44,1.2h2.1v3h-2.1v8.59h-3.55v-8.59H252.9v-3h1.39v-.12a4.32,4.32,0,0,1,1.26-3.33,5.11,5.11,0,0,1,3.64-1.18l.75,0v3Z"/><path class="cls-23" d="M272.39,1264.19h-8a2.69,2.69,0,0,0,.66,1.88,2.38,2.38,0,0,0,2.85.18,1.84,1.84,0,0,0,.68-1h3.76a5,5,0,0,1-1,2.19,5.36,5.36,0,0,1-1.95,1.52,6.3,6.3,0,0,1-2.64.55,6.21,6.21,0,0,1-3-.72,5.19,5.19,0,0,1-2.06-2.07,6.35,6.35,0,0,1-.75-3.15,6.45,6.45,0,0,1,.74-3.16,5,5,0,0,1,2.06-2.06,6.86,6.86,0,0,1,6.06,0,5,5,0,0,1,2,2,6,6,0,0,1,.71,2.94A4.73,4.73,0,0,1,272.39,1264.19Zm-4.1-3.2a2.25,2.25,0,0,0-1.57-.57,2.27,2.27,0,0,0-1.61.58,2.38,2.38,0,0,0-.73,1.7h4.52A2.11,2.11,0,0,0,268.29,1261Z"/><path class="cls-23" d="M283.33,1258.85a5.43,5.43,0,0,1,1.9,3.39h-3.75a2,2,0,0,0-.69-1.16,2,2,0,0,0-1.3-.41,1.89,1.89,0,0,0-1.54.73,4.15,4.15,0,0,0,0,4.3,1.89,1.89,0,0,0,1.54.73,2,2,0,0,0,1.3-.41,2,2,0,0,0,.69-1.16h3.75a5.43,5.43,0,0,1-1.9,3.39,5.79,5.79,0,0,1-3.76,1.24,6.19,6.19,0,0,1-3-.72,5.07,5.07,0,0,1-2.06-2.07,7.05,7.05,0,0,1,0-6.31,5,5,0,0,1,2.06-2.06,6.25,6.25,0,0,1,3-.71A5.78,5.78,0,0,1,283.33,1258.85Z"/><path class="cls-23" d="M293.64,1266.29v3H292a4.59,4.59,0,0,1-3.16-1,4.24,4.24,0,0,1-1.13-3.33v-4.25h-1.56v-3h1.56v-2.84h3.54v2.84h2.33v3h-2.33v4.31a1.34,1.34,0,0,0,.28,1,1.37,1.37,0,0,0,.95.27Z"/><path class="cls-23" d="M304.13,1258.33a5.3,5.3,0,0,1,2.14,2.06,6.24,6.24,0,0,1,.77,3.16,6.16,6.16,0,0,1-.77,3.15,5.26,5.26,0,0,1-2.14,2.07,7,7,0,0,1-6.17,0,5.23,5.23,0,0,1-2.15-2.07,6.16,6.16,0,0,1-.78-3.15,6.25,6.25,0,0,1,.78-3.16,5.27,5.27,0,0,1,2.15-2.06,7.06,7.06,0,0,1,6.17,0Zm-4.79,3.09a3.58,3.58,0,0,0,0,4.25,2.38,2.38,0,0,0,3.41,0,3.66,3.66,0,0,0,0-4.25,2.36,2.36,0,0,0-3.41,0Z"/><path class="cls-23" d="M323,1267.35a4.06,4.06,0,0,1-1.74,1.55,6.12,6.12,0,0,1-2.79.59,6.6,6.6,0,0,1-4.07-1.21,4.31,4.31,0,0,1-1.74-3.36h3.77a2.08,2.08,0,0,0,.59,1.31,1.83,1.83,0,0,0,1.3.47,1.49,1.49,0,0,0,1.08-.37,1.32,1.32,0,0,0,.4-1,1.3,1.3,0,0,0-.37-.93,2.8,2.8,0,0,0-.9-.61c-.36-.16-.86-.35-1.49-.57a18.24,18.24,0,0,1-2.28-.93,4,4,0,0,1-1.51-1.32,4.35,4.35,0,0,1,0-4.56,4.15,4.15,0,0,1,1.84-1.46,6.64,6.64,0,0,1,2.68-.51,6,6,0,0,1,3.89,1.16,4.4,4.4,0,0,1,1.63,3.2h-3.84a2,2,0,0,0-.52-1.15,1.55,1.55,0,0,0-1.16-.43,1.47,1.47,0,0,0-1,.33,1.22,1.22,0,0,0-.39,1,1.24,1.24,0,0,0,.35.88,2.48,2.48,0,0,0,.86.59c.34.15.84.35,1.49.58a16.46,16.46,0,0,1,2.3,1,4.32,4.32,0,0,1,1.54,1.36,3.86,3.86,0,0,1,.64,2.32A4,4,0,0,1,323,1267.35Z"/><path class="cls-23" d="M340.25,1254.67v2.82h-4v11.85h-3.57v-11.85h-3.94v-2.82Z"/><path class="cls-23" d="M349.44,1254.67v14.67h-3.55v-14.67Z"/><path class="cls-23" d="M367.38,1256a6.75,6.75,0,0,1,2.37,4H366a3.45,3.45,0,0,0-1.28-1.6,3.52,3.52,0,0,0-2-.58,3.1,3.1,0,0,0-2.51,1.14,4.59,4.59,0,0,0-1,3,4.52,4.52,0,0,0,1,3,3.09,3.09,0,0,0,2.51,1.13,3.52,3.52,0,0,0,2-.58A3.42,3.42,0,0,0,366,1264h3.75a6.79,6.79,0,0,1-2.37,4,7.15,7.15,0,0,1-4.64,1.48,7.31,7.31,0,0,1-3.76-.94,6.43,6.43,0,0,1-2.5-2.64,9,9,0,0,1,0-7.77,6.43,6.43,0,0,1,2.5-2.64,7.32,7.32,0,0,1,3.76-1A7.15,7.15,0,0,1,367.38,1256Z"/><path class="cls-23" d="M382.81,1261.85l5.91,7.49h-4.3l-5-6.58v6.58H375.9v-14.67h3.54v6.45l5-6.45h4.25Z"/><path class="cls-23" d="M407,1254.67l-5.08,9.79v4.88h-3.57v-4.88l-5.08-9.79h4.06l2.82,6,2.83-6Z"/><path class="cls-23" d="M420.29,1258.72a4.75,4.75,0,0,1,1.65,2.9h-3.32a1.8,1.8,0,0,0-.65-1.11,2,2,0,0,0-1.28-.4,1.41,1.41,0,0,0-.91.25.91.91,0,0,0-.31.74.86.86,0,0,0,.57.81,9.15,9.15,0,0,0,1.79.54,18.55,18.55,0,0,1,2.18.63,3.73,3.73,0,0,1,1.48,1.05,2.94,2.94,0,0,1,.62,1.95,3,3,0,0,1-.54,1.77,3.56,3.56,0,0,1-1.56,1.2,6,6,0,0,1-2.4.44,6.21,6.21,0,0,1-3.76-1,4.38,4.38,0,0,1-1.72-3h3.42a1.56,1.56,0,0,0,.63,1.14,2.44,2.44,0,0,0,1.43.4,1.31,1.31,0,0,0,.91-.29.92.92,0,0,0,.31-.73.88.88,0,0,0-.57-.86,9.62,9.62,0,0,0-1.86-.55,15.59,15.59,0,0,1-2.11-.58,3.6,3.6,0,0,1-1.44-1,2.81,2.81,0,0,1-.6-1.9,3.09,3.09,0,0,1,1.19-2.52,5.15,5.15,0,0,1,3.34-1A5.27,5.27,0,0,1,420.29,1258.72Z"/><path class="cls-23" d="M432.58,1258.33a5.37,5.37,0,0,1,2.14,2.06,6.35,6.35,0,0,1,.77,3.16,6.26,6.26,0,0,1-.77,3.15,5.33,5.33,0,0,1-2.14,2.07,6.51,6.51,0,0,1-3.08.72,6.59,6.59,0,0,1-3.1-.72,5.26,5.26,0,0,1-2.14-2.07,6.16,6.16,0,0,1-.78-3.15,6.25,6.25,0,0,1,.78-3.16,5.3,5.3,0,0,1,2.14-2.06,6.59,6.59,0,0,1,3.1-.71A6.5,6.5,0,0,1,432.58,1258.33Zm-4.8,3.09a3.62,3.62,0,0,0,0,4.25,2.31,2.31,0,0,0,1.72.72,2.27,2.27,0,0,0,1.7-.72,3.66,3.66,0,0,0,0-4.25,2.24,2.24,0,0,0-1.7-.73A2.28,2.28,0,0,0,427.78,1261.42Z"/><path class="cls-23" d="M447.12,1258.33a4.89,4.89,0,0,1,1.79,2.06,8,8,0,0,1,0,6.31,4.92,4.92,0,0,1-1.79,2.07,4.64,4.64,0,0,1-2.56.72,4.13,4.13,0,0,1-2.28-.61,3.43,3.43,0,0,1-1.39-1.64v2.1h-3.55V1254h3.55v5.88a3.43,3.43,0,0,1,1.39-1.64,4.21,4.21,0,0,1,2.28-.6A4.63,4.63,0,0,1,447.12,1258.33Zm-5.53,3.16a3.29,3.29,0,0,0,0,4.11,2.34,2.34,0,0,0,1.83.77,2.43,2.43,0,0,0,1.84-.74,3.48,3.48,0,0,0,0-4.16,2.43,2.43,0,0,0-1.84-.74A2.37,2.37,0,0,0,441.59,1261.49Z"/><path class="cls-23" d="M456.67,1258.26a4.33,4.33,0,0,1,2.27-.62v3.79h-1a3.52,3.52,0,0,0-2.19.6,2.43,2.43,0,0,0-.78,2v5.27h-3.55v-11.58H455v2.18A4.91,4.91,0,0,1,456.67,1258.26Z"/><path class="cls-23" d="M471.33,1264.19h-8a2.65,2.65,0,0,0,.67,1.88,2.36,2.36,0,0,0,2.84.18,1.84,1.84,0,0,0,.68-1h3.76a4.88,4.88,0,0,1-1,2.19,5.36,5.36,0,0,1-1.95,1.52,6.28,6.28,0,0,1-2.63.55,6.19,6.19,0,0,1-3-.72,5.16,5.16,0,0,1-2.07-2.07,6.35,6.35,0,0,1-.74-3.15,6.44,6.44,0,0,1,.73-3.16,5,5,0,0,1,2.07-2.06,6.22,6.22,0,0,1,3-.71,6.3,6.3,0,0,1,3,.7,5,5,0,0,1,2,2,5.88,5.88,0,0,1,.72,2.94A4.78,4.78,0,0,1,471.33,1264.19Zm-4.1-3.2a2.24,2.24,0,0,0-1.56-.57,2.32,2.32,0,0,0-1.62.58,2.43,2.43,0,0,0-.73,1.7h4.53A2.12,2.12,0,0,0,467.23,1261Z"/><path class="cls-23" d="M488.33,1264.19h-8a2.69,2.69,0,0,0,.66,1.88,2.14,2.14,0,0,0,1.54.57,2.09,2.09,0,0,0,1.3-.39,1.81,1.81,0,0,0,.69-1h3.75a4.86,4.86,0,0,1-1,2.19,5.36,5.36,0,0,1-1.95,1.52,6.3,6.3,0,0,1-2.64.55,6.21,6.21,0,0,1-3-.72,5.13,5.13,0,0,1-2.06-2.07,6.35,6.35,0,0,1-.75-3.15,6.45,6.45,0,0,1,.74-3.16,5,5,0,0,1,2.06-2.06,6.86,6.86,0,0,1,6.06,0,4.94,4.94,0,0,1,2,2,5.88,5.88,0,0,1,.72,2.94A4.73,4.73,0,0,1,488.33,1264.19Zm-4.1-3.2a2.25,2.25,0,0,0-1.57-.57,2.32,2.32,0,0,0-1.62.58,2.38,2.38,0,0,0-.72,1.7h4.52A2.15,2.15,0,0,0,484.23,1261Z"/><path class="cls-23" d="M493.83,1254v15.36h-3.55V1254Z"/><path class="cls-23" d="M518.79,1259a5.17,5.17,0,0,1,1.22,3.67v6.72h-3.52V1263a2.38,2.38,0,0,0-.59-1.71,2.45,2.45,0,0,0-3.28,0,2.59,2.59,0,0,0-.62,1.84v6.14h-3.54V1263a2.38,2.38,0,0,0-.59-1.71,2.06,2.06,0,0,0-1.59-.61,2.21,2.21,0,0,0-1.68.64,2.54,2.54,0,0,0-.63,1.85v6.14h-3.54v-11.58H504v2a3.45,3.45,0,0,1,1.4-1.53,4.21,4.21,0,0,1,2.22-.56,4.44,4.44,0,0,1,2.34.61,3.87,3.87,0,0,1,1.54,1.75,4.67,4.67,0,0,1,1.64-1.72,4.78,4.78,0,0,1,5.68.67Z"/><path class="cls-23" d="M529.06,1258.22a3.52,3.52,0,0,1,1.41,1.64v-2.1H534v11.58h-3.53v-2.1a3.52,3.52,0,0,1-1.41,1.64,4.09,4.09,0,0,1-2.28.61,4.66,4.66,0,0,1-2.56-.72,4.92,4.92,0,0,1-1.79-2.07,8,8,0,0,1,0-6.31,4.89,4.89,0,0,1,1.79-2.06,4.65,4.65,0,0,1,2.56-.71A4.17,4.17,0,0,1,529.06,1258.22Zm-3,3.25a3.48,3.48,0,0,0,0,4.16,2.43,2.43,0,0,0,1.84.74,2.38,2.38,0,0,0,1.84-.77,3.33,3.33,0,0,0,0-4.11,2.41,2.41,0,0,0-1.84-.76A2.43,2.43,0,0,0,526.08,1261.47Z"/><path class="cls-23" d="M546.23,1258.33a4.89,4.89,0,0,1,1.79,2.06,8,8,0,0,1,0,6.31,4.92,4.92,0,0,1-1.79,2.07,4.64,4.64,0,0,1-2.56.72,4.11,4.11,0,0,1-2.28-.61,3.43,3.43,0,0,1-1.39-1.64v7.62h-3.55v-17.1H540v2.1a3.43,3.43,0,0,1,1.39-1.64,4.19,4.19,0,0,1,2.28-.6A4.63,4.63,0,0,1,546.23,1258.33Zm-5.54,3.16a3.33,3.33,0,0,0,0,4.11,2.38,2.38,0,0,0,1.84.77,2.43,2.43,0,0,0,1.84-.74,3.48,3.48,0,0,0,0-4.16,2.43,2.43,0,0,0-1.84-.74A2.41,2.41,0,0,0,540.69,1261.49Z"/><path class="cls-23" d="M557.2,1258.22a3.52,3.52,0,0,1,1.41,1.64v-2.1h3.53v11.58h-3.53v-2.1a3.52,3.52,0,0,1-1.41,1.64,4.13,4.13,0,0,1-2.28.61,4.66,4.66,0,0,1-2.56-.72,4.92,4.92,0,0,1-1.79-2.07,8,8,0,0,1,0-6.31,4.89,4.89,0,0,1,1.79-2.06,4.65,4.65,0,0,1,2.56-.71A4.21,4.21,0,0,1,557.2,1258.22Zm-3,3.25a3.48,3.48,0,0,0,0,4.16,2.43,2.43,0,0,0,1.84.74,2.38,2.38,0,0,0,1.84-.77,3.33,3.33,0,0,0,0-4.11,2.41,2.41,0,0,0-1.84-.76A2.43,2.43,0,0,0,554.22,1261.47Z"/><path class="cls-23" d="M578.52,1258.33a4.89,4.89,0,0,1,1.79,2.06,8,8,0,0,1,0,6.31,4.92,4.92,0,0,1-1.79,2.07,4.64,4.64,0,0,1-2.56.72,4.11,4.11,0,0,1-2.28-.61,3.43,3.43,0,0,1-1.39-1.64v7.62h-3.55v-17.1h3.55v2.1a3.43,3.43,0,0,1,1.39-1.64,4.19,4.19,0,0,1,2.28-.6A4.63,4.63,0,0,1,578.52,1258.33Zm-5.54,3.16a3.33,3.33,0,0,0,0,4.11,2.38,2.38,0,0,0,1.84.77,2.43,2.43,0,0,0,1.84-.74,3.48,3.48,0,0,0,0-4.16,2.43,2.43,0,0,0-1.84-.74A2.41,2.41,0,0,0,573,1261.49Z"/><path class="cls-23" d="M589.49,1258.22a3.52,3.52,0,0,1,1.41,1.64v-2.1h3.53v11.58H590.9v-2.1a3.52,3.52,0,0,1-1.41,1.64,4.13,4.13,0,0,1-2.28.61,4.66,4.66,0,0,1-2.56-.72,4.92,4.92,0,0,1-1.79-2.07,8,8,0,0,1,0-6.31,4.89,4.89,0,0,1,1.79-2.06,4.65,4.65,0,0,1,2.56-.71A4.21,4.21,0,0,1,589.49,1258.22Zm-3,3.25a3.48,3.48,0,0,0,0,4.16,2.43,2.43,0,0,0,1.84.74,2.38,2.38,0,0,0,1.84-.77,3.33,3.33,0,0,0,0-4.11,2.41,2.41,0,0,0-1.84-.76A2.43,2.43,0,0,0,586.51,1261.47Z"/><path class="cls-23" d="M602.14,1258.26a4.33,4.33,0,0,1,2.27-.62v3.79h-1a3.48,3.48,0,0,0-2.19.6,2.43,2.43,0,0,0-.78,2v5.27h-3.55v-11.58h3.55v2.18A4.91,4.91,0,0,1,602.14,1258.26Z"/><path class="cls-23" d="M612.59,1258.22a3.52,3.52,0,0,1,1.41,1.64v-2.1h3.53v11.58H614v-2.1a3.52,3.52,0,0,1-1.41,1.64,4.13,4.13,0,0,1-2.28.61,4.7,4.7,0,0,1-2.57-.72,4.9,4.9,0,0,1-1.78-2.07,7.87,7.87,0,0,1,0-6.31,4.87,4.87,0,0,1,1.78-2.06,4.69,4.69,0,0,1,2.57-.71A4.21,4.21,0,0,1,612.59,1258.22Zm-3,3.25a3.48,3.48,0,0,0,0,4.16,2.42,2.42,0,0,0,1.84.74,2.36,2.36,0,0,0,1.83-.77,3.29,3.29,0,0,0,0-4.11,2.38,2.38,0,0,0-1.83-.76A2.42,2.42,0,0,0,609.61,1261.47Z"/><path class="cls-23" d="M624.38,1253.16a2.17,2.17,0,0,1,1.53-.53,2.22,2.22,0,0,1,1.54.53,1.77,1.77,0,0,1,.58,1.34,1.73,1.73,0,0,1-.58,1.32,2.22,2.22,0,0,1-1.54.53,2.17,2.17,0,0,1-1.53-.53,1.7,1.7,0,0,1-.59-1.32A1.74,1.74,0,0,1,624.38,1253.16Zm3.29,4.6v11.58h-3.54v-11.58Z"/><path class="cls-23" d="M635.38,1258.26a4.34,4.34,0,0,1,2.28-.62v3.79h-1a3.52,3.52,0,0,0-2.19.6,2.43,2.43,0,0,0-.78,2v5.27h-3.55v-11.58h3.55v2.18A4.91,4.91,0,0,1,635.38,1258.26Z"/><path class="cls-23" d="M661.67,1259a5.21,5.21,0,0,1,1.22,3.67v6.72h-3.53V1263a2.34,2.34,0,0,0-.59-1.71,2.12,2.12,0,0,0-1.61-.61,2.17,2.17,0,0,0-1.67.65,2.59,2.59,0,0,0-.61,1.84v6.14h-3.55V1263a2.38,2.38,0,0,0-.58-1.71,2.1,2.1,0,0,0-1.6-.61,2.24,2.24,0,0,0-1.68.64,2.58,2.58,0,0,0-.62,1.85v6.14H643.3v-11.58h3.55v2a3.4,3.4,0,0,1,1.4-1.53,4.2,4.2,0,0,1,2.21-.56,4.41,4.41,0,0,1,2.34.61,3.87,3.87,0,0,1,1.54,1.75,4.62,4.62,0,0,1,1.65-1.72,4.32,4.32,0,0,1,2.31-.64A4.41,4.41,0,0,1,661.67,1259Z"/><path class="cls-23" d="M673.75,1258.33a5.3,5.3,0,0,1,2.14,2.06,6.25,6.25,0,0,1,.78,3.16,6.16,6.16,0,0,1-.78,3.15,5.26,5.26,0,0,1-2.14,2.07,6.45,6.45,0,0,1-3.08.72,6.52,6.52,0,0,1-3.09-.72,5.29,5.29,0,0,1-2.15-2.07,6.16,6.16,0,0,1-.78-3.15,6.25,6.25,0,0,1,.78-3.16,5.33,5.33,0,0,1,2.15-2.06,6.52,6.52,0,0,1,3.09-.71A6.45,6.45,0,0,1,673.75,1258.33Zm-4.79,3.09a3.58,3.58,0,0,0,0,4.25,2.27,2.27,0,0,0,1.71.72,2.24,2.24,0,0,0,1.7-.72,3.62,3.62,0,0,0,0-4.25,2.21,2.21,0,0,0-1.7-.73A2.25,2.25,0,0,0,669,1261.42Z"/><path class="cls-23" d="M686.25,1258.72a4.85,4.85,0,0,1,1.65,2.9h-3.32a1.86,1.86,0,0,0-.66-1.11,2,2,0,0,0-1.27-.4,1.42,1.42,0,0,0-.92.25.94.94,0,0,0-.31.74.86.86,0,0,0,.57.81,9.07,9.07,0,0,0,1.8.54,18.89,18.89,0,0,1,2.17.63,3.73,3.73,0,0,1,1.48,1.05,2.94,2.94,0,0,1,.62,1.95,3,3,0,0,1-.54,1.77,3.56,3.56,0,0,1-1.56,1.2,6,6,0,0,1-2.4.44,6.21,6.21,0,0,1-3.76-1,4.38,4.38,0,0,1-1.72-3h3.42a1.54,1.54,0,0,0,.64,1.14,2.39,2.39,0,0,0,1.42.4,1.31,1.31,0,0,0,.91-.29.92.92,0,0,0,.31-.73.88.88,0,0,0-.57-.86,9.62,9.62,0,0,0-1.86-.55,16,16,0,0,1-2.11-.58,3.5,3.5,0,0,1-1.43-1,2.76,2.76,0,0,1-.61-1.9,3.09,3.09,0,0,1,1.19-2.52,5.17,5.17,0,0,1,3.34-1A5.3,5.3,0,0,1,686.25,1258.72Z"/><path class="cls-23" d="M696.59,1266.29v3H695a4.59,4.59,0,0,1-3.16-1,4.24,4.24,0,0,1-1.13-3.33v-4.25h-1.56v-3h1.56v-2.84h3.54v2.84h2.33v3h-2.33v4.31a1.29,1.29,0,0,0,.29,1,1.32,1.32,0,0,0,.94.27Z"/><path class="cls-23" d="M703.84,1258.26a4.33,4.33,0,0,1,2.27-.62v3.79h-1a3.52,3.52,0,0,0-2.19.6,2.43,2.43,0,0,0-.78,2v5.27h-3.55v-11.58h3.55v2.18A4.91,4.91,0,0,1,703.84,1258.26Z"/><path class="cls-23" d="M714.29,1258.22a3.52,3.52,0,0,1,1.41,1.64v-2.1h3.53v11.58H715.7v-2.1a3.52,3.52,0,0,1-1.41,1.64,4.13,4.13,0,0,1-2.28.61,4.64,4.64,0,0,1-2.56-.72,4.92,4.92,0,0,1-1.79-2.07,8,8,0,0,1,0-6.31,4.89,4.89,0,0,1,1.79-2.06,4.63,4.63,0,0,1,2.56-.71A4.21,4.21,0,0,1,714.29,1258.22Zm-3,3.25a3.48,3.48,0,0,0,0,4.16,2.43,2.43,0,0,0,1.84.74,2.34,2.34,0,0,0,1.83-.77,3.29,3.29,0,0,0,0-4.11,2.37,2.37,0,0,0-1.83-.76A2.43,2.43,0,0,0,711.31,1261.47Z"/><path class="cls-23" d="M732.19,1259a5.36,5.36,0,0,1,1.17,3.66v6.72h-3.55V1263a2.53,2.53,0,0,0-.61-1.81,2.12,2.12,0,0,0-1.63-.66,2.2,2.2,0,0,0-1.71.69,2.76,2.76,0,0,0-.63,2v6.14h-3.55v-11.58h3.55v2.12a3.73,3.73,0,0,1,1.48-1.64,4.37,4.37,0,0,1,2.31-.6A4,4,0,0,1,732.19,1259Z"/><path class="cls-23" d="M742.39,1258.22a3.48,3.48,0,0,1,1.39,1.64V1254h3.55v15.36h-3.55v-2.1a3.48,3.48,0,0,1-1.39,1.64,4.13,4.13,0,0,1-2.28.61,4.7,4.7,0,0,1-2.57-.72,4.9,4.9,0,0,1-1.78-2.07,7.87,7.87,0,0,1,0-6.31,4.87,4.87,0,0,1,1.78-2.06,4.69,4.69,0,0,1,2.57-.71A4.21,4.21,0,0,1,742.39,1258.22Zm-3,3.25a3.48,3.48,0,0,0,0,4.16,2.42,2.42,0,0,0,1.84.74,2.36,2.36,0,0,0,1.83-.77,3.29,3.29,0,0,0,0-4.11,2.38,2.38,0,0,0-1.83-.76A2.42,2.42,0,0,0,739.41,1261.47Z"/><path class="cls-23" d="M758.27,1258.33a5.3,5.3,0,0,1,2.14,2.06,6.25,6.25,0,0,1,.78,3.16,6.16,6.16,0,0,1-.78,3.15,5.26,5.26,0,0,1-2.14,2.07,6.45,6.45,0,0,1-3.08.72,6.52,6.52,0,0,1-3.09-.72,5.29,5.29,0,0,1-2.15-2.07,6.16,6.16,0,0,1-.78-3.15,6.25,6.25,0,0,1,.78-3.16,5.33,5.33,0,0,1,2.15-2.06,6.52,6.52,0,0,1,3.09-.71A6.45,6.45,0,0,1,758.27,1258.33Zm-4.79,3.09a3.62,3.62,0,0,0,0,4.25,2.27,2.27,0,0,0,1.71.72,2.24,2.24,0,0,0,1.7-.72,3.62,3.62,0,0,0,0-4.25,2.21,2.21,0,0,0-1.7-.73A2.25,2.25,0,0,0,753.48,1261.42Z"/><path class="cls-23" d="M770.73,1254v15.36h-3.54V1254Z"/><path class="cls-23" d="M781.68,1258.33a5.3,5.3,0,0,1,2.14,2.06,6.25,6.25,0,0,1,.78,3.16,6.16,6.16,0,0,1-.78,3.15,5.26,5.26,0,0,1-2.14,2.07,7,7,0,0,1-6.17,0,5.29,5.29,0,0,1-2.15-2.07,6.16,6.16,0,0,1-.78-3.15,6.25,6.25,0,0,1,.78-3.16,5.33,5.33,0,0,1,2.15-2.06,7.06,7.06,0,0,1,6.17,0Zm-4.79,3.09a3.58,3.58,0,0,0,0,4.25,2.27,2.27,0,0,0,1.71.72,2.24,2.24,0,0,0,1.7-.72,3.62,3.62,0,0,0,0-4.25,2.21,2.21,0,0,0-1.7-.73A2.25,2.25,0,0,0,776.89,1261.42Z"/><path class="cls-23" d="M794.17,1258.72a4.75,4.75,0,0,1,1.65,2.9H792.5a1.8,1.8,0,0,0-.65-1.11,2,2,0,0,0-1.28-.4,1.41,1.41,0,0,0-.91.25.91.91,0,0,0-.31.74.86.86,0,0,0,.57.81,9.07,9.07,0,0,0,1.8.54,18.89,18.89,0,0,1,2.17.63,3.73,3.73,0,0,1,1.48,1.05,2.94,2.94,0,0,1,.62,1.95,3,3,0,0,1-.54,1.77,3.56,3.56,0,0,1-1.56,1.2,6,6,0,0,1-2.4.44,6.21,6.21,0,0,1-3.76-1,4.38,4.38,0,0,1-1.72-3h3.42a1.56,1.56,0,0,0,.63,1.14,2.44,2.44,0,0,0,1.43.4,1.31,1.31,0,0,0,.91-.29.92.92,0,0,0,.31-.73.88.88,0,0,0-.57-.86,9.62,9.62,0,0,0-1.86-.55,16,16,0,0,1-2.11-.58,3.5,3.5,0,0,1-1.43-1,2.76,2.76,0,0,1-.61-1.9,3.09,3.09,0,0,1,1.19-2.52,5.15,5.15,0,0,1,3.34-1A5.25,5.25,0,0,1,794.17,1258.72Z"/><path class="cls-23" d="M808.79,1258.22a3.43,3.43,0,0,1,1.39,1.64V1254h3.55v15.36h-3.55v-2.1a3.43,3.43,0,0,1-1.39,1.64,4.09,4.09,0,0,1-2.28.61,4.66,4.66,0,0,1-2.56-.72,4.92,4.92,0,0,1-1.79-2.07,8,8,0,0,1,0-6.31,4.89,4.89,0,0,1,1.79-2.06,4.65,4.65,0,0,1,2.56-.71A4.17,4.17,0,0,1,808.79,1258.22Zm-3,3.25a3.44,3.44,0,0,0,0,4.16,2.61,2.61,0,0,0,3.67,0,3.33,3.33,0,0,0,0-4.11,2.62,2.62,0,0,0-3.67,0Z"/><path class="cls-23" d="M816.43,1253.16a2.49,2.49,0,0,1,3.07,0,1.74,1.74,0,0,1,.58,1.34,1.69,1.69,0,0,1-.58,1.32,2.49,2.49,0,0,1-3.07,0,1.69,1.69,0,0,1-.58-1.32A1.74,1.74,0,0,1,816.43,1253.16Zm3.3,4.6v11.58h-3.55v-11.58Z"/><path class="cls-23" d="M827.86,1256.18a1.77,1.77,0,0,0-1.26.38,1.72,1.72,0,0,0-.44,1.2h2.1v3h-2.1v8.59h-3.55v-8.59h-1.39v-3h1.39v-.12a4.32,4.32,0,0,1,1.26-3.33,5.11,5.11,0,0,1,3.64-1.18l.75,0v3Z"/><path class="cls-23" d="M840.71,1264.19h-8a2.69,2.69,0,0,0,.66,1.88,2.38,2.38,0,0,0,2.85.18,1.84,1.84,0,0,0,.68-1h3.76a5,5,0,0,1-1,2.19,5.36,5.36,0,0,1-2,1.52,6.3,6.3,0,0,1-2.64.55,6.15,6.15,0,0,1-3-.72,5.16,5.16,0,0,1-2.07-2.07,6.35,6.35,0,0,1-.75-3.15,6.45,6.45,0,0,1,.74-3.16,5,5,0,0,1,2.06-2.06,6.86,6.86,0,0,1,6.06,0,5,5,0,0,1,2,2,6,6,0,0,1,.71,2.94A4.73,4.73,0,0,1,840.71,1264.19Zm-4.1-3.2a2.25,2.25,0,0,0-1.57-.57,2.27,2.27,0,0,0-1.61.58,2.43,2.43,0,0,0-.73,1.7h4.52A2.11,2.11,0,0,0,836.61,1261Z"/><path class="cls-23" d="M847.92,1258.26a4.33,4.33,0,0,1,2.27-.62v3.79h-1a3.52,3.52,0,0,0-2.19.6,2.43,2.43,0,0,0-.78,2v5.27h-3.55v-11.58h3.55v2.18A4.91,4.91,0,0,1,847.92,1258.26Z"/><path class="cls-23" d="M862.58,1264.19h-8a2.69,2.69,0,0,0,.66,1.88,2.17,2.17,0,0,0,1.54.57,2.12,2.12,0,0,0,1.31-.39,1.84,1.84,0,0,0,.68-1h3.76a4.88,4.88,0,0,1-1,2.19,5.36,5.36,0,0,1-2,1.52,6.28,6.28,0,0,1-2.63.55,6.16,6.16,0,0,1-3-.72,5.16,5.16,0,0,1-2.07-2.07,6.35,6.35,0,0,1-.74-3.15,6.44,6.44,0,0,1,.73-3.16,5,5,0,0,1,2.07-2.06,6.22,6.22,0,0,1,3-.71,6.3,6.3,0,0,1,3,.7,5,5,0,0,1,2,2,5.88,5.88,0,0,1,.72,2.94A4.78,4.78,0,0,1,862.58,1264.19Zm-4.1-3.2a2.24,2.24,0,0,0-1.56-.57,2.32,2.32,0,0,0-1.62.58,2.43,2.43,0,0,0-.73,1.7h4.53A2.15,2.15,0,0,0,858.48,1261Z"/><path class="cls-23" d="M875,1259a5.37,5.37,0,0,1,1.18,3.66v6.72h-3.55V1263a2.57,2.57,0,0,0-.61-1.81,2.13,2.13,0,0,0-1.63-.66,2.24,2.24,0,0,0-1.72.69,2.76,2.76,0,0,0-.63,2v6.14h-3.55v-11.58h3.55v2.12a3.79,3.79,0,0,1,1.48-1.64,4.38,4.38,0,0,1,2.32-.6A4,4,0,0,1,875,1259Z"/><path class="cls-23" d="M885.12,1266.29v3h-1.6a4.58,4.58,0,0,1-3.16-1,4.24,4.24,0,0,1-1.13-3.33v-4.25h-1.56v-3h1.56v-2.84h3.54v2.84h2.33v3h-2.33v4.31a1,1,0,0,0,1.23,1.23Z"/><path class="cls-23" d="M898,1264.19h-8a2.69,2.69,0,0,0,.67,1.88,2.36,2.36,0,0,0,2.84.18,1.79,1.79,0,0,0,.68-1h3.76a4.86,4.86,0,0,1-1,2.19,5.48,5.48,0,0,1-2,1.52,6.63,6.63,0,0,1-5.65-.17,5.16,5.16,0,0,1-2.07-2.07,7.14,7.14,0,0,1,0-6.31,5.07,5.07,0,0,1,2.07-2.06,6.86,6.86,0,0,1,6.06,0,4.94,4.94,0,0,1,2,2,5.88,5.88,0,0,1,.72,2.94A4.78,4.78,0,0,1,898,1264.19Zm-4.09-3.2a2.28,2.28,0,0,0-1.57-.57,2.32,2.32,0,0,0-1.62.58,2.43,2.43,0,0,0-.73,1.7h4.53A2.15,2.15,0,0,0,893.91,1261Z"/><path class="cls-23" d="M907.68,1258.72a4.75,4.75,0,0,1,1.65,2.9H906a1.8,1.8,0,0,0-.65-1.11,2,2,0,0,0-1.28-.4,1.41,1.41,0,0,0-.91.25.91.91,0,0,0-.31.74.86.86,0,0,0,.57.81,9.07,9.07,0,0,0,1.8.54,18.89,18.89,0,0,1,2.17.63,3.73,3.73,0,0,1,1.48,1.05,2.94,2.94,0,0,1,.62,1.95,3,3,0,0,1-.54,1.77,3.56,3.56,0,0,1-1.56,1.2,6,6,0,0,1-2.4.44,6.21,6.21,0,0,1-3.76-1,4.38,4.38,0,0,1-1.72-3h3.42a1.54,1.54,0,0,0,.64,1.14,2.39,2.39,0,0,0,1.42.4,1.31,1.31,0,0,0,.91-.29.92.92,0,0,0,.31-.73.88.88,0,0,0-.57-.86,9.62,9.62,0,0,0-1.86-.55,16,16,0,0,1-2.11-.58,3.5,3.5,0,0,1-1.43-1,2.76,2.76,0,0,1-.61-1.9,3.09,3.09,0,0,1,1.19-2.52,5.17,5.17,0,0,1,3.34-1A5.25,5.25,0,0,1,907.68,1258.72Z"/><path class="cls-23" d="M253.61,1289.09h-8a2.67,2.67,0,0,0,.66,1.88,2.38,2.38,0,0,0,2.85.18,1.84,1.84,0,0,0,.68-1h3.76a5,5,0,0,1-1,2.19,5.26,5.26,0,0,1-1.95,1.52,6.3,6.3,0,0,1-2.64.55,6.21,6.21,0,0,1-3-.72,5.17,5.17,0,0,1-2.06-2.06,7.07,7.07,0,0,1,0-6.32,5,5,0,0,1,2.06-2.06,6.39,6.39,0,0,1,3-.71,6.28,6.28,0,0,1,3,.7,5,5,0,0,1,2,2,6,6,0,0,1,.71,2.94A4.73,4.73,0,0,1,253.61,1289.09Zm-4.1-3.2a2.25,2.25,0,0,0-1.57-.57,2.27,2.27,0,0,0-1.61.58,2.4,2.4,0,0,0-.73,1.7h4.52A2.11,2.11,0,0,0,249.51,1285.89Z"/><path class="cls-23" d="M261.25,1281.09a1.8,1.8,0,0,0-1.27.37,1.74,1.74,0,0,0-.44,1.2h2.1v3h-2.1v8.59H256v-8.59h-1.39v-3H256v-.12a4.31,4.31,0,0,1,1.25-3.33,5.16,5.16,0,0,1,3.64-1.18l.75,0v3.06Z"/><path class="cls-23" d="M274.09,1289.09h-8a2.67,2.67,0,0,0,.66,1.88,2.17,2.17,0,0,0,1.54.57,2.12,2.12,0,0,0,1.31-.39,1.84,1.84,0,0,0,.68-1H274a4.88,4.88,0,0,1-1,2.19,5.26,5.26,0,0,1-1.95,1.52,6.28,6.28,0,0,1-2.63.55,6.19,6.19,0,0,1-3-.72,5.13,5.13,0,0,1-2.07-2.06,7.07,7.07,0,0,1,0-6.32,5,5,0,0,1,2.07-2.06,6.86,6.86,0,0,1,6.06,0,5,5,0,0,1,2,2,5.88,5.88,0,0,1,.72,2.94A4.78,4.78,0,0,1,274.09,1289.09Zm-4.1-3.2a2.24,2.24,0,0,0-1.56-.57,2.32,2.32,0,0,0-1.62.58,2.45,2.45,0,0,0-.73,1.7h4.53A2.15,2.15,0,0,0,270,1285.89Z"/><path class="cls-23" d="M285,1283.75a5.52,5.52,0,0,1,1.91,3.39h-3.76a2,2,0,0,0-.68-1.16,2.09,2.09,0,0,0-1.31-.41,1.9,1.9,0,0,0-1.54.73,4.15,4.15,0,0,0,0,4.3,1.91,1.91,0,0,0,1.54.74,2,2,0,0,0,1.31-.42,2,2,0,0,0,.68-1.16h3.76a5.49,5.49,0,0,1-1.91,3.39,5.77,5.77,0,0,1-3.76,1.24,6.21,6.21,0,0,1-3-.72,5,5,0,0,1-2.06-2.06,7.07,7.07,0,0,1,0-6.32,5,5,0,0,1,2.06-2.06,6.39,6.39,0,0,1,3-.71A5.77,5.77,0,0,1,285,1283.75Z"/><path class="cls-23" d="M295.34,1291.19v3h-1.6a4.55,4.55,0,0,1-3.16-1,4.24,4.24,0,0,1-1.13-3.33v-4.25h-1.56v-3h1.56v-2.84H293v2.84h2.32v3H293V1290a1.28,1.28,0,0,0,.28,1,1.32,1.32,0,0,0,.94.27Z"/><path class="cls-23" d="M305.83,1283.23a5.26,5.26,0,0,1,2.14,2.07,6.77,6.77,0,0,1,0,6.31,5.24,5.24,0,0,1-2.14,2.06,6.45,6.45,0,0,1-3.08.72,6.52,6.52,0,0,1-3.09-.72,5.2,5.2,0,0,1-2.15-2.06,6.77,6.77,0,0,1,0-6.31,5.23,5.23,0,0,1,2.15-2.07,6.64,6.64,0,0,1,3.09-.71A6.57,6.57,0,0,1,305.83,1283.23Zm-4.79,3.1a3.56,3.56,0,0,0,0,4.24,2.36,2.36,0,0,0,3.41,0,3.6,3.6,0,0,0,0-4.24,2.33,2.33,0,0,0-3.41,0Z"/><path class="cls-23" d="M318.32,1283.62a4.75,4.75,0,0,1,1.65,2.9h-3.32a1.8,1.8,0,0,0-.65-1.11,2,2,0,0,0-1.28-.4,1.35,1.35,0,0,0-.91.26.89.89,0,0,0-.31.73.86.86,0,0,0,.57.81,9.15,9.15,0,0,0,1.79.54,18.55,18.55,0,0,1,2.18.63,3.73,3.73,0,0,1,1.48,1,2.94,2.94,0,0,1,.62,2,3,3,0,0,1-.54,1.77A3.56,3.56,0,0,1,318,1294a6,6,0,0,1-2.4.44,6.21,6.21,0,0,1-3.76-1,4.38,4.38,0,0,1-1.72-3h3.42a1.56,1.56,0,0,0,.63,1.14,2.37,2.37,0,0,0,1.43.4,1.36,1.36,0,0,0,.91-.28,1,1,0,0,0,.31-.74.88.88,0,0,0-.57-.86,10.4,10.4,0,0,0-1.86-.55,14.25,14.25,0,0,1-2.11-.58,3.44,3.44,0,0,1-1.44-1,2.79,2.79,0,0,1-.6-1.9,3.1,3.1,0,0,1,1.19-2.52,5.15,5.15,0,0,1,3.34-1A5.27,5.27,0,0,1,318.32,1283.62Z"/><path class="cls-23" d="M337.16,1289.09h-8a2.72,2.72,0,0,0,.67,1.88,2.13,2.13,0,0,0,1.53.57,2.1,2.1,0,0,0,1.31-.39,1.81,1.81,0,0,0,.69-1h3.75a4.86,4.86,0,0,1-1,2.19,5.42,5.42,0,0,1-1.95,1.52,6.3,6.3,0,0,1-2.64.55,6.21,6.21,0,0,1-3-.72,5,5,0,0,1-2.06-2.06,6.42,6.42,0,0,1-.75-3.16,6.34,6.34,0,0,1,.74-3.16,5,5,0,0,1,2.06-2.06,6.39,6.39,0,0,1,3-.71,6.28,6.28,0,0,1,3,.7,4.94,4.94,0,0,1,2,2,5.88,5.88,0,0,1,.72,2.94A5.59,5.59,0,0,1,337.16,1289.09Zm-4.1-3.2a2.28,2.28,0,0,0-1.57-.57,2.32,2.32,0,0,0-1.62.58,2.4,2.4,0,0,0-.72,1.7h4.52A2.15,2.15,0,0,0,333.06,1285.89Z"/><path class="cls-23" d="M349.62,1283.86a5.36,5.36,0,0,1,1.17,3.66v6.72h-3.55v-6.31a2.53,2.53,0,0,0-.61-1.81,2.12,2.12,0,0,0-1.63-.66,2.2,2.2,0,0,0-1.71.69,2.77,2.77,0,0,0-.64,1.95v6.14h-3.54v-11.58h3.54v2.12a3.87,3.87,0,0,1,1.49-1.64,4.37,4.37,0,0,1,2.31-.6A4,4,0,0,1,349.62,1283.86Z"/><path class="cls-23" d="M368.62,1280.9a6.71,6.71,0,0,1,2.38,4h-3.76a3.48,3.48,0,0,0-1.27-1.6,3.65,3.65,0,0,0-2.05-.58,3.13,3.13,0,0,0-2.51,1.14,4.67,4.67,0,0,0-1,3.06,4.61,4.61,0,0,0,1,3,3.15,3.15,0,0,0,2.51,1.13,3.65,3.65,0,0,0,2.05-.58,3.47,3.47,0,0,0,1.27-1.58H371a6.75,6.75,0,0,1-2.38,4,7.13,7.13,0,0,1-4.63,1.49,7.32,7.32,0,0,1-3.76-.95,6.43,6.43,0,0,1-2.5-2.64,9,9,0,0,1,0-7.77,6.43,6.43,0,0,1,2.5-2.64,7.32,7.32,0,0,1,3.76-.95A7.18,7.18,0,0,1,368.62,1280.9Z"/><path class="cls-23" d="M383.5,1283.86a5.32,5.32,0,0,1,1.18,3.66v6.72h-3.55v-6.31a2.53,2.53,0,0,0-.62-1.81,2.1,2.1,0,0,0-1.62-.66,2.24,2.24,0,0,0-1.72.69,2.77,2.77,0,0,0-.63,1.95v6.14H373v-15.35h3.55v5.89a3.81,3.81,0,0,1,1.49-1.64,4.32,4.32,0,0,1,2.31-.6A4,4,0,0,1,383.5,1283.86Z"/><path class="cls-23" d="M387.27,1278.07a2.49,2.49,0,0,1,3.07,0,1.71,1.71,0,0,1,.58,1.33,1.69,1.69,0,0,1-.58,1.32,2.49,2.49,0,0,1-3.07,0,1.69,1.69,0,0,1-.58-1.32A1.71,1.71,0,0,1,387.27,1278.07Zm3.3,4.59v11.58H387v-11.58Z"/><path class="cls-23" d="M396.57,1278.89v15.35H393v-15.35Z"/><path class="cls-23" d="M409.91,1289.09h-8a2.67,2.67,0,0,0,.66,1.88,2.38,2.38,0,0,0,2.85.18,1.84,1.84,0,0,0,.68-1h3.76a5,5,0,0,1-1,2.19,5.26,5.26,0,0,1-1.95,1.52,6.3,6.3,0,0,1-2.64.55,6.21,6.21,0,0,1-3-.72,5.17,5.17,0,0,1-2.06-2.06,7.07,7.07,0,0,1,0-6.32,5,5,0,0,1,2.06-2.06,6.39,6.39,0,0,1,3-.71,6.28,6.28,0,0,1,3,.7,5,5,0,0,1,2,2,6,6,0,0,1,.71,2.94A4.73,4.73,0,0,1,409.91,1289.09Zm-4.1-3.2a2.25,2.25,0,0,0-1.57-.57,2.27,2.27,0,0,0-1.61.58,2.4,2.4,0,0,0-.73,1.7h4.52A2.11,2.11,0,0,0,405.81,1285.89Z"/><path class="cls-23" d="M414.91,1290.69v3.55h-3.67v-3.55Z"/></g></svg>