<svg xmlns="http://www.w3.org/2000/svg" viewBox="0 0 570 717"><defs><style>.cls-1{fill:#fff;stroke:#000;stroke-miterlimit:10;stroke-width:1.85px;}.cls-2{font-size:24px;font-family:Poppins-Bold, Poppins;font-weight:700;}.cls-3{fill:#e01919;}</style></defs><g id="Imagen"><rect class="cls-1" x="57.32" y="225.55" width="450.18" height="443.45"/><line class="cls-1" x1="57.32" y1="669" x2="507.5" y2="225.55"/><line class="cls-1" x1="507.5" y1="669" x2="57.32" y2="225.55"/></g><g id="Texto"><text class="cls-2" transform="translate(59.17 58.37)">CAMINO A UNA NUEVA CONSTITUCIÓN</text><path d="M62.46,90.83h4.75v1.35H60.74V78.78h1.72Z"/><path d="M76.4,82.26a4.63,4.63,0,0,1,1.86,1.86A5.78,5.78,0,0,1,78.94,87a5.71,5.71,0,0,1-.68,2.84,4.6,4.6,0,0,1-1.86,1.85,5.89,5.89,0,0,1-5.38,0,4.69,4.69,0,0,1-1.87-1.85A5.71,5.71,0,0,1,68.47,87a5.78,5.78,0,0,1,.68-2.85A4.71,4.71,0,0,1,71,82.26a5.89,5.89,0,0,1,5.38,0ZM72,83.55a3.19,3.19,0,0,0-1.27,1.28,4.87,4.87,0,0,0,0,4.26A3.19,3.19,0,0,0,72,90.37a3.73,3.73,0,0,0,3.44,0,3.13,3.13,0,0,0,1.27-1.28,4.87,4.87,0,0,0,0-4.26,3.13,3.13,0,0,0-1.27-1.28,3.73,3.73,0,0,0-3.44,0Z"/><path d="M84.43,82.17a4.44,4.44,0,0,1,2.35-.6v1.89h-.53a3.69,3.69,0,0,0-2.39.75,3,3,0,0,0-.93,2.47v5.5H81.2V81.74h1.73v2.11A3.83,3.83,0,0,1,84.43,82.17Z"/><path d="M98,87.33H89.67a3.68,3.68,0,0,0,1,2.68A3.29,3.29,0,0,0,93,90.9a3.4,3.4,0,0,0,2.1-.63,2.63,2.63,0,0,0,1-1.71H98a4.35,4.35,0,0,1-.84,1.94,4.39,4.39,0,0,1-1.7,1.33,5.62,5.62,0,0,1-2.36.48,5.37,5.37,0,0,1-2.66-.65,4.48,4.48,0,0,1-1.81-1.85A5.81,5.81,0,0,1,88,87a5.88,5.88,0,0,1,.66-2.85,4.51,4.51,0,0,1,1.81-1.86,5.37,5.37,0,0,1,2.66-.65,5.26,5.26,0,0,1,2.65.65A4.43,4.43,0,0,1,97.49,84a4.85,4.85,0,0,1,.6,2.39A5.19,5.19,0,0,1,98,87.33ZM96,84.56a2.74,2.74,0,0,0-1.2-1.16A3.52,3.52,0,0,0,93.11,83a3.39,3.39,0,0,0-2.39.88,3.54,3.54,0,0,0-1,2.59h6.67A3.52,3.52,0,0,0,96,84.56Z"/><path d="M116.11,82.74a4.72,4.72,0,0,1,1.11,3.38v6.06h-1.73V86.27a3.38,3.38,0,0,0-.75-2.36,2.68,2.68,0,0,0-2.06-.82,2.8,2.8,0,0,0-2.19.91,3.74,3.74,0,0,0-.83,2.65v5.53h-1.73V86.27a3.33,3.33,0,0,0-.76-2.36,2.69,2.69,0,0,0-2-.82,2.85,2.85,0,0,0-2.22.91,3.79,3.79,0,0,0-.82,2.65v5.53h-1.73V81.74h1.73v2.38a3.36,3.36,0,0,1,1.36-1.89,3.92,3.92,0,0,1,2.25-.66,4,4,0,0,1,2.31.68,3.68,3.68,0,0,1,1.39,2,3.71,3.71,0,0,1,1.47-2,4,4,0,0,1,2.31-.7A3.86,3.86,0,0,1,116.11,82.74Z"/><path d="M126.86,77.92a1.22,1.22,0,0,1,.86-.3,1.19,1.19,0,0,1,.85.3,1,1,0,0,1,.32.77,1,1,0,0,1-.32.77,1.23,1.23,0,0,1-.85.29,1.26,1.26,0,0,1-.86-.29,1,1,0,0,1-.32-.77A1,1,0,0,1,126.86,77.92Zm1.71,3.82V92.18h-1.73V81.74Z"/><path d="M139.57,82.26a4.45,4.45,0,0,1,1.7,1.86,6.23,6.23,0,0,1,.62,2.85,6.16,6.16,0,0,1-.62,2.84,4.42,4.42,0,0,1-1.7,1.85,4.72,4.72,0,0,1-2.47.65,4.26,4.26,0,0,1-2.57-.77,3.91,3.91,0,0,1-1.46-2v7.6h-1.73V81.74h1.73V84.4a3.91,3.91,0,0,1,1.46-2,4.26,4.26,0,0,1,2.57-.77A4.72,4.72,0,0,1,139.57,82.26Zm-4.79,1.36A3.17,3.17,0,0,0,133.51,85a4.32,4.32,0,0,0-.46,2,4.25,4.25,0,0,0,.46,2,3.22,3.22,0,0,0,1.27,1.34,3.57,3.57,0,0,0,1.83.48,3.37,3.37,0,0,0,2.57-1,4.56,4.56,0,0,0,0-5.6,3.37,3.37,0,0,0-2.57-1A3.56,3.56,0,0,0,134.78,83.62Z"/><path d="M150.26,82.53a3.91,3.91,0,0,1,1.3,2.48h-1.65a2.4,2.4,0,0,0-.77-1.53,2.5,2.5,0,0,0-1.76-.6,2.15,2.15,0,0,0-1.45.45,1.5,1.5,0,0,0-.52,1.21,1.23,1.23,0,0,0,.35.92,2.24,2.24,0,0,0,.87.53c.35.12.83.25,1.43.39a15.23,15.23,0,0,1,1.88.54,3,3,0,0,1,1.21.88,2.49,2.49,0,0,1,.51,1.64,2.56,2.56,0,0,1-1,2.07,3.88,3.88,0,0,1-2.56.8,4.94,4.94,0,0,1-3-.89,3.61,3.61,0,0,1-1.39-2.49h1.68a2.13,2.13,0,0,0,.82,1.53,3,3,0,0,0,1.93.59,2,2,0,0,0,1.4-.45,1.58,1.58,0,0,0,.5-1.2,1.32,1.32,0,0,0-.36-1,2.44,2.44,0,0,0-.89-.55,13,13,0,0,0-1.47-.4,14.28,14.28,0,0,1-1.85-.53,3,3,0,0,1-1.18-.84,2.39,2.39,0,0,1-.48-1.57,2.61,2.61,0,0,1,1-2.12,4,4,0,0,1,2.64-.81A4.23,4.23,0,0,1,150.26,82.53Z"/><path d="M163.25,81.74V92.18h-1.73V89.72a3.53,3.53,0,0,1-1.42,2,4.19,4.19,0,0,1-2.36.68,3.87,3.87,0,0,1-2.93-1.17,4.66,4.66,0,0,1-1.12-3.36V81.74h1.73v5.91a3.36,3.36,0,0,0,.8,2.41,2.83,2.83,0,0,0,2.16.84,2.94,2.94,0,0,0,2.28-.92,3.81,3.81,0,0,0,.86-2.69V81.74Z"/><path d="M181.78,82.74a4.72,4.72,0,0,1,1.11,3.38v6.06h-1.73V86.27a3.38,3.38,0,0,0-.75-2.36,2.68,2.68,0,0,0-2.06-.82,2.8,2.8,0,0,0-2.19.91,3.79,3.79,0,0,0-.83,2.65v5.53H173.6V86.27a3.33,3.33,0,0,0-.76-2.36,2.69,2.69,0,0,0-2.05-.82,2.82,2.82,0,0,0-2.21.91,3.74,3.74,0,0,0-.83,2.65v5.53H166V81.74h1.73v2.38a3.36,3.36,0,0,1,1.36-1.89,3.92,3.92,0,0,1,2.25-.66,4,4,0,0,1,2.31.68,3.63,3.63,0,0,1,1.39,2,3.71,3.71,0,0,1,1.47-2,4,4,0,0,1,2.31-.7A3.86,3.86,0,0,1,181.78,82.74Z"/><path d="M199.36,82.37a4,4,0,0,1,1.47,2V78.12h1.73V92.18h-1.73V89.52a4,4,0,0,1-1.47,2,4.32,4.32,0,0,1-2.57.76,4.72,4.72,0,0,1-2.47-.65,4.36,4.36,0,0,1-1.7-1.85A6,6,0,0,1,192,87a6.11,6.11,0,0,1,.62-2.85,4.39,4.39,0,0,1,1.7-1.86,4.72,4.72,0,0,1,2.47-.65A4.32,4.32,0,0,1,199.36,82.37Zm-4.63,1.8a4.56,4.56,0,0,0,0,5.6,3.32,3.32,0,0,0,2.55,1,3.5,3.5,0,0,0,1.83-.48A3.29,3.29,0,0,0,200.38,89a4.24,4.24,0,0,0,.45-2,4.31,4.31,0,0,0-.45-2,3.23,3.23,0,0,0-1.27-1.34,3.49,3.49,0,0,0-1.83-.47A3.32,3.32,0,0,0,194.73,84.17Z"/><path d="M212.74,82.26a4.63,4.63,0,0,1,1.86,1.86,5.77,5.77,0,0,1,.67,2.85,5.71,5.71,0,0,1-.67,2.84,4.6,4.6,0,0,1-1.86,1.85,5.89,5.89,0,0,1-5.38,0,4.69,4.69,0,0,1-1.87-1.85A5.61,5.61,0,0,1,204.8,87a5.67,5.67,0,0,1,.69-2.85,4.71,4.71,0,0,1,1.87-1.86,5.89,5.89,0,0,1,5.38,0Zm-4.41,1.29a3.13,3.13,0,0,0-1.27,1.28,4.87,4.87,0,0,0,0,4.26,3.13,3.13,0,0,0,1.27,1.28,3.73,3.73,0,0,0,3.44,0A3.19,3.19,0,0,0,213,89.09a4.87,4.87,0,0,0,0-4.26,3.19,3.19,0,0,0-1.27-1.28,3.73,3.73,0,0,0-3.44,0Z"/><path d="M219.26,78.12V92.18h-1.72V78.12Z"/><path d="M229.46,82.26a4.63,4.63,0,0,1,1.86,1.86A5.77,5.77,0,0,1,232,87a5.71,5.71,0,0,1-.67,2.84,4.6,4.6,0,0,1-1.86,1.85,5.89,5.89,0,0,1-5.38,0,4.69,4.69,0,0,1-1.87-1.85,5.61,5.61,0,0,1-.69-2.84,5.67,5.67,0,0,1,.69-2.85,4.71,4.71,0,0,1,1.87-1.86,5.89,5.89,0,0,1,5.38,0Zm-4.41,1.29a3.13,3.13,0,0,0-1.27,1.28,4.87,4.87,0,0,0,0,4.26,3.13,3.13,0,0,0,1.27,1.28,3.73,3.73,0,0,0,3.44,0,3.19,3.19,0,0,0,1.27-1.28,4.87,4.87,0,0,0,0-4.26,3.19,3.19,0,0,0-1.27-1.28,3.73,3.73,0,0,0-3.44,0Z"/><path d="M237.48,82.17a4.48,4.48,0,0,1,2.36-.6v1.89h-.53a3.72,3.72,0,0,0-2.4.75,3,3,0,0,0-.93,2.47v5.5h-1.73V81.74H236v2.11A4,4,0,0,1,237.48,82.17Z"/><path d="M254.6,82.53A3.86,3.86,0,0,1,255.9,85h-1.65a2.4,2.4,0,0,0-.77-1.53,2.5,2.5,0,0,0-1.76-.6,2.15,2.15,0,0,0-1.45.45,1.5,1.5,0,0,0-.52,1.21,1.23,1.23,0,0,0,.35.92A2.24,2.24,0,0,0,251,86q.53.18,1.44.39a15.53,15.53,0,0,1,1.87.54,3,3,0,0,1,1.21.88,2.49,2.49,0,0,1,.51,1.64,2.56,2.56,0,0,1-1,2.07,3.88,3.88,0,0,1-2.56.8,4.94,4.94,0,0,1-3-.89,3.56,3.56,0,0,1-1.38-2.49h1.67a2.17,2.17,0,0,0,.82,1.53,3,3,0,0,0,1.93.59,2,2,0,0,0,1.4-.45,1.58,1.58,0,0,0,.5-1.2,1.32,1.32,0,0,0-.36-1,2.44,2.44,0,0,0-.89-.55,12.74,12.74,0,0,0-1.46-.4,14.5,14.5,0,0,1-1.86-.53,3,3,0,0,1-1.18-.84,2.39,2.39,0,0,1-.48-1.57,2.61,2.61,0,0,1,1-2.12,4,4,0,0,1,2.64-.81A4.23,4.23,0,0,1,254.6,82.53Z"/><path d="M258.33,77.92a1.22,1.22,0,0,1,.86-.3,1.19,1.19,0,0,1,.85.3,1,1,0,0,1,.33.77,1,1,0,0,1-.33.77,1.23,1.23,0,0,1-.85.29,1.26,1.26,0,0,1-.86-.29,1,1,0,0,1-.32-.77A1,1,0,0,1,258.33,77.92ZM260,81.74V92.18h-1.72V81.74Z"/><path d="M267.8,90.66v1.52h-1.3a3.33,3.33,0,0,1-2.38-.76,3.43,3.43,0,0,1-.79-2.55V83.25h-1.56V81.74h1.56v-2.6h1.75v2.6h2.7v1.51h-2.7v5.66a2,2,0,0,0,.37,1.38,1.81,1.81,0,0,0,1.28.37Z"/><path d="M283.7,82.37a4,4,0,0,1,1.47,2V81.74h1.73V92.18h-1.73V89.52a4,4,0,0,1-1.47,2,4.37,4.37,0,0,1-2.58.76,4.74,4.74,0,0,1-2.47-.65,4.42,4.42,0,0,1-1.7-1.85,6.16,6.16,0,0,1-.62-2.84,6.23,6.23,0,0,1,.62-2.85,4.45,4.45,0,0,1,1.7-1.86,4.74,4.74,0,0,1,2.47-.65A4.37,4.37,0,0,1,283.7,82.37Zm-4.64,1.8a4.56,4.56,0,0,0,0,5.6,3.34,3.34,0,0,0,2.56,1,3.52,3.52,0,0,0,1.83-.48A3.2,3.2,0,0,0,284.71,89a4.13,4.13,0,0,0,.46-2,4.2,4.2,0,0,0-.46-2,3.14,3.14,0,0,0-1.26-1.34,3.51,3.51,0,0,0-1.83-.47A3.34,3.34,0,0,0,279.06,84.17Z"/><path d="M305.41,82.74a4.72,4.72,0,0,1,1.11,3.38v6.06H304.8V86.27a3.38,3.38,0,0,0-.76-2.36,2.67,2.67,0,0,0-2.06-.82,2.8,2.8,0,0,0-2.19.91,3.79,3.79,0,0,0-.83,2.65v5.53h-1.73V86.27a3.33,3.33,0,0,0-.76-2.36,2.67,2.67,0,0,0-2.05-.82,2.83,2.83,0,0,0-2.21.91,3.79,3.79,0,0,0-.83,2.65v5.53h-1.73V81.74h1.73v2.38a3.41,3.41,0,0,1,1.36-1.89,3.92,3.92,0,0,1,2.25-.66,4,4,0,0,1,2.31.68,3.7,3.7,0,0,1,1.4,2,3.75,3.75,0,0,1,1.46-2,4,4,0,0,1,2.32-.7A3.86,3.86,0,0,1,305.41,82.74Z"/><path d="M318.72,87.33h-8.34a3.68,3.68,0,0,0,1,2.68,3.29,3.29,0,0,0,2.34.89,3.4,3.4,0,0,0,2.1-.63,2.63,2.63,0,0,0,1-1.71h1.84a4.35,4.35,0,0,1-.84,1.94,4.39,4.39,0,0,1-1.7,1.33,5.62,5.62,0,0,1-2.36.48,5.37,5.37,0,0,1-2.66-.65,4.48,4.48,0,0,1-1.81-1.85,5.81,5.81,0,0,1-.66-2.84,5.88,5.88,0,0,1,.66-2.85,4.51,4.51,0,0,1,1.81-1.86,5.37,5.37,0,0,1,2.66-.65,5.26,5.26,0,0,1,2.65.65A4.43,4.43,0,0,1,318.2,84a4.85,4.85,0,0,1,.6,2.39A5.19,5.19,0,0,1,318.72,87.33Zm-2.05-2.77a2.74,2.74,0,0,0-1.2-1.16,3.52,3.52,0,0,0-1.65-.38,3.39,3.39,0,0,0-2.39.88,3.54,3.54,0,0,0-1.05,2.59h6.67A3.52,3.52,0,0,0,316.67,84.56Z"/><path d="M326,90.66v1.52h-1.29a3.36,3.36,0,0,1-2.39-.76,3.43,3.43,0,0,1-.79-2.55V83.25H320V81.74h1.56v-2.6h1.75v2.6H326v1.51h-2.7v5.66a2,2,0,0,0,.37,1.38,1.83,1.83,0,0,0,1.28.37Z"/><path d="M329.42,92.46a2.42,2.42,0,0,1-.5,1.59,1.78,1.78,0,0,1-1.48.59V93.9a.88.88,0,0,0,.7-.25,1.27,1.27,0,0,0,.21-.81v-.17h-1V90.9h1.76A5.12,5.12,0,0,1,329.42,92.46Z"/><path d="M346.34,82.68A4.46,4.46,0,0,1,348,85.53h-1.82a2.65,2.65,0,0,0-1-1.76,3.64,3.64,0,0,0-3.76-.22,3.13,3.13,0,0,0-1.21,1.28,5.31,5.31,0,0,0,0,4.28,3.13,3.13,0,0,0,1.21,1.28,3.62,3.62,0,0,0,3.76-.23,2.7,2.7,0,0,0,1-1.77H348a4.46,4.46,0,0,1-1.61,2.86A5.09,5.09,0,0,1,343,92.31a5.37,5.37,0,0,1-2.66-.65,4.48,4.48,0,0,1-1.81-1.85A5.81,5.81,0,0,1,337.9,87a5.88,5.88,0,0,1,.66-2.85,4.51,4.51,0,0,1,1.81-1.86,5.37,5.37,0,0,1,2.66-.65A5.1,5.1,0,0,1,346.34,82.68Z"/><path d="M357.63,82.26a4.63,4.63,0,0,1,1.86,1.86,5.78,5.78,0,0,1,.68,2.85,5.71,5.71,0,0,1-.68,2.84,4.6,4.6,0,0,1-1.86,1.85,5.89,5.89,0,0,1-5.38,0,4.69,4.69,0,0,1-1.87-1.85A5.71,5.71,0,0,1,349.7,87a5.78,5.78,0,0,1,.68-2.85,4.71,4.71,0,0,1,1.87-1.86,5.89,5.89,0,0,1,5.38,0Zm-4.41,1.29A3.19,3.19,0,0,0,352,84.83a5,5,0,0,0,0,4.26,3.19,3.19,0,0,0,1.27,1.28,3.73,3.73,0,0,0,3.44,0,3.22,3.22,0,0,0,1.28-1.28,5,5,0,0,0,0-4.26,3.22,3.22,0,0,0-1.28-1.28,3.73,3.73,0,0,0-3.44,0Z"/><path d="M370.87,82.74A4.72,4.72,0,0,1,372,86.12v6.06h-1.73V86.27a3.36,3.36,0,0,0-.8-2.4,2.83,2.83,0,0,0-2.17-.83A2.94,2.94,0,0,0,365,84a3.81,3.81,0,0,0-.85,2.69v5.53h-1.73V81.74h1.73v2.47a3.55,3.55,0,0,1,1.41-1.95,4.09,4.09,0,0,1,2.35-.69A3.9,3.9,0,0,1,370.87,82.74Z"/><path d="M380.75,82.53A3.92,3.92,0,0,1,382.06,85H380.4a2.36,2.36,0,0,0-.77-1.53,2.48,2.48,0,0,0-1.75-.6,2.16,2.16,0,0,0-1.46.45,1.5,1.5,0,0,0-.52,1.21,1.27,1.27,0,0,0,.35.92,2.4,2.4,0,0,0,.87.53q.53.18,1.44.39a15,15,0,0,1,1.87.54,3,3,0,0,1,1.22.88,2.8,2.8,0,0,1-.46,3.71,3.87,3.87,0,0,1-2.55.8,4.9,4.9,0,0,1-3-.89,3.57,3.57,0,0,1-1.39-2.49h1.67a2.14,2.14,0,0,0,.83,1.53,2.93,2.93,0,0,0,1.93.59A2,2,0,0,0,380,90.6a1.55,1.55,0,0,0,.51-1.2,1.29,1.29,0,0,0-.37-1,2.36,2.36,0,0,0-.89-.55,12.18,12.18,0,0,0-1.46-.4A14.28,14.28,0,0,1,376,87a2.85,2.85,0,0,1-1.18-.84,2.34,2.34,0,0,1-.49-1.57,2.64,2.64,0,0,1,1-2.12,4,4,0,0,1,2.64-.81A4.22,4.22,0,0,1,380.75,82.53Z"/><path d="M394,87.33h-8.34a3.63,3.63,0,0,0,1,2.68,3.29,3.29,0,0,0,2.35.89,3.4,3.4,0,0,0,2.1-.63,2.67,2.67,0,0,0,1-1.71H394a4.36,4.36,0,0,1-.85,1.94,4.25,4.25,0,0,1-1.7,1.33,5.54,5.54,0,0,1-2.35.48,5.35,5.35,0,0,1-2.66-.65,4.51,4.51,0,0,1-1.82-1.85A5.81,5.81,0,0,1,384,87a5.88,5.88,0,0,1,.65-2.85,4.53,4.53,0,0,1,1.82-1.86,5.35,5.35,0,0,1,2.66-.65,5.28,5.28,0,0,1,2.65.65A4.43,4.43,0,0,1,393.47,84a5,5,0,0,1,.59,2.39A5.27,5.27,0,0,1,394,87.33Zm-2.05-2.77a2.79,2.79,0,0,0-1.2-1.16,3.57,3.57,0,0,0-1.65-.38,3.44,3.44,0,0,0-2.4.88,3.57,3.57,0,0,0-1,2.59h6.67A3.61,3.61,0,0,0,391.94,84.56Z"/><path d="M404.25,82.68a4.46,4.46,0,0,1,1.61,2.85H404a2.65,2.65,0,0,0-1-1.76,3.64,3.64,0,0,0-3.76-.22A3.13,3.13,0,0,0,398,84.83a5.31,5.31,0,0,0,0,4.28,3.13,3.13,0,0,0,1.21,1.28,3.62,3.62,0,0,0,3.76-.23,2.7,2.7,0,0,0,1-1.77h1.82a4.46,4.46,0,0,1-1.61,2.86,5.09,5.09,0,0,1-3.31,1.06,5.37,5.37,0,0,1-2.66-.65,4.48,4.48,0,0,1-1.81-1.85,5.81,5.81,0,0,1-.66-2.84,5.88,5.88,0,0,1,.66-2.85,4.51,4.51,0,0,1,1.81-1.86,5.37,5.37,0,0,1,2.66-.65A5.1,5.1,0,0,1,404.25,82.68Z"/><path d="M413.1,90.66v1.52h-1.29a3.38,3.38,0,0,1-2.39-.76,3.47,3.47,0,0,1-.78-2.55V83.25h-1.56V81.74h1.56v-2.6h1.74v2.6h2.7v1.51h-2.7v5.66a2,2,0,0,0,.37,1.38,1.84,1.84,0,0,0,1.29.37Z"/><path d="M424.73,87.33h-8.34a3.67,3.67,0,0,0,1,2.68,3.31,3.31,0,0,0,2.35.89,3.4,3.4,0,0,0,2.1-.63,2.67,2.67,0,0,0,1-1.71h1.84a4.36,4.36,0,0,1-.85,1.94,4.25,4.25,0,0,1-1.7,1.33,5.54,5.54,0,0,1-2.35.48,5.37,5.37,0,0,1-2.66-.65,4.51,4.51,0,0,1-1.82-1.85A5.93,5.93,0,0,1,414.7,87a6,6,0,0,1,.65-2.85,4.53,4.53,0,0,1,1.82-1.86,5.37,5.37,0,0,1,2.66-.65,5.28,5.28,0,0,1,2.65.65A4.43,4.43,0,0,1,424.21,84a4.85,4.85,0,0,1,.6,2.39A5.19,5.19,0,0,1,424.73,87.33Zm-2.05-2.77a2.74,2.74,0,0,0-1.2-1.16,3.57,3.57,0,0,0-1.65-.38,3.44,3.44,0,0,0-2.4.88,3.57,3.57,0,0,0-1,2.59h6.67A3.52,3.52,0,0,0,422.68,84.56Z"/><path d="M432,90.66v1.52h-1.29a3.33,3.33,0,0,1-2.38-.76,3.43,3.43,0,0,1-.79-2.55V83.25H426V81.74h1.56v-2.6h1.75v2.6H432v1.51h-2.69v5.66a2,2,0,0,0,.37,1.38,1.79,1.79,0,0,0,1.28.37Z"/><path d="M443.42,81.74V92.18H441.7V89.72a3.53,3.53,0,0,1-1.42,2,4.19,4.19,0,0,1-2.36.68A3.87,3.87,0,0,1,435,91.18a4.66,4.66,0,0,1-1.12-3.36V81.74h1.73v5.91a3.4,3.4,0,0,0,.79,2.41,2.87,2.87,0,0,0,2.17.84,2.94,2.94,0,0,0,2.28-.92,3.81,3.81,0,0,0,.86-2.69V81.74Z"/><path d="M455.72,87.33h-8.34a3.63,3.63,0,0,0,1,2.68,3.29,3.29,0,0,0,2.35.89,3.4,3.4,0,0,0,2.1-.63,2.67,2.67,0,0,0,1-1.71h1.84a4.37,4.37,0,0,1-2.55,3.27,5.58,5.58,0,0,1-2.35.48,5.35,5.35,0,0,1-2.66-.65,4.51,4.51,0,0,1-1.82-1.85,5.81,5.81,0,0,1-.65-2.84,5.88,5.88,0,0,1,.65-2.85,4.53,4.53,0,0,1,1.82-1.86,5.35,5.35,0,0,1,2.66-.65,5.28,5.28,0,0,1,2.65.65A4.43,4.43,0,0,1,455.2,84a5,5,0,0,1,.59,2.39A5.27,5.27,0,0,1,455.72,87.33Zm-2.05-2.77a2.85,2.85,0,0,0-1.2-1.16,3.57,3.57,0,0,0-1.65-.38,3.44,3.44,0,0,0-2.4.88,3.57,3.57,0,0,0-1,2.59h6.67A3.61,3.61,0,0,0,453.67,84.56Z"/><path d="M461.28,82.17a4.48,4.48,0,0,1,2.36-.6v1.89h-.53a3.7,3.7,0,0,0-2.4.75,3,3,0,0,0-.93,2.47v5.5h-1.73V81.74h1.73v2.11A3.83,3.83,0,0,1,461.28,82.17Z"/><path d="M479.14,82.37a4,4,0,0,1,1.47,2V81.74h1.73V92.18h-1.73V89.52a4,4,0,0,1-1.47,2,4.32,4.32,0,0,1-2.57.76,4.72,4.72,0,0,1-2.47-.65,4.42,4.42,0,0,1-1.7-1.85,6.16,6.16,0,0,1-.62-2.84,6.23,6.23,0,0,1,.62-2.85,4.45,4.45,0,0,1,1.7-1.86,4.72,4.72,0,0,1,2.47-.65A4.32,4.32,0,0,1,479.14,82.37Zm-4.63,1.8a4.56,4.56,0,0,0,0,5.6,3.34,3.34,0,0,0,2.55,1,3.47,3.47,0,0,0,1.83-.48A3.29,3.29,0,0,0,480.16,89a4.24,4.24,0,0,0,.45-2,4.31,4.31,0,0,0-.45-2,3.23,3.23,0,0,0-1.27-1.34,3.46,3.46,0,0,0-1.83-.47A3.34,3.34,0,0,0,474.51,84.17Z"/><path d="M492,82.37a4,4,0,0,1,1.47,2V78.12h1.73V92.18h-1.73V89.52a4,4,0,0,1-1.47,2,4.35,4.35,0,0,1-2.58.76,4.74,4.74,0,0,1-2.47-.65,4.42,4.42,0,0,1-1.7-1.85,6.16,6.16,0,0,1-.62-2.84,6.23,6.23,0,0,1,.62-2.85,4.45,4.45,0,0,1,1.7-1.86,4.74,4.74,0,0,1,2.47-.65A4.35,4.35,0,0,1,492,82.37Zm-4.64,1.8a4.56,4.56,0,0,0,0,5.6,3.34,3.34,0,0,0,2.56,1,3.52,3.52,0,0,0,1.83-.48A3.2,3.2,0,0,0,493,89a4.13,4.13,0,0,0,.46-2,4.2,4.2,0,0,0-.46-2,3.14,3.14,0,0,0-1.26-1.34,3.51,3.51,0,0,0-1.83-.47A3.34,3.34,0,0,0,487.31,84.17Z"/><path d="M497.92,77.92a1.22,1.22,0,0,1,.86-.3,1.19,1.19,0,0,1,.85.3,1,1,0,0,1,.33.77,1,1,0,0,1-.33.77,1.23,1.23,0,0,1-.85.29,1.26,1.26,0,0,1-.86-.29,1,1,0,0,1-.32-.77A1,1,0,0,1,497.92,77.92Zm1.71,3.82V92.18H497.9V81.74Z"/><path d="M508.33,84.48v1.46h-7.6V84.48Z"/><path d="M69,105.06a4.45,4.45,0,0,1,1.7,1.86,6.84,6.84,0,0,1,0,5.69,4.48,4.48,0,0,1-1.7,1.85,4.72,4.72,0,0,1-2.47.65,4.26,4.26,0,0,1-2.57-.77,3.89,3.89,0,0,1-1.46-2v7.61H60.74V104.54h1.72v2.66a3.91,3.91,0,0,1,1.46-2,4.26,4.26,0,0,1,2.57-.77A4.72,4.72,0,0,1,69,105.06Zm-4.79,1.36a3.23,3.23,0,0,0-1.27,1.34,4.31,4.31,0,0,0-.45,2,4.24,4.24,0,0,0,.45,2,3.29,3.29,0,0,0,1.27,1.34,3.57,3.57,0,0,0,1.83.48,3.37,3.37,0,0,0,2.57-1,4.56,4.56,0,0,0,0-5.6A3.37,3.37,0,0,0,66,106,3.67,3.67,0,0,0,64.17,106.42Z"/><path d="M73.56,100.71a1.41,1.41,0,0,1,1.71,0,1,1,0,0,1,.32.77,1,1,0,0,1-.32.77,1.37,1.37,0,0,1-1.71,0,1,1,0,0,1-.32-.77A1,1,0,0,1,73.56,100.71Zm1.71,3.83V115H73.54V104.54Z"/><path d="M84.15,105.33a3.86,3.86,0,0,1,1.3,2.48H83.8a2.4,2.4,0,0,0-.77-1.53,2.5,2.5,0,0,0-1.76-.6,2.15,2.15,0,0,0-1.45.45,1.5,1.5,0,0,0-.52,1.21,1.27,1.27,0,0,0,.35.92,2.24,2.24,0,0,0,.87.53q.53.18,1.44.39a15.53,15.53,0,0,1,1.87.54,3,3,0,0,1,1.22.89,2.48,2.48,0,0,1,.5,1.63,2.56,2.56,0,0,1-1,2.07,3.88,3.88,0,0,1-2.56.8,4.88,4.88,0,0,1-3-.9,3.55,3.55,0,0,1-1.38-2.48h1.67a2.18,2.18,0,0,0,.83,1.54,3,3,0,0,0,1.92.58,2,2,0,0,0,1.4-.45,1.53,1.53,0,0,0,.5-1.2,1.31,1.31,0,0,0-.36-1,2.44,2.44,0,0,0-.89-.55,12.18,12.18,0,0,0-1.46-.4,13,13,0,0,1-1.86-.53,2.81,2.81,0,0,1-1.17-.85,2.3,2.3,0,0,1-.49-1.56,2.64,2.64,0,0,1,1-2.12,4,4,0,0,1,2.64-.81A4.22,4.22,0,0,1,84.15,105.33Z"/><path d="M95.79,105.47a4.54,4.54,0,0,1,1.61,2.85H95.58a2.65,2.65,0,0,0-1-1.75,3.64,3.64,0,0,0-3.76-.22,3,3,0,0,0-1.2,1.28,5.21,5.21,0,0,0,0,4.28,3,3,0,0,0,1.2,1.28,3.62,3.62,0,0,0,3.76-.23,2.7,2.7,0,0,0,1-1.77H97.4a4.46,4.46,0,0,1-1.61,2.86,5.07,5.07,0,0,1-3.31,1.06,5.4,5.4,0,0,1-2.66-.65A4.61,4.61,0,0,1,88,112.61a6.46,6.46,0,0,1,0-5.69,4.57,4.57,0,0,1,1.81-1.86,5.4,5.4,0,0,1,2.66-.65A5.13,5.13,0,0,1,95.79,105.47Z"/><path d="M99.68,100.71a1.26,1.26,0,0,1,.86-.29,1.23,1.23,0,0,1,.85.29,1,1,0,0,1,.33.77,1,1,0,0,1-.33.77,1.19,1.19,0,0,1-.85.3,1.22,1.22,0,0,1-.86-.3,1,1,0,0,1-.32-.77A1,1,0,0,1,99.68,100.71Zm1.71,3.83V115H99.67V104.54Z"/><path d="M112.6,105.54a4.68,4.68,0,0,1,1.13,3.37V115H112v-5.9a3.36,3.36,0,0,0-.8-2.4,2.89,2.89,0,0,0-2.17-.83,2.94,2.94,0,0,0-2.28.92,3.81,3.81,0,0,0-.85,2.69V115h-1.73V104.54h1.73V107a3.5,3.5,0,0,1,1.41-2,4.09,4.09,0,0,1,2.35-.69A3.86,3.86,0,0,1,112.6,105.54Z"/><path d="M123.23,105.17a4,4,0,0,1,1.48,2v-2.66h1.73v10.61a5.35,5.35,0,0,1-.61,2.56,4.43,4.43,0,0,1-1.71,1.75,5.1,5.1,0,0,1-2.57.63,5.51,5.51,0,0,1-3.44-1,4.51,4.51,0,0,1-1.69-2.75h1.71a3,3,0,0,0,1.15,1.65,3.69,3.69,0,0,0,2.18.6,3.17,3.17,0,0,0,2.33-.91,3.37,3.37,0,0,0,.92-2.51v-2.84a4,4,0,0,1-1.48,2,4.25,4.25,0,0,1-2.57.76,4.74,4.74,0,0,1-2.47-.65,4.48,4.48,0,0,1-1.7-1.85,6.84,6.84,0,0,1,0-5.69,4.45,4.45,0,0,1,1.7-1.86,4.74,4.74,0,0,1,2.47-.65A4.25,4.25,0,0,1,123.23,105.17ZM118.6,107a4.56,4.56,0,0,0,0,5.6,3.34,3.34,0,0,0,2.55,1,3.53,3.53,0,0,0,1.84-.48,3.2,3.2,0,0,0,1.26-1.34,4.13,4.13,0,0,0,.46-2,4.2,4.2,0,0,0-.46-2,3.14,3.14,0,0,0-1.26-1.34,3.62,3.62,0,0,0-1.84-.47A3.34,3.34,0,0,0,118.6,107Z"/><path d="M146.05,110.13h-8.34a3.68,3.68,0,0,0,1,2.68,3.33,3.33,0,0,0,2.34.89,3.4,3.4,0,0,0,2.1-.63,2.66,2.66,0,0,0,1-1.7h1.84a4.47,4.47,0,0,1-.84,1.93,4.35,4.35,0,0,1-1.71,1.33,5.54,5.54,0,0,1-2.35.48,5.37,5.37,0,0,1-2.66-.65,4.63,4.63,0,0,1-1.82-1.85,6.55,6.55,0,0,1,0-5.69,4.59,4.59,0,0,1,1.82-1.86,5.37,5.37,0,0,1,2.66-.65,5.26,5.26,0,0,1,2.65.65,4.43,4.43,0,0,1,1.73,1.73,4.85,4.85,0,0,1,.6,2.39A5.19,5.19,0,0,1,146.05,110.13ZM144,107.36a2.74,2.74,0,0,0-1.2-1.16,3.57,3.57,0,0,0-1.65-.38,3.44,3.44,0,0,0-2.4.88,3.57,3.57,0,0,0-1,2.59h6.67A3.52,3.52,0,0,0,144,107.36Z"/><path d="M150.12,100.92v14h-1.73v-14Z"/><path d="M152.91,100.71a1.23,1.23,0,0,1,.85-.29,1.26,1.26,0,0,1,.86.29,1,1,0,0,1,.32.77,1,1,0,0,1-.32.77,1.22,1.22,0,0,1-.86.3,1.19,1.19,0,0,1-.85-.3,1,1,0,0,1-.32-.77A1,1,0,0,1,152.91,100.71Zm1.71,3.83V115h-1.73V104.54Z"/><path d="M162.37,113.46V115h-1.29a3.29,3.29,0,0,1-2.38-.76,3.39,3.39,0,0,1-.79-2.54V106h-1.56v-1.5h1.56v-2.6h1.74v2.6h2.7V106h-2.7v5.67a1.9,1.9,0,0,0,.38,1.37,1.75,1.75,0,0,0,1.28.38Z"/><path d="M165.75,115.26a2.42,2.42,0,0,1-.49,1.59,1.8,1.8,0,0,1-1.48.6v-.75a.86.86,0,0,0,.69-.25,1.21,1.21,0,0,0,.22-.81v-.17h-1V113.7h1.77A5.09,5.09,0,0,1,165.75,115.26Z"/><path d="M181.25,105.33a3.92,3.92,0,0,1,1.31,2.48H180.9a2.36,2.36,0,0,0-.77-1.53,2.48,2.48,0,0,0-1.75-.6,2.16,2.16,0,0,0-1.46.45,1.5,1.5,0,0,0-.52,1.21,1.27,1.27,0,0,0,.35.92,2.36,2.36,0,0,0,.88.53,13.91,13.91,0,0,0,1.43.39,15,15,0,0,1,1.87.54,3,3,0,0,1,1.22.89,2.48,2.48,0,0,1,.5,1.63,2.56,2.56,0,0,1-1,2.07,3.87,3.87,0,0,1-2.55.8,4.84,4.84,0,0,1-3-.9,3.53,3.53,0,0,1-1.39-2.48h1.67a2.18,2.18,0,0,0,.83,1.54,3,3,0,0,0,1.93.58,2,2,0,0,0,1.39-.45,1.54,1.54,0,0,0,.51-1.2,1.27,1.27,0,0,0-.37-1,2.36,2.36,0,0,0-.89-.55,12.18,12.18,0,0,0-1.46-.4,12.84,12.84,0,0,1-1.85-.53,2.78,2.78,0,0,1-1.18-.85,2.35,2.35,0,0,1-.49-1.56,2.64,2.64,0,0,1,1-2.12,4,4,0,0,1,2.64-.81A4.22,4.22,0,0,1,181.25,105.33Z"/><path d="M194.49,110.13h-8.34a3.63,3.63,0,0,0,1,2.68,3.34,3.34,0,0,0,2.35.89,3.4,3.4,0,0,0,2.1-.63,2.65,2.65,0,0,0,1-1.7h1.85a4.37,4.37,0,0,1-.85,1.93,4.25,4.25,0,0,1-1.7,1.33,5.54,5.54,0,0,1-2.35.48,5.35,5.35,0,0,1-2.66-.65,4.57,4.57,0,0,1-1.82-1.85,6.55,6.55,0,0,1,0-5.69,4.53,4.53,0,0,1,1.82-1.86,5.35,5.35,0,0,1,2.66-.65,5.28,5.28,0,0,1,2.65.65,4.34,4.34,0,0,1,1.72,1.73,4.85,4.85,0,0,1,.6,2.39A5.27,5.27,0,0,1,194.49,110.13Zm-2.05-2.77a2.79,2.79,0,0,0-1.2-1.16,3.57,3.57,0,0,0-1.65-.38,3.44,3.44,0,0,0-2.4.88,3.57,3.57,0,0,0-1,2.59h6.67A3.61,3.61,0,0,0,192.44,107.36Z"/><path d="M203.67,105.17a4,4,0,0,1,1.48,2v-6.28h1.73v14h-1.73v-2.66a4,4,0,0,1-1.48,2,4.25,4.25,0,0,1-2.57.76,4.72,4.72,0,0,1-2.47-.65,4.48,4.48,0,0,1-1.7-1.85,6.84,6.84,0,0,1,0-5.69,4.45,4.45,0,0,1,1.7-1.86,4.72,4.72,0,0,1,2.47-.65A4.25,4.25,0,0,1,203.67,105.17ZM199,107a4.56,4.56,0,0,0,0,5.6,3.34,3.34,0,0,0,2.55,1,3.53,3.53,0,0,0,1.84-.48,3.2,3.2,0,0,0,1.26-1.34,4.13,4.13,0,0,0,.46-2,4.2,4.2,0,0,0-.46-2,3.14,3.14,0,0,0-1.26-1.34,3.62,3.62,0,0,0-1.84-.47A3.34,3.34,0,0,0,199,107Z"/><path d="M223.82,105.17a4,4,0,0,1,1.47,2v-6.28H227v14h-1.73v-2.66a4,4,0,0,1-1.47,2,4.25,4.25,0,0,1-2.57.76,4.72,4.72,0,0,1-2.47-.65,4.42,4.42,0,0,1-1.7-1.85,6.84,6.84,0,0,1,0-5.69,4.39,4.39,0,0,1,1.7-1.86,4.72,4.72,0,0,1,2.47-.65A4.25,4.25,0,0,1,223.82,105.17Zm-4.64,1.8a4.6,4.6,0,0,0,0,5.6,3.36,3.36,0,0,0,2.56,1,3.5,3.5,0,0,0,1.83-.48,3.29,3.29,0,0,0,1.27-1.34,4.24,4.24,0,0,0,.45-2,4.31,4.31,0,0,0-.45-2,3.23,3.23,0,0,0-1.27-1.34,3.59,3.59,0,0,0-1.83-.47A3.36,3.36,0,0,0,219.18,107Z"/><path d="M229.8,100.71a1.23,1.23,0,0,1,.85-.29,1.26,1.26,0,0,1,.86.29,1,1,0,0,1,.32.77,1,1,0,0,1-.32.77,1.22,1.22,0,0,1-.86.3,1.19,1.19,0,0,1-.85-.3,1,1,0,0,1-.33-.77A1,1,0,0,1,229.8,100.71Zm1.71,3.83V115h-1.73V104.54Z"/><path d="M241.13,105.17a4,4,0,0,1,1.47,2v-2.66h1.73V115H242.6v-2.66a4,4,0,0,1-1.47,2,4.25,4.25,0,0,1-2.57.76,4.78,4.78,0,0,1-2.48-.65,4.55,4.55,0,0,1-1.7-1.85,6.94,6.94,0,0,1,0-5.69,4.52,4.52,0,0,1,1.7-1.86,4.78,4.78,0,0,1,2.48-.65A4.25,4.25,0,0,1,241.13,105.17Zm-4.64,1.8a4.56,4.56,0,0,0,0,5.6,3.36,3.36,0,0,0,2.56,1,3.52,3.52,0,0,0,1.83-.48,3.29,3.29,0,0,0,1.27-1.34,4.24,4.24,0,0,0,.45-2,4.31,4.31,0,0,0-.45-2,3.23,3.23,0,0,0-1.27-1.34,3.61,3.61,0,0,0-1.83-.47A3.36,3.36,0,0,0,236.49,107Z"/><path d="M262.85,105.54a4.72,4.72,0,0,1,1.11,3.37V115h-1.73v-5.9a3.36,3.36,0,0,0-.75-2.36,2.68,2.68,0,0,0-2.06-.82,2.85,2.85,0,0,0-2.2.9,3.83,3.83,0,0,0-.82,2.66V115h-1.73v-5.9a3.36,3.36,0,0,0-.76-2.36,2.69,2.69,0,0,0-2-.82,2.86,2.86,0,0,0-2.22.9,3.83,3.83,0,0,0-.82,2.66V115h-1.73V104.54h1.73v2.38a3.36,3.36,0,0,1,1.35-1.89,4.21,4.21,0,0,1,4.56,0,3.64,3.64,0,0,1,1.4,2,3.79,3.79,0,0,1,1.46-2,4,4,0,0,1,2.32-.7A3.86,3.86,0,0,1,262.85,105.54Z"/><path d="M282.41,105.54a4.68,4.68,0,0,1,1.13,3.37V115h-1.73v-5.9a3.36,3.36,0,0,0-.8-2.4,2.89,2.89,0,0,0-2.17-.83,2.94,2.94,0,0,0-2.28.92,3.81,3.81,0,0,0-.85,2.69V115H274V104.54h1.73V107a3.5,3.5,0,0,1,1.41-2,4.09,4.09,0,0,1,2.35-.69A3.86,3.86,0,0,1,282.41,105.54Z"/><path d="M293.62,105.06a4.63,4.63,0,0,1,1.86,1.86,6.38,6.38,0,0,1,0,5.69,4.66,4.66,0,0,1-1.86,1.85,5.89,5.89,0,0,1-5.38,0,4.69,4.69,0,0,1-1.87-1.85,6.21,6.21,0,0,1,0-5.69,4.65,4.65,0,0,1,1.87-1.86,5.89,5.89,0,0,1,5.38,0Zm-4.41,1.29a3.15,3.15,0,0,0-1.28,1.28,4.37,4.37,0,0,0-.48,2.14,4.32,4.32,0,0,0,.48,2.12,3.22,3.22,0,0,0,1.28,1.28,3.56,3.56,0,0,0,1.72.42,3.62,3.62,0,0,0,1.72-.42,3.19,3.19,0,0,0,1.27-1.28,4.32,4.32,0,0,0,.48-2.12,4.37,4.37,0,0,0-.48-2.14,3.13,3.13,0,0,0-1.27-1.28,3.62,3.62,0,0,0-1.72-.42A3.56,3.56,0,0,0,289.21,106.35Z"/><path d="M306.85,105.54a4.73,4.73,0,0,1,1.12,3.37V115h-1.73v-5.9a3.36,3.36,0,0,0-.8-2.4,2.86,2.86,0,0,0-2.16-.83,2.94,2.94,0,0,0-2.28.92,3.81,3.81,0,0,0-.86,2.69V115h-1.73V104.54h1.73V107a3.56,3.56,0,0,1,1.42-2,4.05,4.05,0,0,1,2.34-.69A3.9,3.9,0,0,1,306.85,105.54Z"/><path d="M319.9,104.54V115h-1.73v-2.45a3.51,3.51,0,0,1-1.41,2,4.2,4.2,0,0,1-2.37.68,3.89,3.89,0,0,1-2.93-1.17,4.7,4.7,0,0,1-1.12-3.36v-6.08h1.73v5.91a3.4,3.4,0,0,0,.8,2.41,2.84,2.84,0,0,0,2.17.84,3,3,0,0,0,2.28-.92,3.81,3.81,0,0,0,.85-2.69v-5.55Z"/><path d="M338.44,105.54a4.72,4.72,0,0,1,1.11,3.37V115h-1.73v-5.9a3.36,3.36,0,0,0-.75-2.36,2.68,2.68,0,0,0-2.06-.82,2.84,2.84,0,0,0-2.2.9,3.83,3.83,0,0,0-.82,2.66V115h-1.73v-5.9a3.36,3.36,0,0,0-.76-2.36,2.7,2.7,0,0,0-2.06-.82,2.86,2.86,0,0,0-2.21.9,3.84,3.84,0,0,0-.83,2.66V115h-1.73V104.54h1.73v2.38a3.42,3.42,0,0,1,1.36-1.89,4.21,4.21,0,0,1,4.56,0,3.7,3.7,0,0,1,1.4,2,3.79,3.79,0,0,1,1.46-2,4,4,0,0,1,2.32-.7A3.88,3.88,0,0,1,338.44,105.54Z"/><path d="M358,105.54a4.72,4.72,0,0,1,1.11,3.37V115h-1.73v-5.9a3.36,3.36,0,0,0-.75-2.36,2.68,2.68,0,0,0-2.06-.82,2.84,2.84,0,0,0-2.2.9,3.83,3.83,0,0,0-.82,2.66V115h-1.73v-5.9a3.36,3.36,0,0,0-.76-2.36,2.69,2.69,0,0,0-2.05-.82,2.86,2.86,0,0,0-2.22.9,3.83,3.83,0,0,0-.82,2.66V115h-1.73V104.54H344v2.38a3.36,3.36,0,0,1,1.35-1.89,4.21,4.21,0,0,1,4.56,0,3.64,3.64,0,0,1,1.4,2,3.79,3.79,0,0,1,1.46-2,4,4,0,0,1,2.32-.7A3.86,3.86,0,0,1,358,105.54Z"/><path d="M362.5,104.54l3.38,8.21,3.14-8.21h1.91l-6.19,15.38h-2L365,114.8l-4.39-10.26Z"/><path d="M388.29,105.54a4.68,4.68,0,0,1,1.12,3.37V115h-1.73v-5.9a3.36,3.36,0,0,0-.8-2.4,2.86,2.86,0,0,0-2.16-.83,2.94,2.94,0,0,0-2.28.92,3.81,3.81,0,0,0-.86,2.69V115h-1.73V104.54h1.73V107a3.56,3.56,0,0,1,1.42-2,4.05,4.05,0,0,1,2.34-.69A3.9,3.9,0,0,1,388.29,105.54Z"/><path d="M392.09,100.71a1.23,1.23,0,0,1,.85-.29,1.26,1.26,0,0,1,.86.29,1,1,0,0,1,.32.77,1,1,0,0,1-.32.77,1.22,1.22,0,0,1-.86.3,1.19,1.19,0,0,1-.85-.3,1,1,0,0,1-.33-.77A1,1,0,0,1,392.09,100.71Zm1.71,3.83V115h-1.73V104.54Z"/><path d="M404.8,105.06a4.45,4.45,0,0,1,1.7,1.86,6.84,6.84,0,0,1,0,5.69,4.48,4.48,0,0,1-1.7,1.85,4.74,4.74,0,0,1-2.47.65,4.31,4.31,0,0,1-2.58-.77,3.93,3.93,0,0,1-1.45-2V115h-1.73v-14h1.73v6.28a4,4,0,0,1,1.45-2,4.31,4.31,0,0,1,2.58-.77A4.74,4.74,0,0,1,404.8,105.06ZM400,106.42a3.17,3.17,0,0,0-1.27,1.34,4.2,4.2,0,0,0-.46,2,4.13,4.13,0,0,0,.46,2,3.22,3.22,0,0,0,1.27,1.34,3.51,3.51,0,0,0,1.82.48,3.37,3.37,0,0,0,2.58-1,4.56,4.56,0,0,0,0-5.6,3.37,3.37,0,0,0-2.58-1A3.6,3.6,0,0,0,400,106.42Z"/><path d="M417.81,105.54a4.68,4.68,0,0,1,1.12,3.37V115h-1.72v-5.9a3.36,3.36,0,0,0-.8-2.4,2.89,2.89,0,0,0-2.17-.83,2.94,2.94,0,0,0-2.28.92,3.81,3.81,0,0,0-.85,2.69V115h-1.73v-14h1.73V107a3.5,3.5,0,0,1,1.41-2,4.09,4.09,0,0,1,2.35-.69A3.88,3.88,0,0,1,417.81,105.54Z"/><path d="M438.46,110.13h-8.35a3.68,3.68,0,0,0,1,2.68,3.34,3.34,0,0,0,2.35.89,3.44,3.44,0,0,0,2.1-.63,2.65,2.65,0,0,0,1-1.7h1.85a4.37,4.37,0,0,1-.85,1.93,4.32,4.32,0,0,1-1.7,1.33,5.59,5.59,0,0,1-2.36.48,5.4,5.4,0,0,1-2.66-.65,4.61,4.61,0,0,1-1.81-1.85,6.46,6.46,0,0,1,0-5.69,4.57,4.57,0,0,1,1.81-1.86,5.4,5.4,0,0,1,2.66-.65,5.23,5.23,0,0,1,2.65.65,4.36,4.36,0,0,1,1.73,1.73,4.85,4.85,0,0,1,.6,2.39A6.37,6.37,0,0,1,438.46,110.13Zm-2.06-2.77a2.77,2.77,0,0,0-1.19-1.16,3.58,3.58,0,0,0-1.66-.38,3.39,3.39,0,0,0-2.39.88,3.54,3.54,0,0,0-1.05,2.59h6.67A3.52,3.52,0,0,0,436.4,107.36Z"/><path d="M450.06,104.54V115h-1.73v-2.45a3.46,3.46,0,0,1-1.41,2,4.2,4.2,0,0,1-2.37.68,3.86,3.86,0,0,1-2.92-1.17,4.66,4.66,0,0,1-1.12-3.36v-6.08h1.73v5.91a3.4,3.4,0,0,0,.79,2.41,2.87,2.87,0,0,0,2.17.84,3,3,0,0,0,2.28-.92,3.81,3.81,0,0,0,.85-2.69v-5.55Z"/><path d="M452.86,100.71a1.23,1.23,0,0,1,.85-.29,1.26,1.26,0,0,1,.86.29,1,1,0,0,1,.32.77,1,1,0,0,1-.32.77,1.22,1.22,0,0,1-.86.3,1.19,1.19,0,0,1-.85-.3,1,1,0,0,1-.33-.77A1,1,0,0,1,452.86,100.71Zm1.71,3.83V115h-1.73V104.54Z"/><path d="M463.45,105.33a3.91,3.91,0,0,1,1.3,2.48H463.1a2.45,2.45,0,0,0-.77-1.53,2.52,2.52,0,0,0-1.76-.6,2.13,2.13,0,0,0-1.45.45,1.51,1.51,0,0,0-.53,1.21,1.24,1.24,0,0,0,.36.92,2.24,2.24,0,0,0,.87.53c.35.12.83.25,1.43.39a15.23,15.23,0,0,1,1.88.54,2.94,2.94,0,0,1,1.21.89,2.43,2.43,0,0,1,.5,1.63,2.55,2.55,0,0,1-.95,2.07,3.9,3.9,0,0,1-2.56.8,4.88,4.88,0,0,1-3-.9,3.53,3.53,0,0,1-1.39-2.48h1.68a2.17,2.17,0,0,0,.82,1.54,3,3,0,0,0,1.93.58,2,2,0,0,0,1.4-.45,1.56,1.56,0,0,0,.5-1.2,1.31,1.31,0,0,0-.36-1,2.44,2.44,0,0,0-.89-.55,13,13,0,0,0-1.47-.4,12.84,12.84,0,0,1-1.85-.53,2.91,2.91,0,0,1-1.18-.85,2.35,2.35,0,0,1-.48-1.56,2.61,2.61,0,0,1,1-2.12,4,4,0,0,1,2.64-.81A4.23,4.23,0,0,1,463.45,105.33Z"/><path d="M482.92,105.54a4.68,4.68,0,0,1,1.12,3.37V115h-1.73v-5.9a3.36,3.36,0,0,0-.75-2.36,2.69,2.69,0,0,0-2.07-.82,2.83,2.83,0,0,0-2.19.9,3.84,3.84,0,0,0-.83,2.66V115h-1.73v-5.9a3.32,3.32,0,0,0-.76-2.36,2.67,2.67,0,0,0-2.05-.82,2.86,2.86,0,0,0-2.21.9,3.84,3.84,0,0,0-.83,2.66V115h-1.73V104.54h1.73v2.38a3.42,3.42,0,0,1,1.36-1.89,3.92,3.92,0,0,1,2.25-.66,4,4,0,0,1,2.31.68,3.7,3.7,0,0,1,1.4,2,3.79,3.79,0,0,1,1.46-2,4,4,0,0,1,2.32-.7A3.86,3.86,0,0,1,482.92,105.54Z"/><path d="M494.13,105.06a4.65,4.65,0,0,1,1.87,1.86,6.38,6.38,0,0,1,0,5.69,4.69,4.69,0,0,1-1.87,1.85,5.87,5.87,0,0,1-5.37,0,4.71,4.71,0,0,1-1.88-1.85,6.29,6.29,0,0,1,0-5.69,4.67,4.67,0,0,1,1.88-1.86,5.87,5.87,0,0,1,5.37,0Zm-4.4,1.29a3.15,3.15,0,0,0-1.28,1.28,4.37,4.37,0,0,0-.48,2.14,4.32,4.32,0,0,0,.48,2.12,3.22,3.22,0,0,0,1.28,1.28,3.56,3.56,0,0,0,1.72.42,3.62,3.62,0,0,0,1.72-.42,3.26,3.26,0,0,0,1.27-1.28,4.32,4.32,0,0,0,.48-2.12,4.37,4.37,0,0,0-.48-2.14,3.19,3.19,0,0,0-1.27-1.28,3.62,3.62,0,0,0-1.72-.42A3.56,3.56,0,0,0,489.73,106.35Z"/><path d="M505.78,105.17a4,4,0,0,1,1.47,2v-6.28H509v14h-1.73v-2.66a4,4,0,0,1-1.47,2,4.25,4.25,0,0,1-2.57.76,4.72,4.72,0,0,1-2.47-.65,4.42,4.42,0,0,1-1.7-1.85,6.84,6.84,0,0,1,0-5.69,4.39,4.39,0,0,1,1.7-1.86,4.72,4.72,0,0,1,2.47-.65A4.25,4.25,0,0,1,505.78,105.17Zm-4.64,1.8a4.56,4.56,0,0,0,0,5.6,3.36,3.36,0,0,0,2.56,1,3.5,3.5,0,0,0,1.83-.48,3.29,3.29,0,0,0,1.27-1.34,4.24,4.24,0,0,0,.45-2,4.31,4.31,0,0,0-.45-2,3.23,3.23,0,0,0-1.27-1.34,3.59,3.59,0,0,0-1.83-.47A3.36,3.36,0,0,0,501.14,107Z"/><path d="M65.71,136.26v1.52H64.42A3.33,3.33,0,0,1,62,137a3.43,3.43,0,0,1-.79-2.55v-5.62H59.69v-1.5h1.56v-2.61H63v2.61h2.69v1.5H63v5.66a1.9,1.9,0,0,0,.37,1.37,1.75,1.75,0,0,0,1.28.38Z"/><path d="M67.84,123.52a1.37,1.37,0,0,1,1.71,0,1.07,1.07,0,0,1,0,1.53,1.37,1.37,0,0,1-1.71,0,1.07,1.07,0,0,1,0-1.53Zm1.71,3.83v10.43H67.82V127.35Z"/><path d="M80.76,128.34a4.68,4.68,0,0,1,1.12,3.37v6.07H80.15v-5.91a3.32,3.32,0,0,0-.8-2.4,2.86,2.86,0,0,0-2.16-.83,2.94,2.94,0,0,0-2.28.92,3.81,3.81,0,0,0-.86,2.69v5.53H72.33V127.35h1.72v2.46a3.56,3.56,0,0,1,1.42-2,4.09,4.09,0,0,1,2.35-.69A3.89,3.89,0,0,1,80.76,128.34Z"/><path d="M92.46,128.28a4.48,4.48,0,0,1,1.62,2.84H92.26a2.69,2.69,0,0,0-1-1.75,3.64,3.64,0,0,0-3.76-.22,3.13,3.13,0,0,0-1.21,1.28,5.31,5.31,0,0,0,0,4.28A3.13,3.13,0,0,0,87.46,136a3.62,3.62,0,0,0,3.76-.23,2.74,2.74,0,0,0,1-1.77h1.82a4.43,4.43,0,0,1-1.62,2.86,5,5,0,0,1-3.3,1.06,5.37,5.37,0,0,1-2.66-.65,4.63,4.63,0,0,1-1.82-1.85,5.93,5.93,0,0,1-.65-2.84,6,6,0,0,1,.65-2.85,4.59,4.59,0,0,1,1.82-1.86,5.37,5.37,0,0,1,2.66-.65A5.05,5.05,0,0,1,92.46,128.28Z"/><path d="M96.36,123.52a1.19,1.19,0,0,1,.85-.3,1.22,1.22,0,0,1,.86.3,1.07,1.07,0,0,1,0,1.53,1.22,1.22,0,0,1-.86.3,1.19,1.19,0,0,1-.85-.3,1.07,1.07,0,0,1,0-1.53Zm1.71,3.83v10.43H96.34V127.35Z"/><path d="M107.69,128a4,4,0,0,1,1.48,2v-6.28h1.72v14.06h-1.72v-2.66a4,4,0,0,1-1.48,2,4.25,4.25,0,0,1-2.57.76,4.72,4.72,0,0,1-2.47-.65,4.48,4.48,0,0,1-1.7-1.85,6.16,6.16,0,0,1-.62-2.84,6.23,6.23,0,0,1,.62-2.85,4.45,4.45,0,0,1,1.7-1.86,4.72,4.72,0,0,1,2.47-.65A4.25,4.25,0,0,1,107.69,128Zm-4.63,1.8a4.56,4.56,0,0,0,0,5.6,3.34,3.34,0,0,0,2.55,1,3.53,3.53,0,0,0,1.84-.48,3.26,3.26,0,0,0,1.26-1.34,4.25,4.25,0,0,0,.46-2,4.32,4.32,0,0,0-.46-2,3.2,3.2,0,0,0-1.26-1.34,3.62,3.62,0,0,0-1.84-.47A3.34,3.34,0,0,0,103.06,129.77Z"/><path d="M122.92,127.35v10.43h-1.73v-2.46a3.51,3.51,0,0,1-1.41,2,4.2,4.2,0,0,1-2.37.68,3.85,3.85,0,0,1-2.92-1.17,4.65,4.65,0,0,1-1.13-3.35v-6.08h1.73v5.9a3.4,3.4,0,0,0,.8,2.41,2.85,2.85,0,0,0,2.17.84,2.94,2.94,0,0,0,2.28-.92,3.81,3.81,0,0,0,.85-2.69v-5.54Z"/><path d="M134.13,128.34a4.68,4.68,0,0,1,1.12,3.37v6.07h-1.73v-5.91a3.36,3.36,0,0,0-.79-2.4,2.9,2.9,0,0,0-2.17-.83,2.94,2.94,0,0,0-2.28.92,3.81,3.81,0,0,0-.86,2.69v5.53H125.7V127.35h1.72v2.46a3.56,3.56,0,0,1,1.42-2,4.09,4.09,0,0,1,2.35-.69A3.89,3.89,0,0,1,134.13,128.34Z"/><path d="M142.89,136.26v1.52H141.6a3.36,3.36,0,0,1-2.39-.76,3.47,3.47,0,0,1-.79-2.55v-5.62h-1.55v-1.5h1.55v-2.61h1.75v2.61h2.7v1.5h-2.7v5.66a2,2,0,0,0,.37,1.37,1.79,1.79,0,0,0,1.29.38Z"/><path d="M159,127.35v10.43h-1.72v-2.46a3.53,3.53,0,0,1-1.42,2,4.2,4.2,0,0,1-2.37.68,3.86,3.86,0,0,1-2.92-1.17,4.65,4.65,0,0,1-1.12-3.35v-6.08h1.73v5.9a3.4,3.4,0,0,0,.79,2.41,2.87,2.87,0,0,0,2.17.84,2.94,2.94,0,0,0,2.28-.92,3.81,3.81,0,0,0,.86-2.69v-5.54Z"/><path d="M166.72,136.26v1.52h-1.3A3.33,3.33,0,0,1,163,137a3.43,3.43,0,0,1-.79-2.55v-5.62h-1.56v-1.5h1.56v-2.61H164v2.61h2.7v1.5H164v5.66a1.9,1.9,0,0,0,.37,1.37,1.76,1.76,0,0,0,1.28.38Z"/><path d="M175.25,123.72v14.06h-1.73V123.72Z"/><path d="M184.87,128a4,4,0,0,1,1.47,2v-2.65h1.73v10.43h-1.73v-2.66a4,4,0,0,1-1.47,2,4.25,4.25,0,0,1-2.57.76,4.72,4.72,0,0,1-2.47-.65,4.51,4.51,0,0,1-1.71-1.85,6.16,6.16,0,0,1-.61-2.84,6.23,6.23,0,0,1,.61-2.85,4.47,4.47,0,0,1,1.71-1.86,4.72,4.72,0,0,1,2.47-.65A4.25,4.25,0,0,1,184.87,128Zm-4.64,1.8a4.56,4.56,0,0,0,0,5.6,3.36,3.36,0,0,0,2.56,1,3.52,3.52,0,0,0,1.83-.48,3.29,3.29,0,0,0,1.27-1.34,4.24,4.24,0,0,0,.45-2,4.31,4.31,0,0,0-.45-2,3.23,3.23,0,0,0-1.27-1.34,3.61,3.61,0,0,0-1.83-.47A3.36,3.36,0,0,0,180.23,129.77Z"/><path d="M198.25,127.86a4.63,4.63,0,0,1,1.86,1.86,5.77,5.77,0,0,1,.67,2.85,5.71,5.71,0,0,1-.67,2.84,4.66,4.66,0,0,1-1.86,1.85,5.89,5.89,0,0,1-5.38,0,4.69,4.69,0,0,1-1.87-1.85,5.61,5.61,0,0,1-.69-2.84,5.67,5.67,0,0,1,.69-2.85,4.65,4.65,0,0,1,1.87-1.86,5.89,5.89,0,0,1,5.38,0Zm-4.41,1.29a3.13,3.13,0,0,0-1.27,1.28,4.26,4.26,0,0,0-.49,2.14,4.21,4.21,0,0,0,.49,2.12,3.07,3.07,0,0,0,1.27,1.28,3.73,3.73,0,0,0,3.44,0,3.13,3.13,0,0,0,1.27-1.28,4.31,4.31,0,0,0,.49-2.12,4.37,4.37,0,0,0-.49-2.14,3.19,3.19,0,0,0-1.27-1.28,3.73,3.73,0,0,0-3.44,0Z"/><path class="cls-3" d="M61.05,167.67v2.07H64.4v1.81H61.05v2.19h3.77v1.92H58.66v-9.9h6.16v1.91Z"/><path class="cls-3" d="M70,166.79a1.18,1.18,0,0,0-.85.25,1.16,1.16,0,0,0-.3.81h1.42v2H68.86v5.79H66.47v-5.79h-.94v-2h.94v-.08a2.9,2.9,0,0,1,.85-2.25,3.44,3.44,0,0,1,2.45-.79h.51v2.06Z"/><path class="cls-3" d="M78.68,172.19H73.26a1.83,1.83,0,0,0,.45,1.27,1.45,1.45,0,0,0,1,.38,1.49,1.49,0,0,0,.89-.26,1.31,1.31,0,0,0,.46-.69h2.53a3.38,3.38,0,0,1-.67,1.48,3.63,3.63,0,0,1-1.32,1,4.1,4.1,0,0,1-1.77.37,4.21,4.21,0,0,1-2-.48,3.41,3.41,0,0,1-1.39-1.4,4.24,4.24,0,0,1-.51-2.12,4.37,4.37,0,0,1,.5-2.14,3.36,3.36,0,0,1,1.39-1.38,4.55,4.55,0,0,1,4.09,0,3.29,3.29,0,0,1,1.36,1.33,3.94,3.94,0,0,1,.49,2A3.9,3.9,0,0,1,78.68,172.19ZM75.91,170a1.48,1.48,0,0,0-1-.39,1.59,1.59,0,0,0-1.1.39,1.66,1.66,0,0,0-.49,1.15h3.06A1.44,1.44,0,0,0,75.91,170Z"/><path class="cls-3" d="M86.06,168.58a3.67,3.67,0,0,1,1.28,2.29H84.81a1.4,1.4,0,0,0-.46-.78,1.36,1.36,0,0,0-.88-.28,1.29,1.29,0,0,0-1,.5,2.24,2.24,0,0,0-.41,1.45,2.28,2.28,0,0,0,.41,1.45,1.28,1.28,0,0,0,1,.49,1.28,1.28,0,0,0,1.34-1.06h2.53a3.67,3.67,0,0,1-1.28,2.29,3.94,3.94,0,0,1-2.54.83,4.27,4.27,0,0,1-2-.48,3.47,3.47,0,0,1-1.39-1.4,4.83,4.83,0,0,1,0-4.26,3.44,3.44,0,0,1,1.4-1.38,4.13,4.13,0,0,1,2-.49A3.94,3.94,0,0,1,86.06,168.58Z"/><path class="cls-3" d="M93,173.6v2.06H91.94A3.07,3.07,0,0,1,89.8,175a2.86,2.86,0,0,1-.76-2.24v-2.87H88v-2H89v-1.92h2.39v1.92H93v2H91.43v2.91a.84.84,0,0,0,.19.64.92.92,0,0,0,.64.18Z"/><path class="cls-3" d="M100.09,168.24a3.5,3.5,0,0,1,1.44,1.39,4.53,4.53,0,0,1,0,4.25,3.53,3.53,0,0,1-1.44,1.4,4.75,4.75,0,0,1-4.16,0,3.49,3.49,0,0,1-1.45-1.4,4.53,4.53,0,0,1,0-4.25,3.47,3.47,0,0,1,1.45-1.39,4.66,4.66,0,0,1,4.16,0Zm-3.23,2.08a2,2,0,0,0-.47,1.44,1.93,1.93,0,0,0,.47,1.42,1.59,1.59,0,0,0,2.3,0,2,2,0,0,0,.46-1.42,2,2,0,0,0-.46-1.44,1.57,1.57,0,0,0-2.3,0Z"/><path class="cls-3" d="M112.82,174.32a2.82,2.82,0,0,1-1.18,1.05,4.18,4.18,0,0,1-1.88.39A4.46,4.46,0,0,1,107,175a2.92,2.92,0,0,1-1.17-2.27h2.54a1.39,1.39,0,0,0,.4.88,1.21,1.21,0,0,0,.88.32,1,1,0,0,0,.73-.25.9.9,0,0,0,.26-.67.88.88,0,0,0-.24-.63,1.87,1.87,0,0,0-.61-.41c-.24-.11-.58-.24-1-.39a11.68,11.68,0,0,1-1.53-.62,2.73,2.73,0,0,1-1-.9,2.53,2.53,0,0,1-.43-1.54,2.61,2.61,0,0,1,.45-1.53,2.85,2.85,0,0,1,1.24-1,4.46,4.46,0,0,1,1.81-.34,4.05,4.05,0,0,1,2.62.78,3,3,0,0,1,1.1,2.16h-2.59a1.29,1.29,0,0,0-.35-.78,1.07,1.07,0,0,0-.78-.28,1,1,0,0,0-.68.22.92.92,0,0,0,0,1.25,1.72,1.72,0,0,0,.58.4c.24.1.57.24,1,.39a11.28,11.28,0,0,1,1.55.64,2.94,2.94,0,0,1,1,.92,2.61,2.61,0,0,1,.43,1.57A2.78,2.78,0,0,1,112.82,174.32Z"/><path class="cls-3" d="M124.46,165.76v1.91h-2.69v8h-2.41v-8H116.7v-1.91Z"/><path class="cls-3" d="M130.66,165.76v9.9h-2.4v-9.9Z"/><path class="cls-3" d="M142.76,166.66a4.51,4.51,0,0,1,1.6,2.69h-2.53a2.31,2.31,0,0,0-.86-1.08,2.43,2.43,0,0,0-1.38-.39,2.06,2.06,0,0,0-1.69.77,3.57,3.57,0,0,0,0,4.11,2.08,2.08,0,0,0,1.69.76,2.43,2.43,0,0,0,1.38-.39,2.34,2.34,0,0,0,.86-1.07h2.53a4.57,4.57,0,0,1-1.6,2.69,4.87,4.87,0,0,1-3.13,1,5,5,0,0,1-2.53-.64,4.36,4.36,0,0,1-1.69-1.79,6.09,6.09,0,0,1,0-5.23,4.36,4.36,0,0,1,1.69-1.79,5,5,0,0,1,2.53-.63A4.87,4.87,0,0,1,142.76,166.66Z"/><path class="cls-3" d="M153.17,170.61l4,5h-2.9l-3.36-4.44v4.44h-2.39v-9.9h2.39v4.36l3.39-4.36h2.87Z"/><path class="cls-3" d="M169.52,165.76l-3.43,6.61v3.29h-2.41v-3.29l-3.43-6.61H163l1.9,4,1.9-4Z"/><path class="cls-3" d="M178.46,168.49a3.26,3.26,0,0,1,1.11,2h-2.24a1.2,1.2,0,0,0-.44-.74,1.29,1.29,0,0,0-.86-.28.89.89,0,0,0-.61.18.59.59,0,0,0-.21.49.57.57,0,0,0,.38.55,6.26,6.26,0,0,0,1.21.36,12.54,12.54,0,0,1,1.47.43,2.39,2.39,0,0,1,1,.71,1.93,1.93,0,0,1,.42,1.31,2,2,0,0,1-.36,1.19,2.38,2.38,0,0,1-1,.82,4.22,4.22,0,0,1-1.62.29,4.18,4.18,0,0,1-2.54-.7,3,3,0,0,1-1.16-2h2.31a1.06,1.06,0,0,0,.43.77,1.65,1.65,0,0,0,1,.26.91.91,0,0,0,.61-.18.66.66,0,0,0,.21-.5.6.6,0,0,0-.38-.58,6.93,6.93,0,0,0-1.26-.37,11.27,11.27,0,0,1-1.42-.4,2.26,2.26,0,0,1-1-.68,1.87,1.87,0,0,1-.4-1.28,2.1,2.1,0,0,1,.79-1.7,3.54,3.54,0,0,1,2.26-.65A3.59,3.59,0,0,1,178.46,168.49Z"/><path class="cls-3" d="M186.75,168.24a3.5,3.5,0,0,1,1.44,1.39,4.6,4.6,0,0,1,0,4.25,3.53,3.53,0,0,1-1.44,1.4,4.77,4.77,0,0,1-4.17,0,3.55,3.55,0,0,1-1.45-1.4,4.6,4.6,0,0,1,0-4.25,3.53,3.53,0,0,1,1.45-1.39,4.68,4.68,0,0,1,4.17,0Zm-3.24,2.08a2,2,0,0,0-.47,1.44,2,2,0,0,0,.47,1.42,1.54,1.54,0,0,0,1.16.49,1.51,1.51,0,0,0,1.15-.49,2,2,0,0,0,.46-1.42,2.07,2.07,0,0,0-.46-1.44,1.51,1.51,0,0,0-1.15-.5A1.55,1.55,0,0,0,183.51,170.32Z"/><path class="cls-3" d="M196.56,168.24a3.34,3.34,0,0,1,1.21,1.38,5.38,5.38,0,0,1,0,4.26,3.34,3.34,0,0,1-1.21,1.4,3.17,3.17,0,0,1-1.73.48,2.85,2.85,0,0,1-1.54-.41,2.4,2.4,0,0,1-.94-1.1v1.41H190V165.3h2.39v4a2.4,2.4,0,0,1,.94-1.1,2.85,2.85,0,0,1,1.54-.41A3.1,3.1,0,0,1,196.56,168.24Zm-3.74,2.12a2.25,2.25,0,0,0,0,2.78,1.76,1.76,0,0,0,2.48,0,2,2,0,0,0,.47-1.4,2,2,0,0,0-.47-1.4,1.59,1.59,0,0,0-1.24-.51A1.65,1.65,0,0,0,192.82,170.36Z"/><path class="cls-3" d="M203,168.19a3,3,0,0,1,1.54-.42v2.56h-.69a2.37,2.37,0,0,0-1.48.4,1.64,1.64,0,0,0-.52,1.38v3.55h-2.4v-7.81h2.4v1.47A3.36,3.36,0,0,1,203,168.19Z"/><path class="cls-3" d="M212.89,172.19h-5.42a1.83,1.83,0,0,0,.45,1.27,1.48,1.48,0,0,0,1,.38,1.46,1.46,0,0,0,.88-.26,1.25,1.25,0,0,0,.46-.69h2.54a3.5,3.5,0,0,1-.67,1.48,3.72,3.72,0,0,1-1.32,1,4.14,4.14,0,0,1-1.78.37,4.27,4.27,0,0,1-2-.48,3.47,3.47,0,0,1-1.39-1.4,4.23,4.23,0,0,1-.5-2.12,4.37,4.37,0,0,1,.49-2.14,3.38,3.38,0,0,1,1.4-1.38,4.13,4.13,0,0,1,2-.49,4.22,4.22,0,0,1,2.05.48,3.35,3.35,0,0,1,1.36,1.33,4,4,0,0,1,.48,2A3,3,0,0,1,212.89,172.19ZM210.13,170a1.53,1.53,0,0,0-1.06-.39A1.57,1.57,0,0,0,208,170a1.66,1.66,0,0,0-.49,1.15h3A1.44,1.44,0,0,0,210.13,170Z"/><path class="cls-3" d="M224.78,167.85v7.81h-2.41v-1.41a2.56,2.56,0,0,1-1,1.09,2.91,2.91,0,0,1-1.55.41,2.69,2.69,0,0,1-2.13-.9,3.58,3.58,0,0,1-.79-2.46v-4.54h2.38v4.24a1.72,1.72,0,0,0,.41,1.24,1.64,1.64,0,0,0,2.26,0,1.9,1.9,0,0,0,.42-1.32v-4.14Z"/><path class="cls-3" d="M233.52,168.66a3.59,3.59,0,0,1,.79,2.47v4.53h-2.39v-4.25a1.74,1.74,0,0,0-.41-1.23,1.47,1.47,0,0,0-1.1-.44,1.5,1.5,0,0,0-1.16.46,1.9,1.9,0,0,0-.43,1.32v4.14h-2.39v-7.81h2.39v1.43a2.58,2.58,0,0,1,1-1.11,2.92,2.92,0,0,1,1.56-.4A2.69,2.69,0,0,1,233.52,168.66Z"/><path class="cls-3" d="M240.4,168.16a2.42,2.42,0,0,1,.95,1.1v-1.41h2.38v7.81h-2.38v-1.41a2.42,2.42,0,0,1-.95,1.1,2.83,2.83,0,0,1-1.54.41,3.19,3.19,0,0,1-1.73-.48,3.25,3.25,0,0,1-1.2-1.4,5.38,5.38,0,0,1,0-4.26,3.25,3.25,0,0,1,1.2-1.38,3.12,3.12,0,0,1,1.73-.49A2.83,2.83,0,0,1,240.4,168.16Zm-2,2.2a2,2,0,0,0-.47,1.4,2,2,0,0,0,.47,1.4,1.65,1.65,0,0,0,1.24.5,1.59,1.59,0,0,0,1.24-.52,2.25,2.25,0,0,0,0-2.78,1.76,1.76,0,0,0-2.48,0Z"/><path class="cls-3" d="M248.35,164.75a1.5,1.5,0,0,1,1-.36,1.48,1.48,0,0,1,1,.36,1.17,1.17,0,0,1,.39.9,1.15,1.15,0,0,1-.39.89,1.48,1.48,0,0,1-1,.36,1.5,1.5,0,0,1-1-.36,1.15,1.15,0,0,1-.39-.89A1.17,1.17,0,0,1,248.35,164.75Zm2.23,3.1v7.81h-2.39v-7.81Z"/><path class="cls-3" d="M254.63,165.3v10.36h-2.4V165.3Z"/><path class="cls-3" d="M264.05,167.85v7.81h-2.41v-1.41a2.56,2.56,0,0,1-1,1.09,2.91,2.91,0,0,1-1.55.41,2.69,2.69,0,0,1-2.13-.9,3.58,3.58,0,0,1-.79-2.46v-4.54h2.38v4.24a1.72,1.72,0,0,0,.41,1.24,1.64,1.64,0,0,0,2.26,0,1.9,1.9,0,0,0,.42-1.32v-4.14Z"/><path class="cls-3" d="M270.92,168.49a3.26,3.26,0,0,1,1.11,2h-2.24a1.25,1.25,0,0,0-.44-.74,1.31,1.31,0,0,0-.86-.28.92.92,0,0,0-.62.18.59.59,0,0,0-.21.49.58.58,0,0,0,.38.55,6.41,6.41,0,0,0,1.22.36,13.81,13.81,0,0,1,1.47.43,2.46,2.46,0,0,1,1,.71,1.93,1.93,0,0,1,.42,1.31,2,2,0,0,1-.36,1.19,2.49,2.49,0,0,1-1,.82,4.24,4.24,0,0,1-1.63.29,4.15,4.15,0,0,1-2.53-.7,2.93,2.93,0,0,1-1.16-2h2.31a1,1,0,0,0,.42.77,1.67,1.67,0,0,0,1,.26.94.94,0,0,0,.62-.18.66.66,0,0,0,.21-.5.59.59,0,0,0-.39-.58,6.53,6.53,0,0,0-1.25-.37,11.48,11.48,0,0,1-1.43-.4,2.29,2.29,0,0,1-1-.68,1.82,1.82,0,0,1-.41-1.28,2.1,2.1,0,0,1,.8-1.7,3.49,3.49,0,0,1,2.25-.65A3.64,3.64,0,0,1,270.92,168.49Z"/><path class="cls-3" d="M277.89,173.6v2.06h-1.07a3.07,3.07,0,0,1-2.14-.68,2.86,2.86,0,0,1-.76-2.24v-2.87h-1.05v-2h1.05v-1.92h2.39v1.92h1.57v2h-1.57v2.91a.89.89,0,0,0,.19.64.92.92,0,0,0,.64.18Z"/><path class="cls-3" d="M282.79,168.19a2.94,2.94,0,0,1,1.53-.42v2.56h-.69a2.36,2.36,0,0,0-1.47.4,1.64,1.64,0,0,0-.53,1.38v3.55h-2.39v-7.81h2.39v1.47A3.3,3.3,0,0,1,282.79,168.19Z"/><path class="cls-3" d="M289.83,168.16a2.5,2.5,0,0,1,1,1.1v-1.41h2.38v7.81h-2.38v-1.41a2.5,2.5,0,0,1-1,1.1,2.81,2.81,0,0,1-1.54.41,3.14,3.14,0,0,1-1.72-.48,3.34,3.34,0,0,1-1.21-1.4,5.38,5.38,0,0,1,0-4.26,3.34,3.34,0,0,1,1.21-1.38,3.06,3.06,0,0,1,1.72-.49A2.81,2.81,0,0,1,289.83,168.16Zm-2,2.2a1.93,1.93,0,0,0-.47,1.4,2,2,0,0,0,.47,1.4,1.62,1.62,0,0,0,1.24.5,1.59,1.59,0,0,0,1.23-.52,2.22,2.22,0,0,0,0-2.78,1.61,1.61,0,0,0-1.23-.51A1.59,1.59,0,0,0,287.83,170.36Z"/><path class="cls-3" d="M300.88,168.58a3.73,3.73,0,0,1,1.29,2.29h-2.54a1.3,1.3,0,0,0-.46-.78,1.33,1.33,0,0,0-.88-.28,1.31,1.31,0,0,0-1,.5,2.24,2.24,0,0,0-.4,1.45,2.28,2.28,0,0,0,.4,1.45,1.3,1.3,0,0,0,1,.49,1.33,1.33,0,0,0,.88-.28,1.27,1.27,0,0,0,.46-.78h2.54a3.73,3.73,0,0,1-1.29,2.29,3.89,3.89,0,0,1-2.53.83,4.21,4.21,0,0,1-2-.48,3.41,3.41,0,0,1-1.39-1.4,4.24,4.24,0,0,1-.51-2.12,4.37,4.37,0,0,1,.5-2.14,3.42,3.42,0,0,1,1.39-1.38,4.17,4.17,0,0,1,2.05-.49A3.89,3.89,0,0,1,300.88,168.58Z"/><path class="cls-3" d="M303.58,164.75a1.48,1.48,0,0,1,1-.36,1.5,1.5,0,0,1,1,.36,1.17,1.17,0,0,1,.39.9,1.15,1.15,0,0,1-.39.89,1.5,1.5,0,0,1-1,.36,1.48,1.48,0,0,1-1-.36,1.15,1.15,0,0,1-.39-.89A1.17,1.17,0,0,1,303.58,164.75Zm2.23,3.1v7.81h-2.39v-7.81Z"/><path class="cls-3" d="M313.19,168.24a3.53,3.53,0,0,1,1.45,1.39,4.6,4.6,0,0,1,0,4.25,3.55,3.55,0,0,1-1.45,1.4,4.39,4.39,0,0,1-2.07.48,4.44,4.44,0,0,1-2.09-.48,3.49,3.49,0,0,1-1.45-1.4,4.53,4.53,0,0,1,0-4.25,3.47,3.47,0,0,1,1.45-1.39,4.33,4.33,0,0,1,2.09-.49A4.28,4.28,0,0,1,313.19,168.24ZM310,170.32a2,2,0,0,0-.47,1.44,2,2,0,0,0,.47,1.42,1.53,1.53,0,0,0,1.16.49,1.48,1.48,0,0,0,1.14-.49,2,2,0,0,0,.46-1.42,2,2,0,0,0-.46-1.44,1.49,1.49,0,0,0-1.14-.5A1.54,1.54,0,0,0,310,170.32Zm3.16-4.47-3.38,1.44v-1.62l3.38-1.63Z"/><path class="cls-3" d="M323.5,168.66a3.59,3.59,0,0,1,.79,2.47v4.53H321.9v-4.25a1.7,1.7,0,0,0-.42-1.23,1.44,1.44,0,0,0-1.1-.44,1.48,1.48,0,0,0-1.15.46,1.86,1.86,0,0,0-.43,1.32v4.14h-2.39v-7.81h2.39v1.43a2.62,2.62,0,0,1,1-1.11,3,3,0,0,1,1.56-.4A2.7,2.7,0,0,1,323.5,168.66Z"/><path class="cls-3" d="M333.89,168.49a3.26,3.26,0,0,1,1.11,2h-2.24a1.25,1.25,0,0,0-.44-.74,1.31,1.31,0,0,0-.86-.28.94.94,0,0,0-.62.18.59.59,0,0,0-.21.49.58.58,0,0,0,.39.55,6,6,0,0,0,1.21.36,13.81,13.81,0,0,1,1.47.43,2.46,2.46,0,0,1,1,.71,1.93,1.93,0,0,1,.42,1.31,2,2,0,0,1-.36,1.19,2.49,2.49,0,0,1-1.05.82,4.24,4.24,0,0,1-1.63.29,4.15,4.15,0,0,1-2.53-.7,2.93,2.93,0,0,1-1.16-2h2.31a1,1,0,0,0,.42.77,1.67,1.67,0,0,0,1,.26.94.94,0,0,0,.62-.18.66.66,0,0,0,.21-.5.59.59,0,0,0-.39-.58,6.53,6.53,0,0,0-1.25-.37,11.48,11.48,0,0,1-1.43-.4,2.29,2.29,0,0,1-1-.68,1.87,1.87,0,0,1-.41-1.28,2.1,2.1,0,0,1,.8-1.7,3.49,3.49,0,0,1,2.25-.65A3.64,3.64,0,0,1,333.89,168.49Z"/><path class="cls-3" d="M336.61,164.75a1.45,1.45,0,0,1,1-.36,1.48,1.48,0,0,1,1,.36,1.17,1.17,0,0,1,.39.9,1.15,1.15,0,0,1-.39.89,1.48,1.48,0,0,1-1,.36,1.45,1.45,0,0,1-1-.36,1.15,1.15,0,0,1-.39-.89A1.17,1.17,0,0,1,336.61,164.75Zm2.22,3.1v7.81h-2.39v-7.81Z"/><path class="cls-3" d="M352.88,168.66a3.48,3.48,0,0,1,.82,2.47v4.53h-2.38v-4.25a1.59,1.59,0,0,0-.4-1.16,1.45,1.45,0,0,0-1.08-.41,1.49,1.49,0,0,0-1.13.44,1.77,1.77,0,0,0-.41,1.24v4.14h-2.4v-4.25a1.63,1.63,0,0,0-.39-1.16,1.43,1.43,0,0,0-1.08-.41,1.5,1.5,0,0,0-1.13.43,1.73,1.73,0,0,0-.42,1.25v4.14h-2.39v-7.81h2.39v1.33a2.33,2.33,0,0,1,.95-1,2.87,2.87,0,0,1,1.49-.37,3,3,0,0,1,1.58.41,2.53,2.53,0,0,1,1,1.18,3.28,3.28,0,0,1,1.12-1.16,3.22,3.22,0,0,1,3.83.46Z"/><path class="cls-3" d="M363.07,167.85v7.81h-2.41v-1.41a2.56,2.56,0,0,1-1,1.09,2.94,2.94,0,0,1-1.55.41,2.69,2.69,0,0,1-2.13-.9,3.58,3.58,0,0,1-.79-2.46v-4.54h2.38v4.24a1.72,1.72,0,0,0,.41,1.24,1.45,1.45,0,0,0,1.11.44,1.46,1.46,0,0,0,1.15-.46,1.9,1.9,0,0,0,.42-1.32v-4.14Z"/><path class="cls-3" d="M367.11,165.3v10.36h-2.39V165.3Z"/><path class="cls-3" d="M373.27,168.16a2.5,2.5,0,0,1,1,1.1v-1.41h2.38v7.81h-2.38v-1.41a2.5,2.5,0,0,1-1,1.1,2.83,2.83,0,0,1-1.54.41,3.19,3.19,0,0,1-1.73-.48,3.32,3.32,0,0,1-1.2-1.4,5.38,5.38,0,0,1,0-4.26,3.32,3.32,0,0,1,1.2-1.38,3.12,3.12,0,0,1,1.73-.49A2.83,2.83,0,0,1,373.27,168.16Zm-2,2.2a2,2,0,0,0-.46,1.4,2,2,0,0,0,.46,1.4,1.65,1.65,0,0,0,1.24.5,1.59,1.59,0,0,0,1.24-.52,2.22,2.22,0,0,0,0-2.78,1.76,1.76,0,0,0-2.48,0Z"/><path class="cls-3" d="M385.35,168.66a3.59,3.59,0,0,1,.79,2.47v4.53h-2.39v-4.25a1.7,1.7,0,0,0-.42-1.23,1.44,1.44,0,0,0-1.1-.44,1.48,1.48,0,0,0-1.15.46,1.86,1.86,0,0,0-.43,1.32v4.14h-2.39v-7.81h2.39v1.43a2.62,2.62,0,0,1,1-1.11,3,3,0,0,1,1.56-.4A2.7,2.7,0,0,1,385.35,168.66Z"/><path class="cls-3" d="M392.23,168.16a2.4,2.4,0,0,1,.94,1.1v-4h2.39v10.36h-2.39v-1.41a2.4,2.4,0,0,1-.94,1.1,2.83,2.83,0,0,1-1.54.41,3.19,3.19,0,0,1-1.73-.48,3.25,3.25,0,0,1-1.2-1.4,5.38,5.38,0,0,1,0-4.26,3.25,3.25,0,0,1,1.2-1.38,3.12,3.12,0,0,1,1.73-.49A2.83,2.83,0,0,1,392.23,168.16Zm-2,2.2a2,2,0,0,0-.47,1.4,2,2,0,0,0,.47,1.4,1.63,1.63,0,0,0,1.24.5,1.61,1.61,0,0,0,1.24-.52,2.25,2.25,0,0,0,0-2.78,1.64,1.64,0,0,0-1.24-.51A1.61,1.61,0,0,0,390.22,170.36Z"/><path class="cls-3" d="M403,168.24a3.5,3.5,0,0,1,1.44,1.39,4.6,4.6,0,0,1,0,4.25,3.53,3.53,0,0,1-1.44,1.4,4.77,4.77,0,0,1-4.17,0,3.55,3.55,0,0,1-1.45-1.4,4.6,4.6,0,0,1,0-4.25,3.53,3.53,0,0,1,1.45-1.39,4.68,4.68,0,0,1,4.17,0Zm-3.24,2.08a2,2,0,0,0-.47,1.44,2,2,0,0,0,.47,1.42,1.54,1.54,0,0,0,1.16.49,1.51,1.51,0,0,0,1.15-.49,2,2,0,0,0,.46-1.42,2.07,2.07,0,0,0-.46-1.44,1.51,1.51,0,0,0-1.15-.5A1.55,1.55,0,0,0,399.71,170.32Z"/><path class="cls-3" d="M416.73,167.85v7.81h-2.41v-1.41a2.56,2.56,0,0,1-1,1.09,2.91,2.91,0,0,1-1.55.41,2.7,2.7,0,0,1-2.13-.9,3.58,3.58,0,0,1-.79-2.46v-4.54h2.38v4.24a1.77,1.77,0,0,0,.41,1.24,1.64,1.64,0,0,0,2.26,0,1.9,1.9,0,0,0,.42-1.32v-4.14Z"/><path class="cls-3" d="M425.47,168.66a3.59,3.59,0,0,1,.79,2.47v4.53h-2.39v-4.25a1.74,1.74,0,0,0-.41-1.23,1.47,1.47,0,0,0-1.1-.44,1.5,1.5,0,0,0-1.16.46,1.9,1.9,0,0,0-.42,1.32v4.14h-2.4v-7.81h2.4v1.43a2.5,2.5,0,0,1,1-1.11,2.92,2.92,0,0,1,1.56-.4A2.68,2.68,0,0,1,425.47,168.66Z"/><path class="cls-3" d="M432.35,168.16a2.5,2.5,0,0,1,1,1.1v-1.41h2.38v7.81h-2.38v-1.41a2.5,2.5,0,0,1-1,1.1,2.83,2.83,0,0,1-1.54.41,3.19,3.19,0,0,1-1.73-.48,3.32,3.32,0,0,1-1.2-1.4,5.38,5.38,0,0,1,0-4.26,3.32,3.32,0,0,1,1.2-1.38,3.12,3.12,0,0,1,1.73-.49A2.83,2.83,0,0,1,432.35,168.16Zm-2,2.2a2,2,0,0,0-.46,1.4,2,2,0,0,0,.46,1.4,1.65,1.65,0,0,0,1.24.5,1.59,1.59,0,0,0,1.24-.52,2.22,2.22,0,0,0,0-2.78,1.76,1.76,0,0,0-2.48,0Z"/><path class="cls-3" d="M447.23,168.66a3.59,3.59,0,0,1,.79,2.47v4.53h-2.39v-4.25a1.7,1.7,0,0,0-.42-1.23,1.44,1.44,0,0,0-1.1-.44,1.48,1.48,0,0,0-1.15.46,1.86,1.86,0,0,0-.43,1.32v4.14h-2.39v-7.81h2.39v1.43a2.62,2.62,0,0,1,1-1.11,3,3,0,0,1,1.56-.4A2.7,2.7,0,0,1,447.23,168.66Z"/><path class="cls-3" d="M457.37,167.85v7.81H455v-1.41a2.5,2.5,0,0,1-1,1.09,2.9,2.9,0,0,1-1.54.41,2.71,2.71,0,0,1-2.14-.9,3.58,3.58,0,0,1-.79-2.46v-4.54h2.38v4.24a1.77,1.77,0,0,0,.41,1.24,1.48,1.48,0,0,0,1.12.44,1.46,1.46,0,0,0,1.14-.46A1.9,1.9,0,0,0,455,172v-4.14Z"/><path class="cls-3" d="M466.37,172.19H461a1.79,1.79,0,0,0,.44,1.27,1.48,1.48,0,0,0,1,.38,1.46,1.46,0,0,0,.88-.26,1.25,1.25,0,0,0,.46-.69h2.54a3.5,3.5,0,0,1-.67,1.48,3.72,3.72,0,0,1-1.32,1,4.14,4.14,0,0,1-1.78.37,4.27,4.27,0,0,1-2-.48,3.47,3.47,0,0,1-1.39-1.4,4.83,4.83,0,0,1,0-4.26,3.44,3.44,0,0,1,1.4-1.38,4.13,4.13,0,0,1,2-.49,4.22,4.22,0,0,1,2.05.48,3.35,3.35,0,0,1,1.36,1.33,4,4,0,0,1,.48,2A3,3,0,0,1,466.37,172.19ZM463.61,170a1.53,1.53,0,0,0-1.06-.39,1.57,1.57,0,0,0-1.09.39,1.66,1.66,0,0,0-.49,1.15h3A1.44,1.44,0,0,0,463.61,170Z"/><path class="cls-3" d="M471.3,173.32l1.7-5.47h2.54l-2.77,7.81h-3L467,167.85h2.55Z"/><path class="cls-3" d="M481,168.16a2.5,2.5,0,0,1,1,1.1v-1.41h2.38v7.81H482v-1.41a2.5,2.5,0,0,1-1,1.1,2.81,2.81,0,0,1-1.54.41,3.14,3.14,0,0,1-1.72-.48,3.34,3.34,0,0,1-1.21-1.4,5.38,5.38,0,0,1,0-4.26,3.34,3.34,0,0,1,1.21-1.38,3.06,3.06,0,0,1,1.72-.49A2.81,2.81,0,0,1,481,168.16Zm-2,2.2a1.93,1.93,0,0,0-.47,1.4,2,2,0,0,0,.47,1.4,1.62,1.62,0,0,0,1.24.5,1.59,1.59,0,0,0,1.23-.52,2.22,2.22,0,0,0,0-2.78,1.61,1.61,0,0,0-1.23-.51A1.59,1.59,0,0,0,479,170.36Z"/><path class="cls-3" d="M64.72,185.38A3.73,3.73,0,0,1,66,187.67H63.47a1.3,1.3,0,0,0-.46-.78,1.35,1.35,0,0,0-.88-.28,1.29,1.29,0,0,0-1,.5,2.81,2.81,0,0,0,0,2.89,1.26,1.26,0,0,0,1,.5,1.35,1.35,0,0,0,.88-.28,1.27,1.27,0,0,0,.46-.78H66a3.73,3.73,0,0,1-1.29,2.29,3.91,3.91,0,0,1-2.53.83,4.21,4.21,0,0,1-2-.48,3.47,3.47,0,0,1-1.39-1.4,4.24,4.24,0,0,1-.51-2.12,4.37,4.37,0,0,1,.5-2.14A3.36,3.36,0,0,1,60.14,185a4.17,4.17,0,0,1,2-.49A3.91,3.91,0,0,1,64.72,185.38Z"/><path class="cls-3" d="M73,185a3.5,3.5,0,0,1,1.44,1.39,4.6,4.6,0,0,1,0,4.25,3.59,3.59,0,0,1-1.44,1.4,4.77,4.77,0,0,1-4.17,0,3.62,3.62,0,0,1-1.45-1.4,4.6,4.6,0,0,1,0-4.25A3.53,3.53,0,0,1,68.82,185,4.68,4.68,0,0,1,73,185Zm-3.24,2.08a2,2,0,0,0-.47,1.44,2,2,0,0,0,.47,1.42,1.54,1.54,0,0,0,1.16.49,1.51,1.51,0,0,0,1.15-.49,2,2,0,0,0,.46-1.42,2.07,2.07,0,0,0-.46-1.44,1.51,1.51,0,0,0-1.15-.5A1.55,1.55,0,0,0,69.75,187.12Z"/><path class="cls-3" d="M83.29,185.46a3.59,3.59,0,0,1,.79,2.47v4.53H81.69v-4.25a1.7,1.7,0,0,0-.42-1.23,1.43,1.43,0,0,0-1.09-.44A1.5,1.5,0,0,0,79,187a1.9,1.9,0,0,0-.43,1.32v4.14H76.2v-7.81h2.39v1.43a2.58,2.58,0,0,1,1-1.11,2.92,2.92,0,0,1,1.56-.4A2.69,2.69,0,0,1,83.29,185.46Z"/><path class="cls-3" d="M90.88,185.29a3.26,3.26,0,0,1,1.11,2H89.75a1.25,1.25,0,0,0-.44-.75,1.36,1.36,0,0,0-.86-.27.94.94,0,0,0-.62.18.59.59,0,0,0-.21.49.58.58,0,0,0,.39.55,6.26,6.26,0,0,0,1.21.36,12.54,12.54,0,0,1,1.47.43,2.46,2.46,0,0,1,1,.71,1.93,1.93,0,0,1,.42,1.31,2,2,0,0,1-.36,1.19,2.38,2.38,0,0,1-1,.82,4.22,4.22,0,0,1-1.62.29,4.18,4.18,0,0,1-2.54-.7,3,3,0,0,1-1.16-2h2.31a1.06,1.06,0,0,0,.43.77,1.63,1.63,0,0,0,1,.26.91.91,0,0,0,.61-.18.66.66,0,0,0,.21-.5.6.6,0,0,0-.38-.58,6.93,6.93,0,0,0-1.26-.37,11.27,11.27,0,0,1-1.42-.4,2.26,2.26,0,0,1-1-.68,1.87,1.87,0,0,1-.41-1.28,2.1,2.1,0,0,1,.8-1.7,3.52,3.52,0,0,1,2.26-.65A3.59,3.59,0,0,1,90.88,185.29Z"/><path class="cls-3" d="M97.86,190.4v2.06H96.78a3,3,0,0,1-2.13-.68,2.86,2.86,0,0,1-.77-2.24v-2.87h-1v-2h1v-1.92h2.4v1.92h1.56v2H96.28v2.91a.89.89,0,0,0,.18.64.92.92,0,0,0,.64.18Z"/><path class="cls-3" d="M99.37,181.55a1.67,1.67,0,0,1,2.07,0,1.17,1.17,0,0,1,.39.9,1.15,1.15,0,0,1-.39.89,1.67,1.67,0,0,1-2.07,0,1.15,1.15,0,0,1-.39-.89A1.17,1.17,0,0,1,99.37,181.55Zm2.23,3.1v7.81H99.2v-7.81Z"/><path class="cls-3" d="M107.67,190.4v2.06h-1.08a3.06,3.06,0,0,1-2.13-.68,2.86,2.86,0,0,1-.76-2.24v-2.87h-1v-2h1v-1.92h2.39v1.92h1.57v2h-1.57v2.91a.84.84,0,0,0,.19.64.91.91,0,0,0,.64.18Z"/><path class="cls-3" d="M116.79,184.65v7.81h-2.41v-1.41a2.69,2.69,0,0,1-1,1.09,2.94,2.94,0,0,1-1.55.41,2.71,2.71,0,0,1-2.14-.9,3.63,3.63,0,0,1-.79-2.46v-4.54h2.38v4.24a1.72,1.72,0,0,0,.42,1.24,1.45,1.45,0,0,0,1.11.44,1.48,1.48,0,0,0,1.15-.46,1.9,1.9,0,0,0,.42-1.32v-4.14Z"/><path class="cls-3" d="M124.5,185.38a3.73,3.73,0,0,1,1.29,2.29h-2.54a1.28,1.28,0,0,0-1.34-1.06,1.29,1.29,0,0,0-1,.5,2.81,2.81,0,0,0,0,2.89,1.26,1.26,0,0,0,1,.5,1.35,1.35,0,0,0,.88-.28,1.32,1.32,0,0,0,.46-.78h2.54a3.73,3.73,0,0,1-1.29,2.29,3.91,3.91,0,0,1-2.53.83,4.21,4.21,0,0,1-2-.48,3.47,3.47,0,0,1-1.39-1.4,4.24,4.24,0,0,1-.51-2.12,4.37,4.37,0,0,1,.5-2.14,3.36,3.36,0,0,1,1.39-1.38,4.17,4.17,0,0,1,2-.49A3.91,3.91,0,0,1,124.5,185.38Z"/><path class="cls-3" d="M127.2,181.55a1.48,1.48,0,0,1,1-.36,1.45,1.45,0,0,1,1,.36,1.18,1.18,0,0,1,.4.9,1.16,1.16,0,0,1-.4.89,1.45,1.45,0,0,1-1,.36,1.48,1.48,0,0,1-1-.36,1.15,1.15,0,0,1-.39-.89A1.17,1.17,0,0,1,127.2,181.55Zm2.23,3.1v7.81H127v-7.81Z"/><path class="cls-3" d="M136.81,185a3.5,3.5,0,0,1,1.44,1.39,4.53,4.53,0,0,1,0,4.25,3.59,3.59,0,0,1-1.44,1.4,4.75,4.75,0,0,1-4.16,0,3.55,3.55,0,0,1-1.45-1.4,4.53,4.53,0,0,1,0-4.25,3.47,3.47,0,0,1,1.45-1.39,4.66,4.66,0,0,1,4.16,0Zm-3.23,2.08a2,2,0,0,0-.47,1.44,2,2,0,0,0,.47,1.42,1.59,1.59,0,0,0,2.3,0,2,2,0,0,0,.46-1.42,2,2,0,0,0-.46-1.44,1.51,1.51,0,0,0-1.15-.5A1.53,1.53,0,0,0,133.58,187.12Zm3.16-4.47-3.38,1.44v-1.62l3.38-1.63Z"/><path class="cls-3" d="M147.12,185.46a3.64,3.64,0,0,1,.79,2.47v4.53h-2.4v-4.25a1.69,1.69,0,0,0-.41-1.23,1.45,1.45,0,0,0-1.1-.44,1.48,1.48,0,0,0-1.15.46,1.86,1.86,0,0,0-.43,1.32v4.14H140v-7.81h2.39v1.43a2.56,2.56,0,0,1,1-1.11,2.92,2.92,0,0,1,1.56-.4A2.7,2.7,0,0,1,147.12,185.46Z"/><path class="cls-3" d="M151.45,192.74a2.45,2.45,0,0,1-.51,1.6,1.93,1.93,0,0,1-1.59.63v-.88a.77.77,0,0,0,.55-.17.89.89,0,0,0,.18-.65v-.14h-1V191h2A3.78,3.78,0,0,1,151.45,192.74Z"/><path class="cls-3" d="M168,185.46a3.48,3.48,0,0,1,.82,2.47v4.53h-2.38v-4.25a1.59,1.59,0,0,0-.4-1.16,1.43,1.43,0,0,0-1.08-.41,1.49,1.49,0,0,0-1.13.44,1.77,1.77,0,0,0-.41,1.24v4.14H161v-4.25a1.63,1.63,0,0,0-.39-1.16,1.43,1.43,0,0,0-1.08-.41,1.5,1.5,0,0,0-1.13.43,1.73,1.73,0,0,0-.42,1.25v4.14h-2.39v-7.81H158V186a2.38,2.38,0,0,1,.95-1,2.87,2.87,0,0,1,1.49-.37A3,3,0,0,1,162,185a2.53,2.53,0,0,1,1,1.18,3.28,3.28,0,0,1,1.12-1.16,3.22,3.22,0,0,1,3.83.46Z"/><path class="cls-3" d="M176.15,185a3.5,3.5,0,0,1,1.44,1.39,4.53,4.53,0,0,1,0,4.25,3.59,3.59,0,0,1-1.44,1.4,4.75,4.75,0,0,1-4.16,0,3.55,3.55,0,0,1-1.45-1.4,4.53,4.53,0,0,1,0-4.25A3.47,3.47,0,0,1,172,185a4.66,4.66,0,0,1,4.16,0Zm-3.23,2.08a2,2,0,0,0-.47,1.44,1.93,1.93,0,0,0,.47,1.42,1.59,1.59,0,0,0,2.3,0,2,2,0,0,0,.46-1.42,2,2,0,0,0-.46-1.44,1.51,1.51,0,0,0-1.15-.5A1.53,1.53,0,0,0,172.92,187.12Z"/><path class="cls-3" d="M184.58,185.29a3.26,3.26,0,0,1,1.11,2h-2.24a1.25,1.25,0,0,0-.44-.75,1.34,1.34,0,0,0-.86-.27.89.89,0,0,0-.61.18.59.59,0,0,0-.21.49.57.57,0,0,0,.38.55,6.26,6.26,0,0,0,1.21.36,12.54,12.54,0,0,1,1.47.43,2.39,2.39,0,0,1,1,.71,1.88,1.88,0,0,1,.42,1.31,2,2,0,0,1-.36,1.19,2.38,2.38,0,0,1-1.05.82,4.22,4.22,0,0,1-1.62.29,4.18,4.18,0,0,1-2.54-.7,3,3,0,0,1-1.16-2h2.31a1.06,1.06,0,0,0,.43.77,1.67,1.67,0,0,0,1,.26.91.91,0,0,0,.61-.18.66.66,0,0,0,.21-.5.6.6,0,0,0-.38-.58,7,7,0,0,0-1.25-.37,11,11,0,0,1-1.43-.4,2.26,2.26,0,0,1-1-.68,1.87,1.87,0,0,1-.4-1.28,2.1,2.1,0,0,1,.79-1.7,3.54,3.54,0,0,1,2.26-.65A3.59,3.59,0,0,1,184.58,185.29Z"/><path class="cls-3" d="M191.56,190.4v2.06h-1.08a3,3,0,0,1-2.13-.68,2.86,2.86,0,0,1-.77-2.24v-2.87h-1.05v-2h1.05v-1.92H190v1.92h1.56v2H190v2.91a.84.84,0,0,0,.19.64.88.88,0,0,0,.63.18Z"/><path class="cls-3" d="M196.45,185a2.94,2.94,0,0,1,1.53-.42v2.56h-.68a2.37,2.37,0,0,0-1.48.4,1.64,1.64,0,0,0-.52,1.38v3.55h-2.4v-7.81h2.4v1.47A3.27,3.27,0,0,1,196.45,185Z"/><path class="cls-3" d="M203.5,185a2.42,2.42,0,0,1,.95,1.1v-1.41h2.38v7.81h-2.38v-1.41a2.42,2.42,0,0,1-.95,1.1,2.83,2.83,0,0,1-1.54.41,3.19,3.19,0,0,1-1.73-.48,3.31,3.31,0,0,1-1.2-1.4,5.38,5.38,0,0,1,0-4.26,3.25,3.25,0,0,1,1.2-1.38,3.12,3.12,0,0,1,1.73-.49A2.83,2.83,0,0,1,203.5,185Zm-2,2.2a2,2,0,0,0-.47,1.4,2,2,0,0,0,.47,1.4,1.63,1.63,0,0,0,1.24.5,1.61,1.61,0,0,0,1.24-.52,2.25,2.25,0,0,0,0-2.78,1.64,1.64,0,0,0-1.24-.51A1.61,1.61,0,0,0,201.49,187.16Z"/><path class="cls-3" d="M215.58,185.46a3.64,3.64,0,0,1,.79,2.47v4.53H214v-4.25a1.74,1.74,0,0,0-.41-1.23,1.63,1.63,0,0,0-2.25,0,1.86,1.86,0,0,0-.43,1.32v4.14h-2.4v-7.81h2.4v1.43a2.56,2.56,0,0,1,1-1.11,2.92,2.92,0,0,1,1.56-.4A2.7,2.7,0,0,1,215.58,185.46Z"/><path class="cls-3" d="M222.46,185a2.32,2.32,0,0,1,.93,1.1v-4h2.4v10.36h-2.4v-1.41a2.32,2.32,0,0,1-.93,1.1,2.85,2.85,0,0,1-1.54.41,3.17,3.17,0,0,1-1.73-.48,3.4,3.4,0,0,1-1.21-1.4,5.38,5.38,0,0,1,0-4.26,3.34,3.34,0,0,1,1.21-1.38,3.1,3.1,0,0,1,1.73-.49A2.85,2.85,0,0,1,222.46,185Zm-2,2.2a1.93,1.93,0,0,0-.47,1.4,2,2,0,0,0,.47,1.4,1.62,1.62,0,0,0,1.24.5,1.59,1.59,0,0,0,1.23-.52,2.22,2.22,0,0,0,0-2.78,1.61,1.61,0,0,0-1.23-.51A1.59,1.59,0,0,0,220.45,187.16Z"/><path class="cls-3" d="M233.17,185a3.53,3.53,0,0,1,1.45,1.39,4.6,4.6,0,0,1,0,4.25,3.62,3.62,0,0,1-1.45,1.4,4.75,4.75,0,0,1-4.16,0,3.55,3.55,0,0,1-1.45-1.4,4.53,4.53,0,0,1,0-4.25A3.47,3.47,0,0,1,229,185a4.66,4.66,0,0,1,4.16,0Zm-3.23,2.08a2,2,0,0,0-.47,1.44,2,2,0,0,0,.47,1.42,1.59,1.59,0,0,0,2.3,0,2,2,0,0,0,.46-1.42,2,2,0,0,0-.46-1.44,1.51,1.51,0,0,0-1.15-.5A1.53,1.53,0,0,0,229.94,187.12Z"/><path class="cls-3" d="M241.58,182.1v10.36h-2.39V182.1Z"/><path class="cls-3" d="M247.74,185a2.42,2.42,0,0,1,.95,1.1v-1.41h2.38v7.81h-2.38v-1.41a2.42,2.42,0,0,1-.95,1.1,2.83,2.83,0,0,1-1.54.41,3.19,3.19,0,0,1-1.73-.48,3.31,3.31,0,0,1-1.2-1.4,5.38,5.38,0,0,1,0-4.26,3.25,3.25,0,0,1,1.2-1.38,3.12,3.12,0,0,1,1.73-.49A2.83,2.83,0,0,1,247.74,185Zm-2,2.2a2,2,0,0,0-.47,1.4,2,2,0,0,0,.47,1.4,1.63,1.63,0,0,0,1.24.5,1.61,1.61,0,0,0,1.24-.52,2.25,2.25,0,0,0,0-2.78,1.64,1.64,0,0,0-1.24-.51A1.61,1.61,0,0,0,245.73,187.16Z"/><path class="cls-3" d="M257.94,185.29a3.26,3.26,0,0,1,1.11,2h-2.24a1.25,1.25,0,0,0-.44-.75,1.34,1.34,0,0,0-.86-.27.94.94,0,0,0-.62.18.59.59,0,0,0-.21.49.58.58,0,0,0,.39.55,6.26,6.26,0,0,0,1.21.36,12.54,12.54,0,0,1,1.47.43,2.46,2.46,0,0,1,1,.71,1.93,1.93,0,0,1,.42,1.31,2,2,0,0,1-.36,1.19,2.38,2.38,0,0,1-1.05.82,4.22,4.22,0,0,1-1.62.29,4.18,4.18,0,0,1-2.54-.7,3,3,0,0,1-1.16-2h2.31a1.06,1.06,0,0,0,.43.77,1.65,1.65,0,0,0,1,.26.91.91,0,0,0,.61-.18.66.66,0,0,0,.21-.5.6.6,0,0,0-.38-.58,6.93,6.93,0,0,0-1.26-.37,11.27,11.27,0,0,1-1.42-.4,2.26,2.26,0,0,1-1-.68,1.87,1.87,0,0,1-.41-1.28,2.1,2.1,0,0,1,.8-1.7,3.52,3.52,0,0,1,2.26-.65A3.59,3.59,0,0,1,257.94,185.29Z"/><path class="cls-3" d="M269.89,185a3.34,3.34,0,0,1,1.21,1.38,5.38,5.38,0,0,1,0,4.26,3.4,3.4,0,0,1-1.21,1.4,3.14,3.14,0,0,1-1.72.48,2.81,2.81,0,0,1-1.54-.41,2.34,2.34,0,0,1-.94-1.1v5.14h-2.4V184.65h2.4v1.41a2.34,2.34,0,0,1,.94-1.1,2.81,2.81,0,0,1,1.54-.41A3.06,3.06,0,0,1,269.89,185Zm-3.73,2.12a2.22,2.22,0,0,0,0,2.78,1.59,1.59,0,0,0,1.24.52,1.61,1.61,0,0,0,1.23-.5,2,2,0,0,0,.47-1.4,1.93,1.93,0,0,0-.47-1.4,1.58,1.58,0,0,0-1.23-.51A1.62,1.62,0,0,0,266.16,187.16Z"/><path class="cls-3" d="M276.33,185a3,3,0,0,1,1.54-.42v2.56h-.69a2.34,2.34,0,0,0-1.47.4,1.61,1.61,0,0,0-.53,1.38v3.55h-2.39v-7.81h2.39v1.47A3.36,3.36,0,0,1,276.33,185Z"/><path class="cls-3" d="M284.61,185a3.5,3.5,0,0,1,1.44,1.39,4.53,4.53,0,0,1,0,4.25,3.59,3.59,0,0,1-1.44,1.4,4.77,4.77,0,0,1-4.17,0,3.53,3.53,0,0,1-1.44-1.4,4.53,4.53,0,0,1,0-4.25,3.44,3.44,0,0,1,1.44-1.39,4.68,4.68,0,0,1,4.17,0Zm-3.23,2.08a2,2,0,0,0-.47,1.44,1.93,1.93,0,0,0,.47,1.42,1.59,1.59,0,0,0,2.3,0,2,2,0,0,0,.46-1.42,2,2,0,0,0-.46-1.44,1.57,1.57,0,0,0-2.3,0Z"/><path class="cls-3" d="M294.42,185a3.34,3.34,0,0,1,1.21,1.38,5.38,5.38,0,0,1,0,4.26,3.4,3.4,0,0,1-1.21,1.4,3.17,3.17,0,0,1-1.73.48,2.85,2.85,0,0,1-1.54-.41,2.32,2.32,0,0,1-.93-1.1v5.14h-2.4V184.65h2.4v1.41a2.32,2.32,0,0,1,.93-1.1,2.85,2.85,0,0,1,1.54-.41A3.1,3.1,0,0,1,294.42,185Zm-3.73,2.12a2.22,2.22,0,0,0,0,2.78,1.59,1.59,0,0,0,1.23.52,1.62,1.62,0,0,0,1.24-.5,2,2,0,0,0,.47-1.4,1.93,1.93,0,0,0-.47-1.4,1.59,1.59,0,0,0-1.24-.51A1.61,1.61,0,0,0,290.69,187.16Z"/><path class="cls-3" d="M305.08,184.65v7.81h-2.4v-1.41a2.65,2.65,0,0,1-1,1.09,2.88,2.88,0,0,1-1.54.41,2.71,2.71,0,0,1-2.14-.9,3.63,3.63,0,0,1-.79-2.46v-4.54h2.38v4.24a1.72,1.72,0,0,0,.42,1.24,1.45,1.45,0,0,0,1.11.44,1.48,1.48,0,0,0,1.15-.46,1.9,1.9,0,0,0,.42-1.32v-4.14Z"/><path class="cls-3" d="M314.09,189h-5.42a1.83,1.83,0,0,0,.45,1.27,1.45,1.45,0,0,0,1,.38,1.44,1.44,0,0,0,.88-.26,1.27,1.27,0,0,0,.47-.69H314a3.38,3.38,0,0,1-.67,1.48,3.72,3.72,0,0,1-1.32,1,4.11,4.11,0,0,1-1.78.37,4.2,4.2,0,0,1-2-.48,3.49,3.49,0,0,1-1.4-1.4,4.79,4.79,0,0,1,0-4.26,3.36,3.36,0,0,1,1.39-1.38,4.16,4.16,0,0,1,2-.49,4.22,4.22,0,0,1,2.05.48,3.29,3.29,0,0,1,1.36,1.33,3.94,3.94,0,0,1,.49,2A3.9,3.9,0,0,1,314.09,189Zm-2.77-2.16a1.51,1.51,0,0,0-1.06-.39,1.58,1.58,0,0,0-1.09.39,1.66,1.66,0,0,0-.49,1.15h3.05A1.4,1.4,0,0,0,311.32,186.83Z"/><path class="cls-3" d="M320.62,185.29a3.26,3.26,0,0,1,1.11,2h-2.24a1.31,1.31,0,0,0-.44-.75,1.36,1.36,0,0,0-.86-.27.94.94,0,0,0-.62.18.59.59,0,0,0-.21.49.58.58,0,0,0,.39.55,6,6,0,0,0,1.21.36,13.14,13.14,0,0,1,1.47.43,2.46,2.46,0,0,1,1,.71,1.93,1.93,0,0,1,.42,1.31,2,2,0,0,1-.36,1.19,2.38,2.38,0,0,1-1.05.82,4.24,4.24,0,0,1-1.63.29,4.15,4.15,0,0,1-2.53-.7,3,3,0,0,1-1.16-2h2.31a1.08,1.08,0,0,0,.42.77,1.67,1.67,0,0,0,1,.26.92.92,0,0,0,.62-.18.66.66,0,0,0,.21-.5.6.6,0,0,0-.38-.58,6.93,6.93,0,0,0-1.26-.37,11.48,11.48,0,0,1-1.43-.4,2.29,2.29,0,0,1-1-.68,1.87,1.87,0,0,1-.41-1.28,2.1,2.1,0,0,1,.8-1.7,3.49,3.49,0,0,1,2.25-.65A3.64,3.64,0,0,1,320.62,185.29Z"/><path class="cls-3" d="M327.6,190.4v2.06h-1.08a3.07,3.07,0,0,1-2.14-.68,2.86,2.86,0,0,1-.76-2.24v-2.87h-1.05v-2h1.05v-1.92H326v1.92h1.57v2H326v2.91a.89.89,0,0,0,.19.64.92.92,0,0,0,.64.18Z"/><path class="cls-3" d="M333.45,185a2.48,2.48,0,0,1,.95,1.1v-1.41h2.38v7.81H334.4v-1.41a2.48,2.48,0,0,1-.95,1.1,2.85,2.85,0,0,1-1.54.41,3.17,3.17,0,0,1-1.73-.48,3.4,3.4,0,0,1-1.21-1.4,5.38,5.38,0,0,1,0-4.26,3.34,3.34,0,0,1,1.21-1.38,3.1,3.1,0,0,1,1.73-.49A2.85,2.85,0,0,1,333.45,185Zm-2,2.2a1.93,1.93,0,0,0-.47,1.4,2,2,0,0,0,.47,1.4,1.76,1.76,0,0,0,2.48,0,2.25,2.25,0,0,0,0-2.78,1.65,1.65,0,0,0-1.24-.51A1.59,1.59,0,0,0,331.44,187.16Z"/><path class="cls-3" d="M343.65,185.29a3.26,3.26,0,0,1,1.11,2h-2.24a1.31,1.31,0,0,0-.44-.75,1.36,1.36,0,0,0-.86-.27.94.94,0,0,0-.62.18.59.59,0,0,0-.21.49.58.58,0,0,0,.39.55,6,6,0,0,0,1.21.36,13.81,13.81,0,0,1,1.47.43,2.46,2.46,0,0,1,1,.71,1.93,1.93,0,0,1,.42,1.31,2,2,0,0,1-.36,1.19,2.43,2.43,0,0,1-1.05.82,4.24,4.24,0,0,1-1.63.29,4.15,4.15,0,0,1-2.53-.7,3,3,0,0,1-1.16-2h2.31a1,1,0,0,0,.42.77,1.67,1.67,0,0,0,1,.26.94.94,0,0,0,.62-.18.66.66,0,0,0,.21-.5.59.59,0,0,0-.39-.58,6.53,6.53,0,0,0-1.25-.37,11.48,11.48,0,0,1-1.43-.4,2.29,2.29,0,0,1-1-.68,1.87,1.87,0,0,1-.41-1.28,2.1,2.1,0,0,1,.8-1.7,3.49,3.49,0,0,1,2.25-.65A3.64,3.64,0,0,1,343.65,185.29Z"/><path class="cls-3" d="M353.51,185a2.42,2.42,0,0,1,.95,1.1v-1.41h2.38v7.81h-2.38v-1.41a2.42,2.42,0,0,1-.95,1.1,2.83,2.83,0,0,1-1.54.41,3.19,3.19,0,0,1-1.73-.48,3.31,3.31,0,0,1-1.2-1.4,5.27,5.27,0,0,1,0-4.26,3.25,3.25,0,0,1,1.2-1.38,3.12,3.12,0,0,1,1.73-.49A2.83,2.83,0,0,1,353.51,185Zm-2,2.2a2,2,0,0,0-.47,1.4,2,2,0,0,0,.47,1.4,1.63,1.63,0,0,0,1.24.5,1.61,1.61,0,0,0,1.24-.52,2.25,2.25,0,0,0,0-2.78,1.64,1.64,0,0,0-1.24-.51A1.61,1.61,0,0,0,351.5,187.16Z"/><path class="cls-3" d="M364.55,185.38a3.64,3.64,0,0,1,1.29,2.29h-2.53a1.4,1.4,0,0,0-.46-.78,1.37,1.37,0,0,0-.89-.28,1.27,1.27,0,0,0-1,.5,2.75,2.75,0,0,0,0,2.89,1.25,1.25,0,0,0,1,.5,1.28,1.28,0,0,0,1.35-1.06h2.53a3.64,3.64,0,0,1-1.29,2.29,3.89,3.89,0,0,1-2.53.83,4.27,4.27,0,0,1-2-.48,3.53,3.53,0,0,1-1.39-1.4,4.23,4.23,0,0,1-.5-2.12,4.37,4.37,0,0,1,.49-2.14A3.44,3.44,0,0,1,360,185a4.13,4.13,0,0,1,2-.49A3.89,3.89,0,0,1,364.55,185.38Z"/><path class="cls-3" d="M371.51,190.4v2.06h-1.08a3.06,3.06,0,0,1-2.13-.68,2.86,2.86,0,0,1-.76-2.24v-2.87h-1.05v-2h1.05v-1.92h2.39v1.92h1.57v2h-1.57v2.91a.84.84,0,0,0,.19.64.92.92,0,0,0,.64.18Z"/><path class="cls-3" d="M380.63,184.65v7.81h-2.41v-1.41a2.69,2.69,0,0,1-1,1.09,2.94,2.94,0,0,1-1.55.41,2.67,2.67,0,0,1-2.13-.9,3.59,3.59,0,0,1-.8-2.46v-4.54h2.38v4.24a1.72,1.72,0,0,0,.42,1.24,1.45,1.45,0,0,0,1.11.44,1.46,1.46,0,0,0,1.15-.46,1.9,1.9,0,0,0,.42-1.32v-4.14Z"/><path class="cls-3" d="M386.79,185a2.48,2.48,0,0,1,.95,1.1v-1.41h2.38v7.81h-2.38v-1.41a2.48,2.48,0,0,1-.95,1.1,2.85,2.85,0,0,1-1.54.41,3.17,3.17,0,0,1-1.73-.48,3.4,3.4,0,0,1-1.21-1.4,5.38,5.38,0,0,1,0-4.26,3.34,3.34,0,0,1,1.21-1.38,3.1,3.1,0,0,1,1.73-.49A2.85,2.85,0,0,1,386.79,185Zm-2,2.2a1.93,1.93,0,0,0-.47,1.4,2,2,0,0,0,.47,1.4,1.62,1.62,0,0,0,1.24.5,1.59,1.59,0,0,0,1.23-.52,2.22,2.22,0,0,0,0-2.78,1.61,1.61,0,0,0-1.23-.51A1.59,1.59,0,0,0,384.78,187.16Z"/><path class="cls-3" d="M394.16,182.1v10.36h-2.39V182.1Z"/><path class="cls-3" d="M403.17,189h-5.42a1.83,1.83,0,0,0,.45,1.27,1.45,1.45,0,0,0,1,.38,1.44,1.44,0,0,0,.88-.26,1.27,1.27,0,0,0,.47-.69h2.53a3.38,3.38,0,0,1-.67,1.48,3.72,3.72,0,0,1-1.32,1,4.11,4.11,0,0,1-1.78.37,4.2,4.2,0,0,1-2-.48,3.49,3.49,0,0,1-1.4-1.4,4.79,4.79,0,0,1,0-4.26A3.36,3.36,0,0,1,397.3,185a4.16,4.16,0,0,1,2-.49,4.22,4.22,0,0,1,2.05.48,3.29,3.29,0,0,1,1.36,1.33,3.94,3.94,0,0,1,.49,2A3.9,3.9,0,0,1,403.17,189Zm-2.77-2.16a1.51,1.51,0,0,0-1.06-.39,1.58,1.58,0,0,0-1.09.39,1.66,1.66,0,0,0-.49,1.15h3.05A1.4,1.4,0,0,0,400.4,186.83Z"/><path class="cls-3" d="M409.7,185.29a3.26,3.26,0,0,1,1.11,2h-2.24a1.31,1.31,0,0,0-.44-.75,1.36,1.36,0,0,0-.86-.27.94.94,0,0,0-.62.18.59.59,0,0,0-.21.49.58.58,0,0,0,.39.55,6,6,0,0,0,1.21.36,13.14,13.14,0,0,1,1.47.43,2.46,2.46,0,0,1,1,.71,1.93,1.93,0,0,1,.42,1.31,2,2,0,0,1-.36,1.19,2.38,2.38,0,0,1-1.05.82,4.24,4.24,0,0,1-1.63.29,4.15,4.15,0,0,1-2.53-.7,3,3,0,0,1-1.16-2h2.31a1.08,1.08,0,0,0,.42.77,1.67,1.67,0,0,0,1,.26.92.92,0,0,0,.62-.18.66.66,0,0,0,.21-.5.6.6,0,0,0-.38-.58,6.93,6.93,0,0,0-1.26-.37,11.48,11.48,0,0,1-1.43-.4,2.29,2.29,0,0,1-1-.68,1.87,1.87,0,0,1-.41-1.28,2.1,2.1,0,0,1,.8-1.7,3.49,3.49,0,0,1,2.25-.65A3.64,3.64,0,0,1,409.7,185.29Z"/><path class="cls-3" d="M414.31,190.07v2.39h-2.48v-2.39Z"/></g></svg>